<?xml version="1.0" encoding="UTF-8" standalone="no"?>
<!-- Created with Inkscape (http://www.inkscape.org/) -->
<svg
   xmlns:dc="http://purl.org/dc/elements/1.1/"
   xmlns:cc="http://creativecommons.org/ns#"
   xmlns:rdf="http://www.w3.org/1999/02/22-rdf-syntax-ns#"
   xmlns:svg="http://www.w3.org/2000/svg"
   xmlns="http://www.w3.org/2000/svg"
   xmlns:xlink="http://www.w3.org/1999/xlink"
   xmlns:sodipodi="http://sodipodi.sourceforge.net/DTD/sodipodi-0.dtd"
   xmlns:inkscape="http://www.inkscape.org/namespaces/inkscape"
   height="128.00000pt"
   id="svg1"
   inkscape:version="0.46"
   sodipodi:docbase="/home/andy/andy/SVG/svgart"
   sodipodi:docname="gnome-dev-cdrom.svg"
   sodipodi:version="0.32"
   width="128.00000pt"
   inkscape:output_extension="org.inkscape.output.svg.inkscape"
   inkscape:export-filename="C:\Documents and Settings\All Users\Documents\Ubuntu Brig\Andy Fitzsimon\gnome-dev-cdrom.png"
   inkscape:export-xdpi="90"
   inkscape:export-ydpi="90">
  <metadata
     id="metadata3">
    <rdf:RDF>
      <cc:Work
         rdf:about="">
        <dc:title>Etiquette Icons</dc:title>
        <dc:description />
        <dc:subject>
          <rdf:Bag>
            <rdf:li>hash</rdf:li>
            <rdf:li />
            <rdf:li>computer</rdf:li>
            <rdf:li>icons</rdf:li>
            <rdf:li>device</rdf:li>
          </rdf:Bag>
        </dc:subject>
        <dc:publisher>
          <cc:Agent
             rdf:about="http://www.openclipart.org">
            <dc:title>Andy Fitzsimon</dc:title>
          </cc:Agent>
        </dc:publisher>
        <dc:creator>
          <cc:Agent>
            <dc:title>Andy Fitzsimon</dc:title>
          </cc:Agent>
        </dc:creator>
        <dc:rights>
          <cc:Agent>
            <dc:title>Andy Fitzsimon</dc:title>
          </cc:Agent>
        </dc:rights>
        <dc:date />
        <dc:format>image/svg+xml</dc:format>
        <dc:type
           rdf:resource="http://purl.org/dc/dcmitype/StillImage" />
        <cc:license
           rdf:resource="http://web.resource.org/cc/PublicDomain" />
        <dc:language>en</dc:language>
      </cc:Work>
      <cc:License
         rdf:about="http://web.resource.org/cc/PublicDomain">
        <cc:permits
           rdf:resource="http://web.resource.org/cc/Reproduction" />
        <cc:permits
           rdf:resource="http://web.resource.org/cc/Distribution" />
        <cc:permits
           rdf:resource="http://web.resource.org/cc/DerivativeWorks" />
      </cc:License>
    </rdf:RDF>
  </metadata>
  <defs
     id="defs3">
    <inkscape:perspective
       sodipodi:type="inkscape:persp3d"
       inkscape:vp_x="0 : 80 : 1"
       inkscape:vp_y="0 : 1000 : 0"
       inkscape:vp_z="160 : 80 : 1"
       inkscape:persp3d-origin="80 : 53.333333 : 1"
       id="perspective91" />
    <linearGradient
       id="linearGradient920">
      <stop
         id="stop921"
         offset="0.0000000"
         style="stop-color:#000000;stop-opacity:0.24793388;" />
      <stop
         id="stop922"
         offset="0.50000000"
         style="stop-color:#7f7f7f;stop-opacity:0.0000000;" />
      <stop
         id="stop923"
         offset="1.0000000"
         style="stop-color:#ffffff;stop-opacity:0.61157024;" />
    </linearGradient>
    <linearGradient
       id="linearGradient1454">
      <stop
         id="stop1455"
         offset="0"
         style="stop-color:#000;stop-opacity:1;" />
      <stop
         id="stop1456"
         offset="1"
         style="stop-color:#fff;stop-opacity:1;" />
    </linearGradient>
    <linearGradient
       id="linearGradient1546">
      <stop
         id="stop1547"
         offset="0.0000000"
         style="stop-color:#000;stop-opacity:1;" />
      <stop
         id="stop1548"
         offset="1.0000000"
         style="stop-color:#9a9a9a;stop-opacity:1.0000000;" />
    </linearGradient>
    <linearGradient
       id="linearGradient1471"
       x1="0.57205236"
       x2="0.57205236"
       xlink:href="#linearGradient1546"
       y1="-0.31297702"
       y2="0.74809158" />
    <linearGradient
       id="linearGradient1468"
       x1="0.17209302"
       x2="0.88837206"
       xlink:href="#linearGradient1461"
       y1="0.61392403"
       y2="0.56329113" />
    <linearGradient
       id="linearGradient1555"
       x1="0.65536726"
       x2="0.57062149"
       xlink:href="#linearGradient1494"
       y1="0.64885503"
       y2="0.14503820" />
    <linearGradient
       id="linearGradient1502">
      <stop
         id="stop1503"
         offset="0.0000000"
         style="stop-color:#000000;stop-opacity:0.0000000;" />
      <stop
         id="stop1506"
         offset="1.0000000"
         style="stop-color:#000000;stop-opacity:0.28125000;" />
    </linearGradient>
    <linearGradient
       id="linearGradient1550"
       x1="0.78260869"
       x2="0.74782610"
       xlink:href="#linearGradient1502"
       y1="0.96511632"
       y2="0.17441867" />
    <linearGradient
       id="linearGradient1467"
       x1="0.25581396"
       x2="1.0232558"
       xlink:href="#linearGradient1461"
       y1="0.58860761"
       y2="0.62025315" />
    <linearGradient
       id="linearGradient1466"
       x1="0.13953489"
       x2="1.0186046"
       xlink:href="#linearGradient1461"
       y1="0.51898736"
       y2="0.50000000" />
    <linearGradient
       id="linearGradient1465"
       x1="0.41340783"
       x2="0.41340783"
       xlink:href="#linearGradient1494"
       y1="-0.17557251"
       y2="0.94286799" />
    <linearGradient
       id="linearGradient1469"
       x1="0.50819665"
       x2="1.0601091"
       xlink:href="#linearGradient1494"
       y1="0.32824448"
       y2="1.6870232" />
    <linearGradient
       id="linearGradient1461">
      <stop
         id="stop1462"
         offset="0.0000000"
         style="stop-color:#ffffff;stop-opacity:0.0000000;" />
      <stop
         id="stop1464"
         offset="0.50000000"
         style="stop-color:#ffffff;stop-opacity:1.0000000;" />
      <stop
         id="stop1463"
         offset="1.0000000"
         style="stop-color:#ffffff;stop-opacity:0.0000000;" />
    </linearGradient>
    <linearGradient
       id="linearGradient1460"
       x1="0.19130436"
       x2="0.61739135"
       xlink:href="#linearGradient1461"
       y1="-0.023076870"
       y2="1.1115385" />
    <linearGradient
       id="linearGradient1500"
       x1="0.46575344"
       x2="0.46575344"
       xlink:href="#linearGradient1494"
       y1="0.15267175"
       y2="1.7433255" />
    <linearGradient
       id="linearGradient1494">
      <stop
         id="stop1495"
         offset="0.0000000"
         style="stop-color:#9d8f6a;stop-opacity:1.0000000;" />
      <stop
         id="stop1496"
         offset="0.49619800"
         style="stop-color:#ffffff;stop-opacity:1.0000000;" />
      <stop
         id="stop1498"
         offset="0.52539647"
         style="stop-color:#bfb5a5;stop-opacity:1.0000000;" />
      <stop
         id="stop1497"
         offset="1.0000000"
         style="stop-color:#f7f7f7;stop-opacity:1.0000000;" />
    </linearGradient>
    <linearGradient
       id="linearGradient1501"
       x1="0.43455496"
       x2="0.56544501"
       xlink:href="#linearGradient1494"
       y1="-0.52671754"
       y2="1.9847329" />
    <linearGradient
       id="linearGradient1551">
      <stop
         id="stop1552"
         offset="0.0000000"
         style="stop-color:#ffffff;stop-opacity:0.0000000;" />
      <stop
         id="stop1553"
         offset="1.0000000"
         style="stop-color:#ffffff;stop-opacity:1.0000000;" />
    </linearGradient>
    <linearGradient
       id="linearGradient1457"
       x1="0.48717949"
       x2="0.043956045"
       xlink:href="#linearGradient1551"
       y1="0.60000002"
       y2="0.93684208" />
    <linearGradient
       id="linearGradient1047">
      <stop
         id="stop1048"
         offset="0.0000000"
         style="stop-color:#c7c7c7;stop-opacity:0.0000000;" />
      <stop
         id="stop1050"
         offset="0.50000000"
         style="stop-color:#d4d4d4;stop-opacity:1.0000000;" />
      <stop
         id="stop1051"
         offset="0.75000000"
         style="stop-color:#dbdbdb;stop-opacity:0.93388432;" />
      <stop
         id="stop1049"
         offset="1.0000000"
         style="stop-color:#e2e2e2;stop-opacity:0.0000000;" />
    </linearGradient>
    <linearGradient
       id="linearGradient907">
      <stop
         id="stop908"
         offset="0.0000000"
         style="stop-color:#000000;stop-opacity:0.19791667;" />
      <stop
         id="stop910"
         offset="1.0000000"
         style="stop-color:#000000;stop-opacity:0.0000000;" />
    </linearGradient>
    <linearGradient
       id="linearGradient896">
      <stop
         id="stop897"
         offset="0.0000000"
         style="stop-color:#ffffff;stop-opacity:1.0000000;" />
      <stop
         id="stop899"
         offset="1.0000000"
         style="stop-color:#ffffff;stop-opacity:0.0000000;" />
    </linearGradient>
    <linearGradient
       id="linearGradient857">
      <stop
         id="stop858"
         offset="0.0000000"
         style="stop-color:#000000;stop-opacity:0.24705882;" />
      <stop
         id="stop860"
         offset="0.88888890"
         style="stop-color:#7f7f7f;stop-opacity:0.0000000;" />
      <stop
         id="stop859"
         offset="1.0000000"
         style="stop-color:#ffffff;stop-opacity:0.61157024;" />
    </linearGradient>
    <linearGradient
       id="linearGradient844">
      <stop
         id="stop845"
         offset="0.0000000"
         style="stop-color:#727272;stop-opacity:1.0000000;" />
      <stop
         id="stop849"
         offset="0.62207639"
         style="stop-color:#ffffff;stop-opacity:1.0000000;" />
      <stop
         id="stop850"
         offset="0.63207638"
         style="stop-color:#5a5a5a;stop-opacity:1.0000000;" />
      <stop
         id="stop846"
         offset="1.0000000"
         style="stop-color:#dfdfdf;stop-opacity:1.0000000;" />
    </linearGradient>
    <linearGradient
       id="linearGradient840">
      <stop
         id="stop841"
         offset="0"
         style="stop-color:#000;stop-opacity:1;" />
      <stop
         id="stop842"
         offset="1"
         style="stop-color:#fff;stop-opacity:1;" />
    </linearGradient>
    <linearGradient
       id="linearGradient843"
       x1="0.38868448"
       x2="0.40888888"
       xlink:href="#linearGradient907"
       y1="0.14189366"
       y2="0.35937500" />
    <linearGradient
       id="linearGradient856"
       x1="7.3357119e-16"
       x2="1.0000000"
       xlink:href="#linearGradient857"
       y1="0.50000000"
       y2="0.50000000" />
    <linearGradient
       id="linearGradient863"
       x1="0.44311377"
       x2="0.83832335"
       xlink:href="#linearGradient857"
       y1="0.45806453"
       y2="0.60645163" />
    <radialGradient
       cx="0.50000000"
       cy="0.50000000"
       fx="0.50000000"
       fy="0.50000000"
       id="radialGradient891"
       r="0.50000000"
       xlink:href="#linearGradient844" />
    <linearGradient
       id="linearGradient895"
       x1="0.39047620"
       x2="0.49523810"
       xlink:href="#linearGradient896"
       y1="1.0156250"
       y2="0.57031250" />
    <linearGradient
       id="linearGradient905"
       x1="0.20143886"
       x2="0.79658836"
       xlink:href="#linearGradient844"
       y1="0.16406251"
       y2="0.53374529" />
    <linearGradient
       id="linearGradient906"
       x1="-0.034482758"
       x2="1.2965517"
       xlink:href="#linearGradient1047"
       y1="0.14062500"
       y2="1.1328125" />
    <linearGradient
       id="linearGradient1507"
       x1="0.63358778"
       x2="0.50381678"
       xlink:href="#linearGradient857"
       y1="0.91406250"
       y2="0.51562500" />
    <linearGradient
       id="linearGradient1458"
       xlink:href="#linearGradient1454" />
  </defs>
  <sodipodi:namedview
     bordercolor="#666666"
     borderopacity="1.0"
     id="base"
     inkscape:cx="72.507539"
     inkscape:cy="74.668062"
     inkscape:pageopacity="0.0"
     inkscape:pageshadow="2"
     inkscape:window-height="667"
     inkscape:window-width="573"
     inkscape:window-x="221"
     inkscape:window-y="25"
     inkscape:zoom="1.7366334"
     pagecolor="#ffffff"
     showgrid="false"
     inkscape:current-layer="svg1" />
  <g
     id="g885"
     style="fill-opacity:0.15702476;"
     transform="matrix(0.293231,0.230684,-0.234534,0.288417,169.2246,-42.32555)">
    <path
       d="M 21.376473,289.63266 C -51.109307,289.63266 -109.93602,344.47296 -109.93602,412.07016 C -109.93602,479.66735 -51.109307,534.53890 21.376473,534.53891 C 93.862254,534.53891 152.68898,479.66734 152.68898,412.07016 C 152.68898,344.47297 93.862254,289.63266 21.376473,289.63266 z M 22.907723,369.50766 C 46.045334,369.50766 64.845224,386.92736 64.845224,408.38266 C 64.845234,429.83796 46.045334,447.25766 22.907723,447.25766 C -0.22989668,447.25767 -18.998527,429.83796 -18.998527,408.38266 C -18.998517,386.92735 -0.22988668,369.50766 22.907723,369.50766 z "
       id="path864"
       style="fill:#000000;fill-opacity:0.15702480;fill-rule:evenodd;stroke:none;stroke-width:1.0000000pt;" />
    <path
       d="M 7.9062500 288.62500 C -29.105501 292.30440 -64.848746 310.88956 -87.333019 340.80920 C -106.98608 366.84921 -115.65613 401.07554 -109.43337 433.25701 C -103.58486 465.20292 -83.820749 493.97570 -56.980710 512.06781 C -13.838147 542.20420 46.973618 543.97795 92.124066 516.94344 C 116.74938 502.57811 136.45857 479.83514 146.72703 453.18995 C 155.85096 429.05197 156.46536 401.96885 148.90625 377.31250 C 141.06526 352.13881 124.48383 330.16425 103.31417 314.58595 C 77.328351 295.58722 44.629824 286.29990 12.515052 288.46469 C 10.978785 288.51813 9.4425172 288.57156 7.9062500 288.62500 z M 22.906250 371.12500 C 42.281056 370.94467 61.533783 385.82623 62.999711 405.75294 C 64.608886 425.47974 47.735081 443.41770 28.402712 445.07834 C 9.5851584 447.91359 -11.070490 436.22365 -16.006970 417.37828 C -20.528346 401.30760 -11.781731 383.54150 2.9732815 376.17068 C 9.0692498 372.84571 16.029472 371.51896 22.906250 371.12500 z "
       id="path868"
       style="fill:#000000;fill-opacity:0.15702480;fill-rule:evenodd;stroke:none;stroke-width:1.0000000pt;" />
    <path
       d="M 14.718750 286.78125 C -33.258565 288.66181 -80.645462 316.86049 -101.15121 360.93526 C -114.16743 387.59742 -116.41288 419.24738 -107.34561 447.51956 C -98.971069 474.01443 -81.239397 497.23252 -58.339779 512.90124 C -39.619736 526.06024 -17.406078 533.93927 5.2499014 536.67344 C 39.158575 540.44757 74.501014 532.22850 102.25548 512.17045 C 136.30196 488.64193 158.43156 447.39846 155.41622 405.61716 C 153.80761 366.50876 130.89258 329.96931 98.091009 309.19638 C 73.559247 293.23805 43.962977 285.28251 14.718750 286.78125 z M 30.218750 373.46875 C 47.359802 376.79469 62.904044 392.55952 61.052237 410.77287 C 59.805799 431.00482 38.890914 446.11769 19.243328 443.48065 C 0.63089099 442.38971 -17.135972 425.50493 -15.210170 406.16132 C -14.296912 388.13754 2.5186340 373.72219 20.149907 373.16608 C 23.495490 372.33754 26.850724 373.27258 30.218750 373.46875 z "
       id="path873"
       style="fill:#000000;fill-opacity:0.15702480;fill-rule:evenodd;stroke:none;stroke-width:1.0000000pt;" />
    <path
       d="M 5.3437500 284.21875 C -43.029655 289.47387 -89.397839 320.87861 -107.07545 367.04581 C -125.22238 410.36796 -114.28063 463.61322 -81.389783 496.95084 C -62.601501 516.96127 -37.496223 530.79453 -10.804332 536.88099 C 14.978306 542.73732 42.417729 541.45403 67.442951 532.94425 C 90.309391 525.40447 111.17388 511.81372 127.09854 493.71284 C 151.71433 466.53238 163.83167 427.88665 156.81970 391.61603 C 153.57061 370.49057 143.78931 350.72156 130.48038 334.10126 C 106.33565 304.78391 69.698688 286.59134 31.895516 284.05250 C 23.064629 283.27510 14.176052 283.60634 5.3437500 284.21875 z M 29.375000 376.78125 C 45.313339 379.99657 59.954733 395.30091 57.197213 412.27451 C 54.432693 432.23845 31.226868 445.02781 12.507335 438.60396 C -4.4190284 434.49346 -16.759720 414.64378 -9.7702728 397.91869 C -4.3666234 382.63992 13.863589 373.96901 29.375000 376.78125 z "
       id="path884"
       style="fill:#000000;fill-opacity:0.15702480;fill-rule:evenodd;stroke:none;stroke-width:1.0000000pt;" />
  </g>
  <path
     d="M 108.43309,43.505834 C 87.178012,26.734118 57.066282,28.987407 41.212441,48.542391 C 25.358601,68.097375 29.739175,97.582280 50.994251,114.35400 C 72.249332,131.12571 102.36839,128.86338 118.22223,109.30841 C 134.07607,89.753418 129.68817,60.277550 108.43309,43.505834 z M 90.148702,66.966928 C 96.933362,72.320488 98.360562,81.709686 93.328562,87.916424 C 88.296572,94.123161 78.698342,94.812542 71.913682,89.458982 C 65.129011,84.105413 63.710982,74.723446 68.742982,68.516708 C 73.774982,62.309970 83.364032,61.613358 90.148702,66.966928 z "
     id="path985"
     style="fill:#ffffff;fill-rule:evenodd;stroke-width:1.0000000pt;" />
  <path
     d="M 593.10156,202.92778 C 520.61578,202.92778 461.78906,257.76808 461.78906,325.36528 C 461.78906,392.96247 520.61578,447.83402 593.10156,447.83403 C 665.58734,447.83403 724.41406,392.96246 724.41406,325.36528 C 724.41406,257.76809 665.58734,202.92778 593.10156,202.92778 z M 594.63281,282.80278 C 617.77042,282.80278 636.57031,300.22248 636.57031,321.67778 C 636.57032,343.13308 617.77042,360.55278 594.63281,360.55278 C 571.49519,360.55279 552.72656,343.13308 552.72656,321.67778 C 552.72657,300.22247 571.49520,282.80278 594.63281,282.80278 z "
     id="path855"
     style="fill:url(#linearGradient905);fill-opacity:1;fill-rule:evenodd;stroke-width:1.0000000pt;"
     transform="matrix(0.293231,0.234534,-0.234534,0.293231,-17.90917,-155.3515)" />
  <path
     d="M 594.63281,281.86528 C 570.93330,281.86528 551.69530,299.70144 551.69531,321.67778 C 551.69531,343.65413 570.93332,361.49028 594.63281,361.49028 C 618.33232,361.49028 637.57032,343.65413 637.57031,321.67778 C 637.57031,299.70143 618.33233,281.86529 594.63281,281.86528 z M 594.35156,305.58403 C 603.48994,305.58402 610.91406,312.68673 610.91406,321.42778 C 610.91406,330.16882 603.48993,337.24028 594.35156,337.24028 C 585.21319,337.24027 577.82031,330.16883 577.82031,321.42778 C 577.82031,312.68672 585.21319,305.58403 594.35156,305.58403 z "
     id="path861"
     style="fill:url(#linearGradient856);fill-opacity:1;fill-rule:evenodd;stroke-width:1.0000000pt;"
     transform="matrix(0.293231,0.234534,-0.234534,0.293231,-17.90917,-155.3515)" />
  <path
     d="M 595.15185,282.37822 C 571.45234,282.37822 552.21434,300.21438 552.21435,322.19072 C 552.21435,344.16707 571.45236,362.00322 595.15185,362.00322 C 618.85136,362.00322 638.08936,344.16707 638.08935,322.19072 C 638.08935,300.21437 618.85137,282.37823 595.15185,282.37822 z M 594.87060,306.09697 C 604.00898,306.09696 611.43310,313.19967 611.43310,321.94072 C 611.43310,330.68176 604.00897,337.75322 594.87060,337.75322 C 585.73223,337.75321 578.33935,330.68177 578.33935,321.94072 C 578.33935,313.19966 585.73223,306.09697 594.87060,306.09697 z "
     id="path862"
     style="fill:none;fill-opacity:0.24793388;fill-rule:evenodd;stroke:url(#linearGradient863);stroke-width:1.0000000pt;"
     transform="matrix(0.293231,0.234534,-0.234534,0.293231,-17.90917,-155.3515)" />
  <path
     d="M 118.38234,79.902045 C 127.33215,76.869705 121.17386,49.365135 93.731601,38.179285 C 65.990852,26.754705 41.691422,44.776205 42.400910,54.389045 C 47.169211,61.374985 109.43253,82.934385 118.38234,79.902045 z "
     id="path1055"
     sodipodi:nodetypes="czcc"
     style="fill:url(#linearGradient843);fill-opacity:1;fill-rule:evenodd;stroke-width:1.0000000pt;" />
  <path
     style="font-size:12px;font-style:normal;font-weight:normal;fill:#000000;fill-opacity:1;stroke:none;stroke-width:1pt;stroke-linecap:butt;stroke-linejoin:miter;stroke-opacity:1;font-family:helvetica"
     d="M -5.4159854,-26.653165 C -5.763985,-28.573163 -6.8679873,-29.509165 -8.7879854,-29.509165 C -9.9639842,-29.509165 -10.911986,-29.137164 -11.559985,-28.417165 C -12.351985,-27.553165 -12.783985,-26.305163 -12.783985,-24.889165 C -12.783985,-23.449166 -12.339985,-22.213164 -11.511985,-21.361165 C -10.839986,-20.665165 -9.9759842,-20.341165 -8.8359854,-20.341165 C -6.6999875,-20.341165 -5.4999851,-21.493167 -5.2359854,-23.809165 L -6.3879854,-23.809165 C -6.4839853,-23.209165 -6.6039855,-22.801164 -6.7839854,-22.453165 C -7.143985,-21.733165 -7.8879863,-21.325165 -8.8239854,-21.325165 C -10.563984,-21.325165 -11.667985,-22.717167 -11.667985,-24.901165 C -11.667985,-27.145162 -10.611984,-28.525165 -8.9199854,-28.525165 C -8.2119861,-28.525165 -7.551985,-28.309164 -7.1919854,-27.973165 C -6.8679857,-27.673165 -6.6879852,-27.301164 -6.5559854,-26.653165 L -5.4159854,-26.653165 M -1.4241104,-27.085165 C -3.1881086,-27.085165 -4.2561104,-25.825162 -4.2561104,-23.713165 C -4.2561104,-21.601167 -3.2001086,-20.341165 -1.4121104,-20.341165 C 0.35188788,-20.341165 1.4318896,-21.601167 1.4318896,-23.665165 C 1.4318896,-25.837162 0.38788784,-27.085165 -1.4241104,-27.085165 M -1.4121104,-26.161165 C -0.28411148,-26.161165 0.38788965,-25.237163 0.38788965,-23.677165 C 0.38788965,-22.201166 -0.30811146,-21.265165 -1.4121104,-21.265165 C -2.5281092,-21.265165 -3.2121104,-22.189166 -3.2121104,-23.713165 C -3.2121104,-25.225163 -2.5281092,-26.161165 -1.4121104,-26.161165 M 2.8315771,-26.905165 L 2.8315771,-20.617165 L 3.8395771,-20.617165 L 3.8395771,-24.565165 C 3.8395771,-25.477164 4.499578,-26.209165 5.3155771,-26.209165 C 6.0595764,-26.209165 6.4795771,-25.753164 6.4795771,-24.949165 L 6.4795771,-20.617165 L 7.4875771,-20.617165 L 7.4875771,-24.565165 C 7.4875771,-25.477164 8.147578,-26.209165 8.9635771,-26.209165 C 9.6955764,-26.209165 10.127577,-25.741164 10.127577,-24.949165 L 10.127577,-20.617165 L 11.135577,-20.617165 L 11.135577,-25.333165 C 11.135577,-26.461163 10.487576,-27.085165 9.3115771,-27.085165 C 8.471578,-27.085165 7.9675766,-26.833164 7.3795771,-26.125165 C 7.0075775,-26.797164 6.5035763,-27.085165 5.6875771,-27.085165 C 4.847578,-27.085165 4.2955766,-26.773164 3.7555771,-26.017165 L 3.7555771,-26.905165 L 2.8315771,-26.905165 M 12.64739,-18.001165 L 13.65539,-18.001165 L 13.65539,-21.277165 C 14.183389,-20.629165 14.77139,-20.341165 15.58739,-20.341165 C 17.207388,-20.341165 18.27539,-21.649167 18.27539,-23.653165 C 18.27539,-25.765162 17.243388,-27.085165 15.57539,-27.085165 C 14.723391,-27.085165 14.039389,-26.701164 13.57139,-25.957165 L 13.57139,-26.905165 L 12.64739,-26.905165 L 12.64739,-18.001165 M 15.40739,-26.149165 C 16.511389,-26.149165 17.23139,-25.177163 17.23139,-23.677165 C 17.23139,-22.249166 16.499389,-21.277165 15.40739,-21.277165 C 14.351391,-21.277165 13.65539,-22.237166 13.65539,-23.713165 C 13.65539,-25.189163 14.351391,-26.149165 15.40739,-26.149165 M 25.099077,-21.205165 C 24.991077,-21.181165 24.943077,-21.181165 24.883077,-21.181165 C 24.535077,-21.181165 24.343077,-21.361165 24.343077,-21.673165 L 24.343077,-25.369165 C 24.343077,-26.485163 23.527076,-27.085165 21.979077,-27.085165 C 21.067078,-27.085165 20.311077,-26.821164 19.891077,-26.353165 C 19.603077,-26.029165 19.483077,-25.669164 19.459077,-25.045165 L 20.467077,-25.045165 C 20.551077,-25.813164 21.007078,-26.161165 21.943077,-26.161165 C 22.843076,-26.161165 23.347077,-25.825164 23.347077,-25.225165 L 23.347077,-24.961165 C 23.347077,-24.541165 23.095076,-24.361165 22.303077,-24.265165 C 20.887079,-24.085165 20.671077,-24.037164 20.287077,-23.881165 C 19.555078,-23.581165 19.183077,-23.017164 19.183077,-22.201165 C 19.183077,-21.061166 19.975078,-20.341165 21.247077,-20.341165 C 22.039076,-20.341165 22.675078,-20.617165 23.383077,-21.265165 C 23.455077,-20.629165 23.767078,-20.341165 24.415077,-20.341165 C 24.619077,-20.341165 24.775077,-20.365165 25.099077,-20.449165 L 25.099077,-21.205165 M 23.347077,-22.597165 C 23.347077,-22.261165 23.251077,-22.057164 22.951077,-21.781165 C 22.543078,-21.409165 22.051077,-21.217165 21.463077,-21.217165 C 20.683078,-21.217165 20.227077,-21.589165 20.227077,-22.225165 C 20.227077,-22.885164 20.671078,-23.221165 21.739077,-23.377165 C 22.795076,-23.521164 23.011077,-23.569165 23.347077,-23.725165 L 23.347077,-22.597165 M 31.010765,-24.793165 C 30.962765,-25.405164 30.830764,-25.801165 30.590765,-26.149165 C 30.158765,-26.737164 29.402764,-27.085165 28.526765,-27.085165 C 26.834766,-27.085165 25.730765,-25.741163 25.730765,-23.653165 C 25.730765,-21.625167 26.810766,-20.341165 28.514765,-20.341165 C 30.014763,-20.341165 30.962765,-21.241166 31.082765,-22.777165 L 30.074765,-22.777165 C 29.906765,-21.769166 29.390764,-21.265165 28.538765,-21.265165 C 27.434766,-21.265165 26.774765,-22.165166 26.774765,-23.653165 C 26.774765,-25.225163 27.422766,-26.161165 28.514765,-26.161165 C 29.354764,-26.161165 29.882765,-25.669164 30.002765,-24.793165 L 31.010765,-24.793165 M 34.406765,-26.905165 L 33.374765,-26.905165 L 33.374765,-28.633165 L 32.378765,-28.633165 L 32.378765,-26.905165 L 31.526765,-26.905165 L 31.526765,-26.089165 L 32.378765,-26.089165 L 32.378765,-21.337165 C 32.378765,-20.701165 32.810765,-20.341165 33.590765,-20.341165 C 33.830764,-20.341165 34.070765,-20.365165 34.406765,-20.425165 L 34.406765,-21.265165 C 34.274765,-21.229165 34.118764,-21.217165 33.926765,-21.217165 C 33.494765,-21.217165 33.374765,-21.337165 33.374765,-21.781165 L 33.374765,-26.089165 L 34.406765,-26.089165 L 34.406765,-26.905165 M 39.083015,-20.617165 L 42.455015,-20.617165 C 44.663012,-20.617165 46.019015,-22.273167 46.019015,-24.997165 C 46.019015,-27.709162 44.675012,-29.365165 42.455015,-29.365165 L 39.083015,-29.365165 L 39.083015,-20.617165 M 40.199015,-21.601165 L 40.199015,-28.381165 L 42.263015,-28.381165 C 43.991013,-28.381165 44.903015,-27.217162 44.903015,-24.985165 C 44.903015,-22.777167 43.991013,-21.601165 42.263015,-21.601165 L 40.199015,-21.601165 M 48.48689,-26.905165 L 47.49089,-26.905165 L 47.49089,-20.617165 L 48.48689,-20.617165 L 48.48689,-26.905165 M 48.48689,-29.365165 L 47.47889,-29.365165 L 47.47889,-28.105165 L 48.48689,-28.105165 L 48.48689,-29.365165 M 54.614765,-25.153165 C 54.602765,-26.389163 53.786763,-27.085165 52.334765,-27.085165 C 50.870766,-27.085165 49.922765,-26.329163 49.922765,-25.165165 C 49.922765,-24.181166 50.426766,-23.713164 51.914765,-23.353165 L 52.850765,-23.125165 C 53.546764,-22.957165 53.822765,-22.705164 53.822765,-22.249165 C 53.822765,-21.661165 53.234764,-21.265165 52.358765,-21.265165 C 51.818765,-21.265165 51.362764,-21.421165 51.110765,-21.685165 C 50.954765,-21.865164 50.882765,-22.045165 50.822765,-22.489165 L 49.766765,-22.489165 C 49.814765,-21.037166 50.630766,-20.341165 52.274765,-20.341165 C 53.858763,-20.341165 54.866765,-21.121166 54.866765,-22.333165 C 54.866765,-23.269164 54.338763,-23.785165 53.090765,-24.085165 L 52.130765,-24.313165 C 51.314765,-24.505164 50.966765,-24.769165 50.966765,-25.213165 C 50.966765,-25.789164 51.482765,-26.161165 52.298765,-26.161165 C 53.102764,-26.161165 53.534765,-25.813164 53.558765,-25.153165 L 54.614765,-25.153165 M 61.010765,-24.793165 C 60.962765,-25.405164 60.830764,-25.801165 60.590765,-26.149165 C 60.158765,-26.737164 59.402764,-27.085165 58.526765,-27.085165 C 56.834766,-27.085165 55.730765,-25.741163 55.730765,-23.653165 C 55.730765,-21.625167 56.810766,-20.341165 58.514765,-20.341165 C 60.014763,-20.341165 60.962765,-21.241166 61.082765,-22.777165 L 60.074765,-22.777165 C 59.906765,-21.769166 59.390764,-21.265165 58.538765,-21.265165 C 57.434766,-21.265165 56.774765,-22.165166 56.774765,-23.653165 C 56.774765,-25.225163 57.422766,-26.161165 58.514765,-26.161165 C 59.354764,-26.161165 59.882765,-25.669164 60.002765,-24.793165 L 61.010765,-24.793165"
     id="text1232" />
  <path
     transform="scale(0.246729,0.246729)"
     style="font-size:12px;font-style:normal;font-weight:normal;fill:#000000;fill-opacity:1;stroke:none;stroke-width:1pt;stroke-linecap:butt;stroke-linejoin:miter;stroke-opacity:1;font-family:helvetica"
     d="M 29.922025,-68.045563 C 29.574026,-69.965562 28.470024,-70.901563 26.550025,-70.901563 C 25.374027,-70.901563 24.426025,-70.529563 23.778025,-69.809563 C 22.986026,-68.945564 22.554025,-67.697562 22.554025,-66.281563 C 22.554025,-64.841565 22.998026,-63.605563 23.826025,-62.753563 C 24.498025,-62.057564 25.362027,-61.733563 26.502025,-61.733563 C 28.638023,-61.733563 29.838026,-62.885566 30.102025,-65.201563 L 28.950025,-65.201563 C 28.854026,-64.601564 28.734025,-64.193563 28.554025,-63.845563 C 28.194026,-63.125564 27.450025,-62.717563 26.514025,-62.717563 C 24.774027,-62.717563 23.670025,-64.109566 23.670025,-66.293563 C 23.670025,-68.537561 24.726027,-69.917563 26.418025,-69.917563 C 27.126025,-69.917563 27.786026,-69.701563 28.146025,-69.365563 C 28.470025,-69.065564 28.650026,-68.693563 28.782025,-68.045563 L 29.922025,-68.045563 M 31.4779,-68.297563 L 31.4779,-62.009563 L 32.4859,-62.009563 L 32.4859,-65.273563 C 32.4859,-66.173563 32.713901,-66.761564 33.1939,-67.109563 C 33.5059,-67.337563 33.805901,-67.409563 34.5019,-67.421563 L 34.5019,-68.441563 C 34.333901,-68.465563 34.2499,-68.477563 34.1179,-68.477563 C 33.469901,-68.477563 32.9779,-68.093563 32.4019,-67.157563 L 32.4019,-68.297563 L 31.4779,-68.297563 M 40.813713,-64.817563 C 40.813713,-65.777562 40.741713,-66.353564 40.561713,-66.821563 C 40.153713,-67.853562 39.193712,-68.477563 38.017713,-68.477563 C 36.265715,-68.477563 35.137713,-67.133561 35.137713,-65.069563 C 35.137713,-63.005566 36.229715,-61.733563 37.993713,-61.733563 C 39.433711,-61.733563 40.429713,-62.549565 40.681713,-63.917563 L 39.673713,-63.917563 C 39.397713,-63.089564 38.833712,-62.657563 38.029713,-62.657563 C 37.393714,-62.657563 36.853713,-62.945564 36.517713,-63.473563 C 36.277713,-63.833563 36.193713,-64.193564 36.181713,-64.817563 L 40.813713,-64.817563 M 36.205713,-65.633563 C 36.289713,-66.797562 36.997714,-67.553563 38.005713,-67.553563 C 38.989712,-67.553563 39.745713,-66.737562 39.745713,-65.705563 C 39.745713,-65.681563 39.745713,-65.657563 39.733713,-65.633563 L 36.205713,-65.633563 M 47.7574,-62.597563 C 47.649401,-62.573563 47.6014,-62.573563 47.5414,-62.573563 C 47.193401,-62.573563 47.0014,-62.753564 47.0014,-63.065563 L 47.0014,-66.761563 C 47.0014,-67.877562 46.185399,-68.477563 44.6374,-68.477563 C 43.725401,-68.477563 42.9694,-68.213563 42.5494,-67.745563 C 42.261401,-67.421564 42.1414,-67.061563 42.1174,-66.437563 L 43.1254,-66.437563 C 43.2094,-67.205563 43.665401,-67.553563 44.6014,-67.553563 C 45.5014,-67.553563 46.0054,-67.217563 46.0054,-66.617563 L 46.0054,-66.353563 C 46.0054,-65.933564 45.7534,-65.753563 44.9614,-65.657563 C 43.545402,-65.477564 43.3294,-65.429563 42.9454,-65.273563 C 42.213401,-64.973564 41.8414,-64.409563 41.8414,-63.593563 C 41.8414,-62.453565 42.633402,-61.733563 43.9054,-61.733563 C 44.6974,-61.733563 45.333401,-62.009564 46.0414,-62.657563 C 46.1134,-62.021564 46.425401,-61.733563 47.0734,-61.733563 C 47.2774,-61.733563 47.433401,-61.757564 47.7574,-61.841563 L 47.7574,-62.597563 M 46.0054,-63.989563 C 46.0054,-63.653564 45.9094,-63.449563 45.6094,-63.173563 C 45.201401,-62.801564 44.7094,-62.609563 44.1214,-62.609563 C 43.341401,-62.609563 42.8854,-62.981564 42.8854,-63.617563 C 42.8854,-64.277563 43.329402,-64.613564 44.3974,-64.769563 C 45.453399,-64.913563 45.669401,-64.961564 46.0054,-65.117563 L 46.0054,-63.989563 M 51.065088,-68.297563 L 50.033088,-68.297563 L 50.033088,-70.025563 L 49.037088,-70.025563 L 49.037088,-68.297563 L 48.185088,-68.297563 L 48.185088,-67.481563 L 49.037088,-67.481563 L 49.037088,-62.729563 C 49.037088,-62.093564 49.469089,-61.733563 50.249088,-61.733563 C 50.489088,-61.733563 50.729088,-61.757564 51.065088,-61.817563 L 51.065088,-62.657563 C 50.933088,-62.621563 50.777088,-62.609563 50.585088,-62.609563 C 50.153088,-62.609563 50.033088,-62.729564 50.033088,-63.173563 L 50.033088,-67.481563 L 51.065088,-67.481563 L 51.065088,-68.297563 M 57.501213,-64.817563 C 57.501213,-65.777562 57.429213,-66.353564 57.249213,-66.821563 C 56.841213,-67.853562 55.881212,-68.477563 54.705213,-68.477563 C 52.953215,-68.477563 51.825213,-67.133561 51.825213,-65.069563 C 51.825213,-63.005566 52.917215,-61.733563 54.681213,-61.733563 C 56.121211,-61.733563 57.117213,-62.549565 57.369213,-63.917563 L 56.361213,-63.917563 C 56.085213,-63.089564 55.521212,-62.657563 54.717213,-62.657563 C 54.081214,-62.657563 53.541213,-62.945564 53.205213,-63.473563 C 52.965213,-63.833563 52.881213,-64.193564 52.869213,-64.817563 L 57.501213,-64.817563 M 52.893213,-65.633563 C 52.977213,-66.797562 53.685214,-67.553563 54.693213,-67.553563 C 55.677212,-67.553563 56.433213,-66.737562 56.433213,-65.705563 C 56.433213,-65.681563 56.433213,-65.657563 56.421213,-65.633563 L 52.893213,-65.633563 M 63.9649,-70.757563 L 62.9689,-70.757563 L 62.9689,-67.505563 C 62.548901,-68.141563 61.8769,-68.477563 61.0369,-68.477563 C 59.404902,-68.477563 58.3369,-67.169561 58.3369,-65.165563 C 58.3369,-63.041566 59.380902,-61.733563 61.0729,-61.733563 C 61.9369,-61.733563 62.536901,-62.057564 63.0769,-62.837563 L 63.0769,-62.009563 L 63.9649,-62.009563 L 63.9649,-70.757563 M 61.2049,-67.541563 C 62.284899,-67.541563 62.9689,-66.581562 62.9689,-65.081563 C 62.9689,-63.629565 62.272899,-62.669563 61.2169,-62.669563 C 60.112902,-62.669563 59.3809,-63.641565 59.3809,-65.105563 C 59.3809,-66.569562 60.112902,-67.541563 61.2049,-67.541563 M 68.680713,-70.757563 L 68.680713,-62.009563 L 69.580713,-62.009563 L 69.580713,-62.813563 C 70.060712,-62.081564 70.696714,-61.733563 71.572713,-61.733563 C 73.228711,-61.733563 74.308713,-63.089566 74.308713,-65.177563 C 74.308713,-67.217561 73.276711,-68.477563 71.620713,-68.477563 C 70.756714,-68.477563 70.144712,-68.153563 69.676713,-67.445563 L 69.676713,-70.757563 L 68.680713,-70.757563 M 71.428713,-67.541563 C 72.544712,-67.541563 73.264713,-66.569562 73.264713,-65.069563 C 73.264713,-63.641565 72.520712,-62.669563 71.428713,-62.669563 C 70.372714,-62.669563 69.676713,-63.629565 69.676713,-65.105563 C 69.676713,-66.581562 70.372714,-67.541563 71.428713,-67.541563 M 79.3684,-68.297563 L 77.6284,-63.401563 L 76.0204,-68.297563 L 74.9524,-68.297563 L 77.0764,-61.985563 L 76.6924,-60.989563 C 76.536401,-60.545564 76.3084,-60.377563 75.8884,-60.377563 C 75.744401,-60.377563 75.5764,-60.401563 75.3604,-60.449563 L 75.3604,-59.549563 C 75.5644,-59.441564 75.768401,-59.393563 76.0324,-59.393563 C 76.3564,-59.393563 76.704401,-59.501564 76.9684,-59.693563 C 77.2804,-59.921563 77.460401,-60.185564 77.6524,-60.689563 L 80.4484,-68.297563 L 79.3684,-68.297563 M 89.728525,-64.637563 L 90.628525,-62.009563 L 91.876525,-62.009563 L 88.804525,-70.757563 L 87.364525,-70.757563 L 84.244525,-62.009563 L 85.432525,-62.009563 L 86.356525,-64.637563 L 89.728525,-64.637563 M 89.416525,-65.573563 L 86.632525,-65.573563 L 88.072525,-69.557563 L 89.416525,-65.573563 M 92.89615,-68.297563 L 92.89615,-62.009563 L 93.90415,-62.009563 L 93.90415,-65.477563 C 93.90415,-66.761562 94.576151,-67.601563 95.60815,-67.601563 C 96.40015,-67.601563 96.90415,-67.121563 96.90415,-66.365563 L 96.90415,-62.009563 L 97.90015,-62.009563 L 97.90015,-66.761563 C 97.90015,-67.805562 97.120149,-68.477563 95.90815,-68.477563 C 94.972151,-68.477563 94.37215,-68.117563 93.82015,-67.241563 L 93.82015,-68.297563 L 92.89615,-68.297563 M 104.67584,-70.757563 L 103.67984,-70.757563 L 103.67984,-67.505563 C 103.25984,-68.141563 102.58784,-68.477563 101.74784,-68.477563 C 100.11584,-68.477563 99.047838,-67.169561 99.047838,-65.165563 C 99.047838,-63.041566 100.09184,-61.733563 101.78384,-61.733563 C 102.64784,-61.733563 103.24784,-62.057564 103.78784,-62.837563 L 103.78784,-62.009563 L 104.67584,-62.009563 L 104.67584,-70.757563 M 101.91584,-67.541563 C 102.99584,-67.541563 103.67984,-66.581562 103.67984,-65.081563 C 103.67984,-63.629565 102.98384,-62.669563 101.92784,-62.669563 C 100.82384,-62.669563 100.09184,-63.641565 100.09184,-65.105563 C 100.09184,-66.569562 100.82384,-67.541563 101.91584,-67.541563 M 106.24353,-68.297563 L 106.24353,-62.009563 L 107.25153,-62.009563 L 107.25153,-65.273563 C 107.25153,-66.173563 107.47953,-66.761564 107.95953,-67.109563 C 108.27153,-67.337563 108.57153,-67.409563 109.26753,-67.421563 L 109.26753,-68.441563 C 109.09953,-68.465563 109.01553,-68.477563 108.88353,-68.477563 C 108.23553,-68.477563 107.74352,-68.093563 107.16753,-67.157563 L 107.16753,-68.297563 L 106.24353,-68.297563 M 115.57934,-64.817563 C 115.57934,-65.777562 115.50734,-66.353564 115.32734,-66.821563 C 114.91934,-67.853562 113.95934,-68.477563 112.78334,-68.477563 C 111.03134,-68.477563 109.90334,-67.133561 109.90334,-65.069563 C 109.90334,-63.005566 110.99534,-61.733563 112.75934,-61.733563 C 114.19934,-61.733563 115.19534,-62.549565 115.44734,-63.917563 L 114.43934,-63.917563 C 114.16334,-63.089564 113.59934,-62.657563 112.79534,-62.657563 C 112.15934,-62.657563 111.61934,-62.945564 111.28334,-63.473563 C 111.04334,-63.833563 110.95934,-64.193564 110.94734,-64.817563 L 115.57934,-64.817563 M 110.97134,-65.633563 C 111.05534,-66.797562 111.76334,-67.553563 112.77134,-67.553563 C 113.75534,-67.553563 114.51134,-66.737562 114.51134,-65.705563 C 114.51134,-65.681563 114.51134,-65.657563 114.49934,-65.633563 L 110.97134,-65.633563 M 122.75103,-62.009563 L 124.59903,-68.297563 L 123.47103,-68.297563 L 122.22303,-63.401563 L 120.98703,-68.297563 L 119.76303,-68.297563 L 118.56303,-63.401563 L 117.27903,-68.297563 L 116.17503,-68.297563 L 117.99903,-62.009563 L 119.12703,-62.009563 L 120.33903,-66.941563 L 121.61103,-62.009563 L 122.75103,-62.009563 M 130.29903,-65.993563 L 134.47503,-65.993563 L 134.47503,-66.977563 L 130.29903,-66.977563 L 130.29903,-69.773563 L 135.05103,-69.773563 L 135.05103,-70.757563 L 129.18303,-70.757563 L 129.18303,-62.009563 L 130.29903,-62.009563 L 130.29903,-65.993563 M 137.23896,-68.297563 L 136.24296,-68.297563 L 136.24296,-62.009563 L 137.23896,-62.009563 L 137.23896,-68.297563 M 137.23896,-70.757563 L 136.23096,-70.757563 L 136.23096,-69.497563 L 137.23896,-69.497563 L 137.23896,-70.757563 M 141.15884,-68.297563 L 140.12684,-68.297563 L 140.12684,-70.025563 L 139.13084,-70.025563 L 139.13084,-68.297563 L 138.27884,-68.297563 L 138.27884,-67.481563 L 139.13084,-67.481563 L 139.13084,-62.729563 C 139.13084,-62.093564 139.56284,-61.733563 140.34284,-61.733563 C 140.58284,-61.733563 140.82284,-61.757564 141.15884,-61.817563 L 141.15884,-62.657563 C 141.02684,-62.621563 140.87084,-62.609563 140.67884,-62.609563 C 140.24684,-62.609563 140.12684,-62.729564 140.12684,-63.173563 L 140.12684,-67.481563 L 141.15884,-67.481563 L 141.15884,-68.297563 M 146.75496,-68.297563 L 142.06296,-68.297563 L 142.06296,-67.421563 L 145.56696,-67.421563 L 141.81096,-62.909563 L 141.81096,-62.009563 L 146.92296,-62.009563 L 146.92296,-62.885563 L 143.02296,-62.885563 L 146.75496,-67.409563 L 146.75496,-68.297563 M 152.69496,-66.545563 C 152.68296,-67.781562 151.86696,-68.477563 150.41496,-68.477563 C 148.95096,-68.477563 148.00296,-67.721562 148.00296,-66.557563 C 148.00296,-65.573564 148.50696,-65.105563 149.99496,-64.745563 L 150.93096,-64.517563 C 151.62696,-64.349564 151.90296,-64.097563 151.90296,-63.641563 C 151.90296,-63.053564 151.31496,-62.657563 150.43896,-62.657563 C 149.89896,-62.657563 149.44296,-62.813564 149.19096,-63.077563 C 149.03496,-63.257563 148.96296,-63.437564 148.90296,-63.881563 L 147.84696,-63.881563 C 147.89496,-62.429565 148.71096,-61.733563 150.35496,-61.733563 C 151.93896,-61.733563 152.94696,-62.513565 152.94696,-63.725563 C 152.94696,-64.661563 152.41896,-65.177564 151.17096,-65.477563 L 150.21096,-65.705563 C 149.39496,-65.897563 149.04696,-66.161564 149.04696,-66.605563 C 149.04696,-67.181563 149.56296,-67.553563 150.37896,-67.553563 C 151.18296,-67.553563 151.61496,-67.205563 151.63896,-66.545563 L 152.69496,-66.545563 M 155.23896,-68.297563 L 154.24296,-68.297563 L 154.24296,-62.009563 L 155.23896,-62.009563 L 155.23896,-68.297563 M 155.23896,-70.757563 L 154.23096,-70.757563 L 154.23096,-69.497563 L 155.23896,-69.497563 L 155.23896,-70.757563 M 156.95084,-68.297563 L 156.95084,-62.009563 L 157.95884,-62.009563 L 157.95884,-65.957563 C 157.95884,-66.869563 158.61884,-67.601563 159.43484,-67.601563 C 160.17884,-67.601563 160.59884,-67.145563 160.59884,-66.341563 L 160.59884,-62.009563 L 161.60684,-62.009563 L 161.60684,-65.957563 C 161.60684,-66.869563 162.26684,-67.601563 163.08284,-67.601563 C 163.81484,-67.601563 164.24684,-67.133563 164.24684,-66.341563 L 164.24684,-62.009563 L 165.25484,-62.009563 L 165.25484,-66.725563 C 165.25484,-67.853562 164.60684,-68.477563 163.43084,-68.477563 C 162.59084,-68.477563 162.08684,-68.225563 161.49884,-67.517563 C 161.12684,-68.189563 160.62284,-68.477563 159.80684,-68.477563 C 158.96684,-68.477563 158.41484,-68.165563 157.87484,-67.409563 L 157.87484,-68.297563 L 156.95084,-68.297563 M 169.38265,-68.477563 C 167.61865,-68.477563 166.55065,-67.217561 166.55065,-65.105563 C 166.55065,-62.993566 167.60665,-61.733563 169.39465,-61.733563 C 171.15865,-61.733563 172.23865,-62.993566 172.23865,-65.057563 C 172.23865,-67.229561 171.19465,-68.477563 169.38265,-68.477563 M 169.39465,-67.553563 C 170.52265,-67.553563 171.19465,-66.629562 171.19465,-65.069563 C 171.19465,-63.593565 170.49865,-62.657563 169.39465,-62.657563 C 168.27865,-62.657563 167.59465,-63.581565 167.59465,-65.105563 C 167.59465,-66.617562 168.27865,-67.553563 169.39465,-67.553563 M 173.63834,-68.297563 L 173.63834,-62.009563 L 174.64634,-62.009563 L 174.64634,-65.477563 C 174.64634,-66.761562 175.31834,-67.601563 176.35034,-67.601563 C 177.14234,-67.601563 177.64634,-67.121563 177.64634,-66.365563 L 177.64634,-62.009563 L 178.64234,-62.009563 L 178.64234,-66.761563 C 178.64234,-67.805562 177.86234,-68.477563 176.65034,-68.477563 C 175.71434,-68.477563 175.11434,-68.117563 174.56234,-67.241563 L 174.56234,-68.297563 L 173.63834,-68.297563"
     id="text1235" />
  <path
     d="M 90.771588,67.400503 C 83.822157,61.842162 73.997793,62.560312 68.843597,69.004458 C 63.689396,75.448605 65.147393,85.190685 72.096819,90.749021 C 79.046250,96.307366 88.870611,95.589216 94.024809,89.145066 C 99.179007,82.700918 97.721017,72.958849 90.771588,67.400503 z M 85.126264,74.289613 C 87.805922,76.432871 88.317078,80.256814 86.267004,82.819961 C 84.216933,85.383105 80.381450,85.715465 77.701797,83.572207 C 75.022146,81.428945 74.512817,77.621498 76.562891,75.058351 C 78.612967,72.495202 82.446610,72.146354 85.126264,74.289613 z "
     id="path924"
     style="fill:url(#linearGradient1507);fill-opacity:1;fill-rule:evenodd;stroke-width:1.0000000pt;" />
</svg>
