<?xml version="1.0" encoding="UTF-8" standalone="no"?>
<!-- Created with Inkscape (http://www.inkscape.org/) -->
<svg
   xmlns:dc="http://purl.org/dc/elements/1.1/"
   xmlns:cc="http://creativecommons.org/ns#"
   xmlns:rdf="http://www.w3.org/1999/02/22-rdf-syntax-ns#"
   xmlns:svg="http://www.w3.org/2000/svg"
   xmlns="http://www.w3.org/2000/svg"
   xmlns:xlink="http://www.w3.org/1999/xlink"
   xmlns:sodipodi="http://sodipodi.sourceforge.net/DTD/sodipodi-0.dtd"
   xmlns:inkscape="http://www.inkscape.org/namespaces/inkscape"
   height="128.00000pt"
   id="svg1428"
   inkscape:version="0.46"
   sodipodi:docbase="/home/andy/andy/SVG/svgart"
   sodipodi:docname="gnome-dev-harddisk.svg"
   sodipodi:version="0.32"
   width="128.00000pt"
   inkscape:output_extension="org.inkscape.output.svg.inkscape"
   inkscape:export-filename="C:\Documents and Settings\All Users\Documents\Ubuntu Brig\Andy Fitzsimon\gnome-dev-harddisk.png"
   inkscape:export-xdpi="90"
   inkscape:export-ydpi="90">
  <metadata
     id="metadata3">
    <rdf:RDF>
      <cc:Work
         rdf:about="">
        <dc:title>Etiquette Icons</dc:title>
        <dc:description />
        <dc:subject>
          <rdf:Bag>
            <rdf:li>hash</rdf:li>
            <rdf:li />
            <rdf:li>hardware</rdf:li>
            <rdf:li>computer</rdf:li>
            <rdf:li>icons</rdf:li>
            <rdf:li>device</rdf:li>
          </rdf:Bag>
        </dc:subject>
        <dc:publisher>
          <cc:Agent
             rdf:about="http://www.openclipart.org">
            <dc:title>Andy Fitzsimon</dc:title>
          </cc:Agent>
        </dc:publisher>
        <dc:creator>
          <cc:Agent>
            <dc:title>Andy Fitzsimon</dc:title>
          </cc:Agent>
        </dc:creator>
        <dc:rights>
          <cc:Agent>
            <dc:title>Andy Fitzsimon</dc:title>
          </cc:Agent>
        </dc:rights>
        <dc:date />
        <dc:format>image/svg+xml</dc:format>
        <dc:type
           rdf:resource="http://purl.org/dc/dcmitype/StillImage" />
        <cc:license
           rdf:resource="http://web.resource.org/cc/PublicDomain" />
        <dc:language>en</dc:language>
      </cc:Work>
      <cc:License
         rdf:about="http://web.resource.org/cc/PublicDomain">
        <cc:permits
           rdf:resource="http://web.resource.org/cc/Reproduction" />
        <cc:permits
           rdf:resource="http://web.resource.org/cc/Distribution" />
        <cc:permits
           rdf:resource="http://web.resource.org/cc/DerivativeWorks" />
      </cc:License>
    </rdf:RDF>
  </metadata>
  <defs
     id="defs1430">
    <inkscape:perspective
       sodipodi:type="inkscape:persp3d"
       inkscape:vp_x="0 : 80 : 1"
       inkscape:vp_y="0 : 1000 : 0"
       inkscape:vp_z="160 : 80 : 1"
       inkscape:persp3d-origin="80 : 53.333333 : 1"
       id="perspective69" />
    <linearGradient
       id="linearGradient1551">
      <stop
         id="stop1552"
         offset="0.0000000"
         style="stop-color:#ffffff;stop-opacity:0.0000000;" />
      <stop
         id="stop1553"
         offset="1.0000000"
         style="stop-color:#ffffff;stop-opacity:1.0000000;" />
    </linearGradient>
    <linearGradient
       id="linearGradient1546">
      <stop
         id="stop1547"
         offset="0.0000000"
         style="stop-color:#000;stop-opacity:1;" />
      <stop
         id="stop1548"
         offset="1.0000000"
         style="stop-color:#9a9a9a;stop-opacity:1.0000000;" />
    </linearGradient>
    <linearGradient
       id="linearGradient1502">
      <stop
         id="stop1503"
         offset="0.0000000"
         style="stop-color:#000000;stop-opacity:0.0000000;" />
      <stop
         id="stop1506"
         offset="1.0000000"
         style="stop-color:#000000;stop-opacity:0.28125000;" />
    </linearGradient>
    <linearGradient
       id="linearGradient1494">
      <stop
         id="stop1495"
         offset="0.0000000"
         style="stop-color:#9d8f6a;stop-opacity:1.0000000;" />
      <stop
         id="stop1496"
         offset="0.49619800"
         style="stop-color:#ffffff;stop-opacity:1.0000000;" />
      <stop
         id="stop1498"
         offset="0.52539647"
         style="stop-color:#bfb5a5;stop-opacity:1.0000000;" />
      <stop
         id="stop1497"
         offset="1.0000000"
         style="stop-color:#f7f7f7;stop-opacity:1.0000000;" />
    </linearGradient>
    <linearGradient
       id="linearGradient1461">
      <stop
         id="stop1462"
         offset="0.0000000"
         style="stop-color:#ffffff;stop-opacity:0.0000000;" />
      <stop
         id="stop1464"
         offset="0.50000000"
         style="stop-color:#ffffff;stop-opacity:1.0000000;" />
      <stop
         id="stop1463"
         offset="1.0000000"
         style="stop-color:#ffffff;stop-opacity:0.0000000;" />
    </linearGradient>
    <linearGradient
       id="linearGradient1454">
      <stop
         id="stop1455"
         offset="0"
         style="stop-color:#000;stop-opacity:1;" />
      <stop
         id="stop1456"
         offset="1"
         style="stop-color:#fff;stop-opacity:1;" />
    </linearGradient>
    <linearGradient
       id="linearGradient1457"
       x1="0.48717949"
       x2="0.043956045"
       xlink:href="#linearGradient1551"
       y1="0.60000002"
       y2="0.93684208" />
    <linearGradient
       id="linearGradient1458"
       x1="0.36774194"
       x2="0.23841059"
       xlink:href="#linearGradient1454"
       y1="-0.53435117"
       y2="1.6562500" />
    <linearGradient
       id="linearGradient1459"
       xlink:href="#linearGradient1502" />
    <linearGradient
       id="linearGradient1460"
       x1="0.63478261"
       x2="-0.21739130"
       xlink:href="#linearGradient1461"
       y1="0.60156250"
       y2="-1.3281250" />
    <linearGradient
       id="linearGradient1465"
       x1="0.41340783"
       x2="0.41340783"
       xlink:href="#linearGradient1494"
       y1="-0.17557251"
       y2="0.94286799" />
    <linearGradient
       id="linearGradient1466"
       x1="0.13953489"
       x2="1.0186046"
       xlink:href="#linearGradient1461"
       y1="0.51898736"
       y2="0.50000000" />
    <linearGradient
       id="linearGradient1467"
       x1="0.25581396"
       x2="1.0232558"
       xlink:href="#linearGradient1461"
       y1="0.58860761"
       y2="0.62025315" />
    <linearGradient
       id="linearGradient1468"
       x1="0.17209302"
       x2="0.88837206"
       xlink:href="#linearGradient1461"
       y1="0.61392403"
       y2="0.56329113" />
    <linearGradient
       id="linearGradient1469"
       x1="0.50819665"
       x2="1.0601091"
       xlink:href="#linearGradient1494"
       y1="0.32824448"
       y2="1.6870232" />
    <linearGradient
       id="linearGradient1471"
       x1="0.67841411"
       x2="0.30396476"
       xlink:href="#linearGradient1546"
       y1="-0.77343750"
       y2="0.53125000" />
    <linearGradient
       id="linearGradient1500"
       x1="0.46575344"
       x2="0.46575344"
       xlink:href="#linearGradient1494"
       y1="0.15267175"
       y2="1.7433255" />
    <linearGradient
       id="linearGradient1501"
       x1="0.43455496"
       x2="0.56544501"
       xlink:href="#linearGradient1494"
       y1="-0.52671754"
       y2="1.9847329" />
    <linearGradient
       id="linearGradient1507"
       x1="0.68498170"
       x2="0.86813188"
       xlink:href="#linearGradient1502"
       y1="0.34374997"
       y2="1.4499999" />
    <linearGradient
       id="linearGradient1550"
       x1="0.78260869"
       x2="0.74782610"
       xlink:href="#linearGradient1502"
       y1="0.96511632"
       y2="0.17441867" />
    <linearGradient
       id="linearGradient1555"
       x1="0.65536726"
       x2="0.57062149"
       xlink:href="#linearGradient1494"
       y1="0.64885503"
       y2="0.14503820" />
    <linearGradient
       id="linearGradient1556"
       xlink:href="#linearGradient1551" />
  </defs>
  <sodipodi:namedview
     bordercolor="#666666"
     borderopacity="1.0"
     id="base"
     inkscape:cx="48.431181"
     inkscape:cy="17.312312"
     inkscape:pageopacity="0.0"
     inkscape:pageshadow="2"
     inkscape:window-height="667"
     inkscape:window-width="573"
     inkscape:window-x="139"
     inkscape:window-y="25"
     inkscape:zoom="1.4142136"
     pagecolor="#ffffff"
     showborder="true"
     showgrid="false"
     inkscape:current-layer="svg1428" />
  <g
     id="g1583"
     style="fill:url(#linearGradient1507);"
     transform="matrix(1.084455,0.000000,0.000000,1.043417,-102.2860,-115.3176)">
    <path
       d="M 187.32210,244.31589 L 221.57593,159.13203 L 221.57593,148.31503 L 148.11049,136.14591 L 106.64533,216.37197 L 107.54675,226.73826 L 187.32210,244.31589 z "
       id="path1557"
       style="fill:url(#linearGradient1507);fill-opacity:1;fill-rule:evenodd;stroke-width:1.0000000pt;" />
    <path
       d="M 108.34375 216.71875 C 109.06478 219.58908 107.64586 225.14999 111.21829 225.80912 C 136.23927 231.32066 161.26026 236.83221 186.28125 242.34375 C 197.47917 214.44792 208.67708 186.55208 219.87500 158.65625 C 219.71907 155.82517 220.58690 151.64197 218.90070 149.62445 C 195.62130 145.76005 172.34190 141.89565 149.06250 138.03125 C 135.48958 164.26042 121.91667 190.48958 108.34375 216.71875 z "
       id="path1562"
       style="fill:url(#linearGradient1507);fill-opacity:1;fill-rule:evenodd;stroke-width:1.0000000pt;" />
    <path
       d="M 146.68750 134.03125 C 132.62901 161.54587 118.33528 189.05042 104.40625 216.56250 C 104.90521 220.63597 104.28377 225.52164 106.62500 228.90625 C 133.97979 234.91369 161.32960 240.94489 188.68750 246.93750 C 200.39950 217.67172 212.20468 188.41634 223.81250 159.12500 C 223.81250 154.85417 223.81250 150.58333 223.81250 146.31250 C 198.16215 142.12394 172.52292 137.86157 146.87500 133.65625 L 146.68750 134.03125 z "
       id="path1567"
       style="fill:url(#linearGradient1507);fill-opacity:1;fill-rule:evenodd;stroke-width:1.0000000pt;" />
    <path
       d="M 145.43750 131.53125 C 131.04295 159.91947 116.42083 188.30156 102.15625 216.68750 C 102.64307 221.63816 102.19823 227.48939 106.12500 231.15625 C 134.10478 237.28876 162.07969 243.44448 190.06250 249.56250 C 202.06782 219.42238 214.16202 189.29095 226.06250 159.12500 C 226.06250 154.18750 226.06250 149.25000 226.06250 144.31250 C 199.24565 139.95627 172.43944 135.52914 145.62500 131.15625 L 145.43750 131.53125 z "
       id="path1576"
       style="fill:url(#linearGradient1507);fill-opacity:1;fill-rule:evenodd;stroke-width:1.0000000pt;" />
    <path
       d="M 109.46821,217.57928 C 109.78762,220.69826 109.33639,226.07756 113.84299,225.92220 C 137.75974,231.20372 161.67647,236.48525 185.59321,241.76678 C 196.64529,214.20428 207.69738,186.64178 218.74946,159.07928 C 218.79084,156.10721 219.90441,150.65588 215.32121,150.91954 C 193.44312,147.27487 171.56504,143.63020 149.68696,139.98553 C 136.28071,165.85011 122.87446,191.71470 109.46821,217.57928 z "
       id="path1582"
       style="fill:url(#linearGradient1507);fill-opacity:1;fill-rule:evenodd;stroke-width:1.0000000pt;" />
  </g>
  <path
     d="M 101.40434,144.19651 L 138.55107,51.818456 L 138.55107,40.087907 L 58.881102,26.891044 L 13.914005,113.89260 L 14.891550,125.13437 L 101.40434,144.19651 z "
     id="path1432"
     style="fill:#525252;fill-rule:evenodd;stroke-width:1.0000000pt;"
     transform="translate(-1.767767,-5.303301)" />
  <path
     d="M 14.861902,113.54698 L 100.91557,132.95474 L 138.06230,41.065456 L 59.247684,27.746395 L 14.861902,113.54698 z "
     id="path1433"
     sodipodi:nodetypes="ccccc"
     style="fill:url(#linearGradient1458);fill-rule:evenodd;stroke-width:1.0000000pt;"
     transform="translate(-1.767767,-5.303301)" />
  <path
     d="M 41.774054,77.234643 L 33.953689,80.167279 L 21.245597,105.09470 L 27.110871,115.35892 L 61.324965,123.17928 L 67.190241,120.24665 L 71.100421,121.71297 L 72.834542,125.71682 L 94.829319,130.60454 L 104.82575,120.73542 L 115.57875,94.341690 L 108.24716,94.341690 C 105.80329,94.341690 89.510865,104.52446 70.122877,99.718193 C 50.246115,94.911927 43.892072,80.493127 41.774054,77.234643 z "
     id="path1470"
     sodipodi:nodetypes="cccccccccccczc"
     style="fill:url(#linearGradient1471);fill-opacity:1;fill-rule:evenodd;stroke-width:1.0000000pt;"
     transform="translate(-1.767767,-5.303301)" />
  <path
     d="M 102.49172,42.320778 C 83.310116,37.597381 53.760070,42.090371 45.119705,62.366424 C 36.479340,81.951250 57.389021,97.388701 71.386412,100.03841 C 86.420647,102.68813 112.16893,97.158290 120.80929,80.338381 C 129.79527,63.518472 122.01895,47.044178 102.49172,42.320778 z "
     id="path1439"
     sodipodi:nodetypes="czzzz"
     style="fill:url(#linearGradient1555);fill-rule:evenodd;stroke:url(#linearGradient1468);stroke-width:0.89126021;"
     transform="translate(-1.767767,-5.303301)" />
  <path
     d="M 108.23498,108.45119 L 103.16126,108.45119 C 81.305226,120.94035 45.008593,109.62205 37.593152,92.059158 L 29.397138,92.449444 L 32.519429,84.643716 L 39.934871,82.692285 C 46.179452,97.653262 72.718926,114.17539 105.50298,99.474599 L 112.52813,99.084313 L 108.23498,108.45119 z "
     id="path1554"
     sodipodi:nodetypes="ccccccccc"
     style="fill:url(#linearGradient1550);fill-opacity:1;fill-rule:evenodd;stroke-width:1.0000000pt;"
     transform="translate(-1.767767,-5.303301)" />
  <path
     d="M 102.73611,40.168713 C 83.554504,35.445317 54.004460,39.938307 45.364095,60.214360 C 36.723730,79.799186 57.633409,95.236637 71.630801,97.886349 C 86.665035,100.53606 112.41332,95.006227 121.05368,78.186317 C 130.03966,61.366408 122.26333,44.892115 102.73611,40.168713 z "
     id="path1438"
     sodipodi:nodetypes="czzzz"
     style="fill-opacity:0.24999996;fill-rule:evenodd;stroke:url(#linearGradient1467);stroke-width:0.72149634;"
     transform="translate(-1.767767,-5.303301)" />
  <path
     d="M 103.29098,37.188684 C 84.109370,32.465287 54.559325,36.958278 45.918960,57.234331 C 37.278596,76.819156 58.188275,92.256608 72.185668,94.906318 C 87.219902,97.556030 112.96818,92.026197 121.60856,75.206288 C 130.59452,58.386379 122.81820,41.912084 103.29098,37.188684 z "
     id="path1437"
     sodipodi:nodetypes="czzzz"
     style="fill:url(#linearGradient1465);fill-rule:evenodd;stroke:url(#linearGradient1466);stroke-width:1.0185831;"
     transform="translate(-1.767767,-5.303301)" />
  <path
     d="M 83.623448,51.920614 C 74.728950,52.710926 69.964005,59.467662 70.291517,63.977578 C 70.568965,67.798079 72.774211,75.896771 85.288129,74.843618 C 97.629692,73.802979 99.511819,65.522972 98.839598,61.038089 C 98.562153,57.217589 91.988368,50.995502 83.623448,51.920614 z "
     id="path1435"
     sodipodi:nodetypes="czzzz"
     style="fill-opacity:0.45833334;fill-rule:evenodd;stroke-width:1.0000000pt;"
     transform="translate(-1.767767,-5.303301)" />
  <path
     d="M 83.617017,52.012235 C 74.722523,52.802547 69.957575,59.559284 70.285090,64.069200 C 70.562535,67.889701 76.224492,73.484951 85.266308,72.337422 C 94.320638,71.362244 99.505392,65.614593 98.833171,61.129712 C 98.555722,57.309210 91.981937,51.087125 83.617017,52.012235 z "
     id="path1436"
     sodipodi:nodetypes="czzzz"
     style="fill:url(#linearGradient1469);fill-rule:evenodd;stroke-width:1.0000000pt;"
     transform="translate(-1.767767,-5.303301)" />
  <path
     d="M 42.859761,80.940483 L 33.817463,88.760848 C 27.581728,94.370687 33.285475,107.31773 39.438350,111.24440 L 39.682737,116.86528 L 44.326079,118.08722 L 47.014327,113.93265 L 58.989261,116.62090 L 64.121378,104.40158 C 45.914590,107.86372 40.171510,94.707583 50.069160,89.738392 C 46.444093,87.050141 44.285349,84.361893 42.859761,80.940483 z "
     id="path1440"
     sodipodi:nodetypes="cccccccccc"
     style="fill:url(#linearGradient1460);fill-rule:evenodd;stroke:none;stroke-width:5.3125000;stroke-linecap:round;stroke-linejoin:round;stroke-dasharray:none;"
     transform="translate(-1.767767,-5.303301)" />
  <path
     d="M 61.710981,89.203679 C 58.674608,90.643368 54.227067,89.434090 51.691199,91.622980 C 49.007430,93.984681 47.087231,98.247261 52.519135,102.16423 C 58.148748,106.25400 63.219563,103.97641 67.427323,100.09054 L 93.811482,75.724709 L 90.503239,75.551904 L 61.710981,89.203679 z "
     id="path1434"
     sodipodi:nodetypes="czzzccz"
     style="fill-opacity:0.30208334;fill-rule:evenodd;stroke-width:1.0000000pt;"
     transform="translate(-1.767767,-5.303301)" />
  <path
     d="M 84.648760,57.803369 C 82.337674,57.767579 78.124859,58.799978 78.082082,61.950744 C 78.161494,65.101510 83.058549,66.774522 85.858409,66.443730 C 88.780459,66.112938 91.417045,64.460888 91.215437,61.432319 C 91.013828,58.525938 86.837651,57.839158 84.648760,57.803369 z "
     id="path1441"
     sodipodi:nodetypes="czzzz"
     style="fill:#fff8d2;fill-opacity:0.54166669;fill-rule:evenodd;stroke-width:1.0000000pt;"
     transform="translate(-1.767767,-5.303301)" />
  <path
     d="M 60.676921,88.293599 C 57.433067,89.733288 53.159803,88.524010 50.308483,90.712900 C 47.284354,93.074601 44.749852,97.337181 49.617256,101.25414 C 54.657470,105.34391 60.056523,103.06633 64.824296,99.180456 L 94.719956,74.814629 L 91.436618,74.641822 L 60.676921,88.293599 z "
     id="path1499"
     sodipodi:nodetypes="czzzccz"
     style="fill:url(#linearGradient1500);fill-rule:evenodd;stroke-width:1.0000000pt;"
     transform="translate(-1.767767,-5.303301)" />
  <path
     d="M 86.617726,54.903445 C 85.650092,54.903445 84.867036,55.435187 84.867036,56.091792 C 84.867036,56.748398 85.650092,57.280144 86.617726,57.280139 C 87.585359,57.280139 88.368419,56.748398 88.368415,56.091792 C 88.368415,55.435187 87.585362,54.903450 86.617726,54.903445 z M 78.734317,56.314608 C 77.766684,56.314608 76.983628,56.846345 76.983628,57.502955 C 76.983628,58.159561 77.766684,58.691301 78.734317,58.691301 C 79.701952,58.691301 80.495621,58.159561 80.495618,57.502955 C 80.495618,56.846349 79.701952,56.314608 78.734317,56.314608 z M 93.832689,58.935337 C 92.865056,58.935337 92.071390,59.467078 92.071390,60.123684 C 92.071390,60.780289 92.865059,61.312027 93.832689,61.312031 C 94.800323,61.312031 95.583382,60.780289 95.583379,60.123684 C 95.583379,59.467078 94.800326,58.935333 93.832689,58.935337 z M 75.986265,62.118409 C 75.018632,62.118409 74.235576,62.650150 74.235576,63.306756 C 74.235576,63.963362 75.018635,64.495106 75.986265,64.495103 C 76.953899,64.495103 77.736955,63.963362 77.736955,63.306756 C 77.736955,62.650150 76.953902,62.118412 75.986265,62.118409 z M 90.405581,65.662229 C 89.437948,65.662229 88.654892,66.193970 88.654892,66.850576 C 88.654892,67.507182 89.437948,68.038926 90.405581,68.038923 C 91.373215,68.038923 92.156274,67.507182 92.156271,66.850576 C 92.156271,66.193970 91.373219,65.662232 90.405581,65.662229 z M 82.225087,67.243155 C 81.257453,67.243155 80.463790,67.774896 80.463787,68.431502 C 80.463787,69.088107 81.257446,69.630463 82.225087,69.630459 C 83.192720,69.630459 83.975772,69.088107 83.975776,68.431502 C 83.975776,67.774896 83.192717,67.243159 82.225087,67.243155 z "
     id="path1508"
     style="fill:url(#linearGradient1501);fill-opacity:1;fill-rule:evenodd;stroke-width:1.0000000pt;"
     transform="translate(-1.767767,-5.303301)" />
  <path
     d="M 15.000000,115.31250 L 15.625000,124.06250 L 85.312500,139.37500 L 15.000000,115.31250 z "
     id="path1589"
     style="fill:url(#linearGradient1457);fill-opacity:1;fill-rule:evenodd;stroke-width:1.0000000pt;"
     transform="translate(-1.767767,-5.303301)" />
  <path
     style="font-size:12px;font-style:normal;font-weight:normal;fill:#000000;fill-opacity:1;stroke:none;stroke-width:1pt;stroke-linecap:butt;stroke-linejoin:miter;stroke-opacity:1;font-family:helvetica"
     d="M 12.193293,176.00066 L 12.193293,179.98466 L 13.309293,179.98466 L 13.309293,171.23666 L 12.193293,171.23666 L 12.193293,175.01666 L 7.6932931,175.01666 L 7.6932931,171.23666 L 6.5772931,171.23666 L 6.5772931,179.98466 L 7.7052931,179.98466 L 7.7052931,176.00066 L 12.193293,176.00066 M 20.673168,179.39666 C 20.565168,179.42066 20.517168,179.42066 20.457168,179.42066 C 20.109168,179.42066 19.917168,179.24066 19.917168,178.92866 L 19.917168,175.23266 C 19.917168,174.11667 19.101167,173.51666 17.553168,173.51666 C 16.641169,173.51666 15.885168,173.78067 15.465168,174.24866 C 15.177168,174.57266 15.057168,174.93267 15.033168,175.55666 L 16.041168,175.55666 C 16.125168,174.78867 16.581169,174.44066 17.517168,174.44066 C 18.417167,174.44066 18.921168,174.77667 18.921168,175.37666 L 18.921168,175.64066 C 18.921168,176.06066 18.669167,176.24067 17.877168,176.33666 C 16.46117,176.51666 16.245168,176.56467 15.861168,176.72066 C 15.129169,177.02066 14.757168,177.58467 14.757168,178.40066 C 14.757168,179.54066 15.549169,180.26066 16.821168,180.26066 C 17.613167,180.26066 18.249169,179.98466 18.957168,179.33666 C 19.029168,179.97266 19.341169,180.26066 19.989168,180.26066 C 20.193168,180.26066 20.349168,180.23666 20.673168,180.15266 L 20.673168,179.39666 M 18.921168,178.00466 C 18.921168,178.34066 18.825168,178.54467 18.525168,178.82066 C 18.117169,179.19266 17.625168,179.38466 17.037168,179.38466 C 16.257169,179.38466 15.801168,179.01266 15.801168,178.37666 C 15.801168,177.71667 16.245169,177.38066 17.313168,177.22466 C 18.369167,177.08067 18.585168,177.03266 18.921168,176.87666 L 18.921168,178.00466 M 21.760856,173.69666 L 21.760856,179.98466 L 22.768856,179.98466 L 22.768856,176.72066 C 22.768856,175.82067 22.996856,175.23266 23.476856,174.88466 C 23.788855,174.65667 24.088856,174.58466 24.784856,174.57266 L 24.784856,173.55266 C 24.616856,173.52866 24.532855,173.51666 24.400856,173.51666 C 23.752856,173.51666 23.260855,173.90067 22.684856,174.83666 L 22.684856,173.69666 L 21.760856,173.69666 M 30.880668,171.23666 L 29.884668,171.23666 L 29.884668,174.48866 C 29.464669,173.85267 28.792667,173.51666 27.952668,173.51666 C 26.32067,173.51666 25.252668,174.82467 25.252668,176.82866 C 25.252668,178.95266 26.29667,180.26066 27.988668,180.26066 C 28.852667,180.26066 29.452669,179.93666 29.992668,179.15666 L 29.992668,179.98466 L 30.880668,179.98466 L 30.880668,171.23666 M 28.120668,174.45266 C 29.200667,174.45266 29.884668,175.41267 29.884668,176.91266 C 29.884668,178.36466 29.188667,179.32466 28.132668,179.32466 C 27.028669,179.32466 26.296668,178.35266 26.296668,176.88866 C 26.296668,175.42467 27.028669,174.45266 28.120668,174.45266 M 36.016481,179.98466 L 39.388481,179.98466 C 41.596478,179.98466 42.952481,178.32866 42.952481,175.60466 C 42.952481,172.89267 41.608478,171.23666 39.388481,171.23666 L 36.016481,171.23666 L 36.016481,179.98466 M 37.132481,179.00066 L 37.132481,172.22066 L 39.196481,172.22066 C 40.924479,172.22066 41.836481,173.38467 41.836481,175.61666 C 41.836481,177.82466 40.924479,179.00066 39.196481,179.00066 L 37.132481,179.00066 M 45.420356,173.69666 L 44.424356,173.69666 L 44.424356,179.98466 L 45.420356,179.98466 L 45.420356,173.69666 M 45.420356,171.23666 L 44.412356,171.23666 L 44.412356,172.49666 L 45.420356,172.49666 L 45.420356,171.23666 M 51.548231,175.44866 C 51.536231,174.21267 50.720229,173.51666 49.268231,173.51666 C 47.804232,173.51666 46.856231,174.27267 46.856231,175.43666 C 46.856231,176.42066 47.360232,176.88867 48.848231,177.24866 L 49.784231,177.47666 C 50.48023,177.64466 50.756231,177.89667 50.756231,178.35266 C 50.756231,178.94066 50.16823,179.33666 49.292231,179.33666 C 48.752231,179.33666 48.29623,179.18066 48.044231,178.91666 C 47.888231,178.73667 47.816231,178.55666 47.756231,178.11266 L 46.700231,178.11266 C 46.748231,179.56466 47.564232,180.26066 49.208231,180.26066 C 50.792229,180.26066 51.800231,179.48066 51.800231,178.26866 C 51.800231,177.33267 51.272229,176.81666 50.024231,176.51666 L 49.064231,176.28866 C 48.248231,176.09667 47.900231,175.83266 47.900231,175.38866 C 47.900231,174.81267 48.416231,174.44066 49.232231,174.44066 C 50.03623,174.44066 50.468231,174.78867 50.492231,175.44866 L 51.548231,175.44866 M 53.984231,171.23666 L 52.988231,171.23666 L 52.988231,179.98466 L 53.984231,179.98466 L 53.984231,177.53666 L 54.956231,176.57666 L 57.080231,179.98466 L 58.316231,179.98466 L 55.748231,175.86866 L 57.932231,173.69666 L 56.648231,173.69666 L 53.984231,176.36066 L 53.984231,171.23666"
     id="text1232" />
  <path
     transform="scale(0.246729,0.246729)"
     style="font-size:12px;font-style:normal;font-weight:normal;fill:#000000;fill-opacity:1;stroke:none;stroke-width:1pt;stroke-linecap:butt;stroke-linejoin:miter;stroke-opacity:1;font-family:helvetica"
     d="M 106.6916,744.99964 C 106.3436,743.07965 105.23959,742.14364 103.3196,742.14364 C 102.1436,742.14364 101.1956,742.51565 100.5476,743.23564 C 99.755598,744.09964 99.323597,745.34765 99.323597,746.76364 C 99.323597,748.20364 99.767598,749.43965 100.5956,750.29164 C 101.2676,750.98764 102.1316,751.31164 103.2716,751.31164 C 105.40759,751.31164 106.6076,750.15964 106.8716,747.84364 L 105.7196,747.84364 C 105.6236,748.44364 105.5036,748.85164 105.3236,749.19964 C 104.9636,749.91964 104.2196,750.32764 103.2836,750.32764 C 101.5436,750.32764 100.4396,748.93564 100.4396,746.75164 C 100.4396,744.50765 101.4956,743.12764 103.1876,743.12764 C 103.8956,743.12764 104.5556,743.34364 104.9156,743.67964 C 105.2396,743.97964 105.4196,744.35165 105.5516,744.99964 L 106.6916,744.99964 M 108.24747,744.74764 L 108.24747,751.03564 L 109.25547,751.03564 L 109.25547,747.77164 C 109.25547,746.87165 109.48347,746.28364 109.96347,745.93564 C 110.27547,745.70764 110.57547,745.63564 111.27147,745.62364 L 111.27147,744.60364 C 111.10347,744.57964 111.01947,744.56764 110.88747,744.56764 C 110.23947,744.56764 109.74747,744.95165 109.17147,745.88764 L 109.17147,744.74764 L 108.24747,744.74764 M 117.58328,748.22764 C 117.58328,747.26765 117.51128,746.69164 117.33128,746.22364 C 116.92328,745.19165 115.96328,744.56764 114.78728,744.56764 C 113.03529,744.56764 111.90728,745.91165 111.90728,747.97564 C 111.90728,750.03964 112.99929,751.31164 114.76328,751.31164 C 116.20328,751.31164 117.19928,750.49564 117.45128,749.12764 L 116.44328,749.12764 C 116.16728,749.95564 115.60328,750.38764 114.79928,750.38764 C 114.16328,750.38764 113.62328,750.09964 113.28728,749.57164 C 113.04728,749.21164 112.96328,748.85164 112.95128,748.22764 L 117.58328,748.22764 M 112.97528,747.41164 C 113.05928,746.24765 113.76729,745.49164 114.77528,745.49164 C 115.75928,745.49164 116.51528,746.30765 116.51528,747.33964 C 116.51528,747.36364 116.51528,747.38764 116.50328,747.41164 L 112.97528,747.41164 M 124.52697,750.44764 C 124.41897,750.47164 124.37097,750.47164 124.31097,750.47164 C 123.96297,750.47164 123.77097,750.29164 123.77097,749.97964 L 123.77097,746.28364 C 123.77097,745.16765 122.95497,744.56764 121.40697,744.56764 C 120.49497,744.56764 119.73897,744.83164 119.31897,745.29964 C 119.03097,745.62364 118.91097,745.98365 118.88697,746.60764 L 119.89497,746.60764 C 119.97897,745.83965 120.43497,745.49164 121.37097,745.49164 C 122.27097,745.49164 122.77497,745.82765 122.77497,746.42764 L 122.77497,746.69164 C 122.77497,747.11164 122.52297,747.29164 121.73097,747.38764 C 120.31497,747.56764 120.09897,747.61564 119.71497,747.77164 C 118.98297,748.07164 118.61097,748.63565 118.61097,749.45164 C 118.61097,750.59164 119.40297,751.31164 120.67497,751.31164 C 121.46697,751.31164 122.10297,751.03564 122.81097,750.38764 C 122.88297,751.02364 123.19497,751.31164 123.84297,751.31164 C 124.04697,751.31164 124.20297,751.28764 124.52697,751.20364 L 124.52697,750.44764 M 122.77497,749.05564 C 122.77497,749.39164 122.67897,749.59564 122.37897,749.87164 C 121.97097,750.24364 121.47897,750.43564 120.89097,750.43564 C 120.11097,750.43564 119.65497,750.06364 119.65497,749.42764 C 119.65497,748.76765 120.09897,748.43164 121.16697,748.27564 C 122.22297,748.13164 122.43897,748.08364 122.77497,747.92764 L 122.77497,749.05564 M 127.83466,744.74764 L 126.80266,744.74764 L 126.80266,743.01964 L 125.80666,743.01964 L 125.80666,744.74764 L 124.95466,744.74764 L 124.95466,745.56364 L 125.80666,745.56364 L 125.80666,750.31564 C 125.80666,750.95164 126.23866,751.31164 127.01866,751.31164 C 127.25866,751.31164 127.49866,751.28764 127.83466,751.22764 L 127.83466,750.38764 C 127.70266,750.42364 127.54666,750.43564 127.35466,750.43564 C 126.92266,750.43564 126.80266,750.31564 126.80266,749.87164 L 126.80266,745.56364 L 127.83466,745.56364 L 127.83466,744.74764 M 134.27078,748.22764 C 134.27078,747.26765 134.19878,746.69164 134.01878,746.22364 C 133.61078,745.19165 132.65078,744.56764 131.47478,744.56764 C 129.72279,744.56764 128.59478,745.91165 128.59478,747.97564 C 128.59478,750.03964 129.68679,751.31164 131.45078,751.31164 C 132.89078,751.31164 133.88678,750.49564 134.13878,749.12764 L 133.13078,749.12764 C 132.85478,749.95564 132.29078,750.38764 131.48678,750.38764 C 130.85078,750.38764 130.31078,750.09964 129.97478,749.57164 C 129.73478,749.21164 129.65078,748.85164 129.63878,748.22764 L 134.27078,748.22764 M 129.66278,747.41164 C 129.74678,746.24765 130.45479,745.49164 131.46278,745.49164 C 132.44678,745.49164 133.20278,746.30765 133.20278,747.33964 C 133.20278,747.36364 133.20278,747.38764 133.19078,747.41164 L 129.66278,747.41164 M 140.73447,742.28764 L 139.73847,742.28764 L 139.73847,745.53964 C 139.31847,744.90365 138.64647,744.56764 137.80647,744.56764 C 136.17447,744.56764 135.10647,745.87565 135.10647,747.87964 C 135.10647,750.00364 136.15047,751.31164 137.84247,751.31164 C 138.70647,751.31164 139.30647,750.98764 139.84647,750.20764 L 139.84647,751.03564 L 140.73447,751.03564 L 140.73447,742.28764 M 137.97447,745.50364 C 139.05447,745.50364 139.73847,746.46365 139.73847,747.96364 C 139.73847,749.41564 139.04247,750.37564 137.98647,750.37564 C 136.88247,750.37564 136.15047,749.40364 136.15047,747.93964 C 136.15047,746.47565 136.88247,745.50364 137.97447,745.50364 M 145.45028,742.28764 L 145.45028,751.03564 L 146.35028,751.03564 L 146.35028,750.23164 C 146.83028,750.96364 147.46629,751.31164 148.34228,751.31164 C 149.99828,751.31164 151.07828,749.95564 151.07828,747.86764 C 151.07828,745.82765 150.04628,744.56764 148.39028,744.56764 C 147.52629,744.56764 146.91428,744.89165 146.44628,745.59964 L 146.44628,742.28764 L 145.45028,742.28764 M 148.19828,745.50364 C 149.31428,745.50364 150.03428,746.47565 150.03428,747.97564 C 150.03428,749.40364 149.29028,750.37564 148.19828,750.37564 C 147.14229,750.37564 146.44628,749.41564 146.44628,747.93964 C 146.44628,746.46365 147.14229,745.50364 148.19828,745.50364 M 156.13797,744.74764 L 154.39797,749.64364 L 152.78997,744.74764 L 151.72197,744.74764 L 153.84597,751.05964 L 153.46197,752.05564 C 153.30597,752.49964 153.07797,752.66764 152.65797,752.66764 C 152.51397,752.66764 152.34597,752.64364 152.12997,752.59564 L 152.12997,753.49564 C 152.33397,753.60364 152.53797,753.65164 152.80197,753.65164 C 153.12597,753.65164 153.47397,753.54364 153.73797,753.35164 C 154.04997,753.12364 154.22997,752.85964 154.42197,752.35564 L 157.21797,744.74764 L 156.13797,744.74764 M 166.4981,748.40764 L 167.3981,751.03564 L 168.6461,751.03564 L 165.5741,742.28764 L 164.1341,742.28764 L 161.0141,751.03564 L 162.2021,751.03564 L 163.1261,748.40764 L 166.4981,748.40764 M 166.1861,747.47164 L 163.4021,747.47164 L 164.8421,743.48764 L 166.1861,747.47164 M 169.66572,744.74764 L 169.66572,751.03564 L 170.67372,751.03564 L 170.67372,747.56764 C 170.67372,746.28365 171.34572,745.44364 172.37772,745.44364 C 173.16972,745.44364 173.67372,745.92365 173.67372,746.67964 L 173.67372,751.03564 L 174.66972,751.03564 L 174.66972,746.28364 C 174.66972,745.23965 173.88972,744.56764 172.67772,744.56764 C 171.74172,744.56764 171.14172,744.92765 170.58972,745.80364 L 170.58972,744.74764 L 169.66572,744.74764 M 181.44541,742.28764 L 180.44941,742.28764 L 180.44941,745.53964 C 180.02941,744.90365 179.35741,744.56764 178.51741,744.56764 C 176.88541,744.56764 175.81741,745.87565 175.81741,747.87964 C 175.81741,750.00364 176.86141,751.31164 178.55341,751.31164 C 179.41741,751.31164 180.01741,750.98764 180.55741,750.20764 L 180.55741,751.03564 L 181.44541,751.03564 L 181.44541,742.28764 M 178.68541,745.50364 C 179.76541,745.50364 180.44941,746.46365 180.44941,747.96364 C 180.44941,749.41564 179.75341,750.37564 178.69741,750.37564 C 177.59341,750.37564 176.86141,749.40364 176.86141,747.93964 C 176.86141,746.47565 177.59341,745.50364 178.68541,745.50364 M 183.0131,744.74764 L 183.0131,751.03564 L 184.0211,751.03564 L 184.0211,747.77164 C 184.0211,746.87165 184.2491,746.28364 184.7291,745.93564 C 185.0411,745.70764 185.3411,745.63564 186.0371,745.62364 L 186.0371,744.60364 C 185.8691,744.57964 185.7851,744.56764 185.6531,744.56764 C 185.0051,744.56764 184.5131,744.95165 183.9371,745.88764 L 183.9371,744.74764 L 183.0131,744.74764 M 192.34891,748.22764 C 192.34891,747.26765 192.27691,746.69164 192.09691,746.22364 C 191.68891,745.19165 190.72891,744.56764 189.55291,744.56764 C 187.80091,744.56764 186.67291,745.91165 186.67291,747.97564 C 186.67291,750.03964 187.76491,751.31164 189.52891,751.31164 C 190.96891,751.31164 191.96491,750.49564 192.21691,749.12764 L 191.20891,749.12764 C 190.93291,749.95564 190.36891,750.38764 189.56491,750.38764 C 188.92891,750.38764 188.38891,750.09964 188.05291,749.57164 C 187.81291,749.21164 187.72891,748.85164 187.71691,748.22764 L 192.34891,748.22764 M 187.74091,747.41164 C 187.82491,746.24765 188.53291,745.49164 189.54091,745.49164 C 190.52491,745.49164 191.28091,746.30765 191.28091,747.33964 C 191.28091,747.36364 191.28091,747.38764 191.26891,747.41164 L 187.74091,747.41164 M 199.5206,751.03564 L 201.3686,744.74764 L 200.2406,744.74764 L 198.9926,749.64364 L 197.7566,744.74764 L 196.5326,744.74764 L 195.3326,749.64364 L 194.0486,744.74764 L 192.9446,744.74764 L 194.7686,751.03564 L 195.8966,751.03564 L 197.1086,746.10364 L 198.3806,751.03564 L 199.5206,751.03564 M 207.0686,747.05164 L 211.2446,747.05164 L 211.2446,746.06764 L 207.0686,746.06764 L 207.0686,743.27164 L 211.8206,743.27164 L 211.8206,742.28764 L 205.9526,742.28764 L 205.9526,751.03564 L 207.0686,751.03564 L 207.0686,747.05164 M 214.00853,744.74764 L 213.01253,744.74764 L 213.01253,751.03564 L 214.00853,751.03564 L 214.00853,744.74764 M 214.00853,742.28764 L 213.00053,742.28764 L 213.00053,743.54764 L 214.00853,743.54764 L 214.00853,742.28764 M 217.92841,744.74764 L 216.89641,744.74764 L 216.89641,743.01964 L 215.90041,743.01964 L 215.90041,744.74764 L 215.04841,744.74764 L 215.04841,745.56364 L 215.90041,745.56364 L 215.90041,750.31564 C 215.90041,750.95164 216.33241,751.31164 217.11241,751.31164 C 217.35241,751.31164 217.59241,751.28764 217.92841,751.22764 L 217.92841,750.38764 C 217.79641,750.42364 217.64041,750.43564 217.44841,750.43564 C 217.01641,750.43564 216.89641,750.31564 216.89641,749.87164 L 216.89641,745.56364 L 217.92841,745.56364 L 217.92841,744.74764 M 223.52453,744.74764 L 218.83253,744.74764 L 218.83253,745.62364 L 222.33653,745.62364 L 218.58053,750.13564 L 218.58053,751.03564 L 223.69253,751.03564 L 223.69253,750.15964 L 219.79253,750.15964 L 223.52453,745.63564 L 223.52453,744.74764 M 229.46453,746.49964 C 229.45253,745.26365 228.63653,744.56764 227.18453,744.56764 C 225.72054,744.56764 224.77253,745.32365 224.77253,746.48764 C 224.77253,747.47164 225.27654,747.93964 226.76453,748.29964 L 227.70053,748.52764 C 228.39653,748.69564 228.67253,748.94764 228.67253,749.40364 C 228.67253,749.99164 228.08453,750.38764 227.20853,750.38764 C 226.66853,750.38764 226.21253,750.23164 225.96053,749.96764 C 225.80453,749.78764 225.73253,749.60764 225.67253,749.16364 L 224.61653,749.16364 C 224.66453,750.61564 225.48054,751.31164 227.12453,751.31164 C 228.70853,751.31164 229.71653,750.53164 229.71653,749.31964 C 229.71653,748.38365 229.18853,747.86764 227.94053,747.56764 L 226.98053,747.33964 C 226.16454,747.14764 225.81653,746.88364 225.81653,746.43964 C 225.81653,745.86365 226.33254,745.49164 227.14853,745.49164 C 227.95253,745.49164 228.38453,745.83965 228.40853,746.49964 L 229.46453,746.49964 M 232.00853,744.74764 L 231.01253,744.74764 L 231.01253,751.03564 L 232.00853,751.03564 L 232.00853,744.74764 M 232.00853,742.28764 L 231.00053,742.28764 L 231.00053,743.54764 L 232.00853,743.54764 L 232.00853,742.28764 M 233.72041,744.74764 L 233.72041,751.03564 L 234.72841,751.03564 L 234.72841,747.08764 C 234.72841,746.17565 235.38841,745.44364 236.20441,745.44364 C 236.94841,745.44364 237.36841,745.89965 237.36841,746.70364 L 237.36841,751.03564 L 238.37641,751.03564 L 238.37641,747.08764 C 238.37641,746.17565 239.03641,745.44364 239.85241,745.44364 C 240.58441,745.44364 241.01641,745.91165 241.01641,746.70364 L 241.01641,751.03564 L 242.02441,751.03564 L 242.02441,746.31964 C 242.02441,745.19165 241.37641,744.56764 240.20041,744.56764 C 239.36041,744.56764 238.85641,744.81965 238.26841,745.52764 C 237.89641,744.85565 237.39241,744.56764 236.57641,744.56764 C 235.73641,744.56764 235.18441,744.87965 234.64441,745.63564 L 234.64441,744.74764 L 233.72041,744.74764 M 246.15222,744.56764 C 244.38822,744.56764 243.32022,745.82765 243.32022,747.93964 C 243.32022,750.05164 244.37622,751.31164 246.16422,751.31164 C 247.92822,751.31164 249.00822,750.05164 249.00822,747.98764 C 249.00822,745.81565 247.96422,744.56764 246.15222,744.56764 M 246.16422,745.49164 C 247.29222,745.49164 247.96422,746.41565 247.96422,747.97564 C 247.96422,749.45164 247.26822,750.38764 246.16422,750.38764 C 245.04822,750.38764 244.36422,749.46364 244.36422,747.93964 C 244.36422,746.42765 245.04822,745.49164 246.16422,745.49164 M 250.40791,744.74764 L 250.40791,751.03564 L 251.41591,751.03564 L 251.41591,747.56764 C 251.41591,746.28365 252.08791,745.44364 253.11991,745.44364 C 253.91191,745.44364 254.41591,745.92365 254.41591,746.67964 L 254.41591,751.03564 L 255.41191,751.03564 L 255.41191,746.28364 C 255.41191,745.23965 254.63191,744.56764 253.41991,744.56764 C 252.48391,744.56764 251.88391,744.92765 251.33191,745.80364 L 251.33191,744.74764 L 250.40791,744.74764"
     id="text1235" />
</svg>
