<?xml version="1.0" encoding="UTF-8" standalone="no"?>
<svg
   xmlns:dc="http://purl.org/dc/elements/1.1/"
   xmlns:cc="http://creativecommons.org/ns#"
   xmlns:rdf="http://www.w3.org/1999/02/22-rdf-syntax-ns#"
   xmlns:svg="http://www.w3.org/2000/svg"
   xmlns="http://www.w3.org/2000/svg"
   xmlns:xlink="http://www.w3.org/1999/xlink"
   xmlns:sodipodi="http://sodipodi.sourceforge.net/DTD/sodipodi-0.dtd"
   xmlns:inkscape="http://www.inkscape.org/namespaces/inkscape"
   height="128.00000pt"
   id="svg1"
   inkscape:version="0.46"
   sodipodi:docbase="/home/andy/Desktop/etiquette-icons-0.4/scalable/apps"
   sodipodi:docname="rhythmbox.svg"
   sodipodi:version="0.32"
   width="128.00000pt"
   inkscape:output_extension="org.inkscape.output.svg.inkscape"
   inkscape:export-filename="C:\Documents and Settings\All Users\Documents\Ubuntu Brig\Andy Fitzsimon\rhythmbox.png"
   inkscape:export-xdpi="90"
   inkscape:export-ydpi="90">
  <metadata
     id="metadata3">
    <rdf:RDF>
      <cc:Work
         rdf:about="">
        <dc:title>Etiquette Icons</dc:title>
        <dc:description />
        <dc:subject>
          <rdf:Bag>
            <rdf:li>hash</rdf:li>
            <rdf:li />
            <rdf:li>application</rdf:li>
            <rdf:li>computer</rdf:li>
            <rdf:li>icons</rdf:li>
          </rdf:Bag>
        </dc:subject>
        <dc:publisher>
          <cc:Agent
             rdf:about="http://www.openclipart.org">
            <dc:title>Andy Fitzsimon</dc:title>
          </cc:Agent>
        </dc:publisher>
        <dc:creator>
          <cc:Agent>
            <dc:title>Andy Fitzsimon</dc:title>
          </cc:Agent>
        </dc:creator>
        <dc:rights>
          <cc:Agent>
            <dc:title>Andy Fitzsimon</dc:title>
          </cc:Agent>
        </dc:rights>
        <dc:date />
        <dc:format>image/svg+xml</dc:format>
        <dc:type
           rdf:resource="http://purl.org/dc/dcmitype/StillImage" />
        <cc:license
           rdf:resource="http://web.resource.org/cc/PublicDomain" />
        <dc:language>en</dc:language>
      </cc:Work>
      <cc:License
         rdf:about="http://web.resource.org/cc/PublicDomain">
        <cc:permits
           rdf:resource="http://web.resource.org/cc/Reproduction" />
        <cc:permits
           rdf:resource="http://web.resource.org/cc/Distribution" />
        <cc:permits
           rdf:resource="http://web.resource.org/cc/DerivativeWorks" />
      </cc:License>
    </rdf:RDF>
  </metadata>
  <defs
     id="defs3">
    <inkscape:perspective
       sodipodi:type="inkscape:persp3d"
       inkscape:vp_x="0 : 80 : 1"
       inkscape:vp_y="0 : 1000 : 0"
       inkscape:vp_z="160 : 80 : 1"
       inkscape:persp3d-origin="80 : 53.333333 : 1"
       id="perspective78" />
    <linearGradient
       id="linearGradient924">
      <stop
         id="stop925"
         offset="0.00000000"
         style="stop-color:#ffffff;stop-opacity:0.00000000;" />
      <stop
         id="stop926"
         offset="1.00000000"
         style="stop-color:#ffffff;stop-opacity:1;" />
    </linearGradient>
    <linearGradient
       id="linearGradient1535">
      <stop
         id="stop1536"
         offset="0.00000000"
         style="stop-color:#9f9f9f;stop-opacity:1.0000000;" />
      <stop
         id="stop1537"
         offset="1.00000000"
         style="stop-color:#ffffff;stop-opacity:1;" />
    </linearGradient>
    <linearGradient
       id="linearGradient676">
      <stop
         id="stop677"
         offset="0.00000000"
         style="stop-color:#000000;stop-opacity:0.11458334;" />
      <stop
         id="stop678"
         offset="1.0000000"
         style="stop-color:#000000;stop-opacity:0.00000000;" />
    </linearGradient>
    <linearGradient
       id="linearGradient580">
      <stop
         id="stop581"
         offset="0.00000000"
         style="stop-color:#cccccc;stop-opacity:1;" />
      <stop
         id="stop582"
         offset="1.00000000"
         style="stop-color:#ffffff;stop-opacity:1;" />
    </linearGradient>
    <linearGradient
       id="linearGradient583"
       xlink:href="#linearGradient580" />
    <linearGradient
       id="linearGradient589"
       x1="0.94366199"
       x2="-0.26408452"
       xlink:href="#linearGradient580"
       y1="0.49253732"
       y2="0.47512439" />
    <radialGradient
       cx="0.50000000"
       cy="0.50000000"
       fx="0.50000000"
       fy="0.50000000"
       id="radialGradient675"
       r="0.50000000"
       xlink:href="#linearGradient676" />
    <linearGradient
       id="linearGradient682"
       x1="0.37323943"
       x2="0.69718307"
       xlink:href="#linearGradient1535"
       y1="0.63456792"
       y2="0.10864197" />
    <linearGradient
       id="linearGradient683"
       x1="0.73239434"
       x2="0.16901414"
       xlink:href="#linearGradient580"
       y1="0.12982455"
       y2="0.77543849" />
    <linearGradient
       id="linearGradient684"
       xlink:href="#linearGradient676" />
    <linearGradient
       id="linearGradient895"
       x1="0.33098593"
       x2="0.73591542"
       xlink:href="#linearGradient580"
       y1="0.78596491"
       y2="0.049122948" />
    <linearGradient
       id="linearGradient896"
       x1="0.72183096"
       x2="-0.010563380"
       xlink:href="#linearGradient1535"
       y1="-0.21078432"
       y2="1.0343137" />
    <linearGradient
       id="linearGradient911"
       x1="0.54225349"
       x2="0.35563380"
       xlink:href="#linearGradient1535"
       y1="-0.099099211"
       y2="1.1081080" />
    <linearGradient
       id="linearGradient912"
       x1="0.60915494"
       x2="0.64436620"
       xlink:href="#linearGradient924"
       y1="0.31543624"
       y2="-0.053691275" />
    <linearGradient
       id="linearGradient927"
       x1="0.48239437"
       x2="0.45070422"
       xlink:href="#linearGradient924"
       y1="0.57983196"
       y2="-0.16806723" />
    <linearGradient
       id="linearGradient937"
       x1="0.41549295"
       x2="0.45070422"
       xlink:href="#linearGradient580"
       y1="0.89820361"
       y2="0.19161677" />
    <linearGradient
       id="linearGradient955"
       x1="0.56690139"
       x2="0.81338030"
       xlink:href="#linearGradient924"
       y1="0.39950371"
       y2="-0.0099255582" />
    <linearGradient
       id="linearGradient957"
       x1="0.61971831"
       x2="0.92605633"
       xlink:href="#linearGradient924"
       y1="0.63275433"
       y2="0.99007446" />
    <linearGradient
       id="linearGradient1002"
       x1="0.97536951"
       x2="0.52284265"
       xlink:href="#linearGradient676"
       y1="1.0703126"
       y2="0.14843747" />
    <linearGradient
       id="linearGradient1003"
       x1="0.28873238"
       x2="0.48239437"
       xlink:href="#linearGradient676"
       y1="0.54929590"
       y2="-0.53521174" />
    <linearGradient
       gradientTransform="scale(0.965276,1.035973)"
       id="linearGradient1004"
       x1="0.48522854"
       x2="0.50427234"
       xlink:href="#linearGradient676"
       y1="0.91409898"
       y2="0.024485627" />
    <linearGradient
       gradientTransform="scale(0.979742,1.020676)"
       id="linearGradient1005"
       x1="0.47935593"
       x2="0.49809909"
       xlink:href="#linearGradient676"
       y1="0.90936226"
       y2="0.033794340" />
    <linearGradient
       id="linearGradient1011"
       xlink:href="#linearGradient924" />
  </defs>
  <sodipodi:namedview
     bordercolor="#666666"
     borderopacity="1.0"
     id="base"
     inkscape:cx="61.862111"
     inkscape:cy="87.879038"
     inkscape:pageopacity="0.0000000"
     inkscape:pageshadow="2"
     inkscape:window-height="667"
     inkscape:window-width="573"
     inkscape:window-x="274"
     inkscape:window-y="116"
     inkscape:zoom="1.6265923"
     pagecolor="#ffffff"
     showborder="true"
     showguides="true"
     snaptoguides="true"
     showgrid="false"
     inkscape:current-layer="svg1" />
  <g
     id="g977"
     transform="matrix(1.016489,0.000000,0.000000,1.016489,-2.702220,-2.593794)">
    <path
       d="M 33.660377,15.707810 C 33.678043,12.091063 37.715958,8.0354408 41.332744,8.0354408 L 114.93066,8.0354408 C 118.61443,8.0354408 122.74510,12.166124 122.74510,15.849891 L 122.74510,127.09924 C 122.74510,130.81651 118.57688,134.98473 114.85962,134.98473 L 41.048584,134.98473 C 36.745276,134.98473 33.106554,129.09367 33.127573,124.79043 L 33.660377,15.707810 z "
       id="path976"
       sodipodi:nodetypes="czzzzzzzz"
       style="fill:#ffffff;fill-rule:evenodd;stroke-width:0.43750000;" />
    <g
       id="g1334"
       style="fill:url(#linearGradient1002);"
       transform="matrix(1.076996,0.000000,0.000000,1.170227,33.19457,-71.13400)">
      <path
         d="M 84.073116,157.86080 C 83.286566,159.56832 83.038456,161.43967 83.799506,163.17393 C 86.450242,164.87440 89.292042,166.23490 92.045752,167.68557 C 94.461402,168.90174 93.565812,169.66178 91.552422,170.97817 C 89.539032,172.29456 87.774711,172.77444 84.722815,173.51901 C 81.670915,174.26359 77.997836,174.80982 73.075036,174.51586 C 68.152246,174.22191 58.572531,173.43054 54.978806,174.16041 C 51.385081,174.89029 53.182421,177.56758 54.504746,178.69747 C 55.827066,179.82736 56.971516,179.03561 60.607206,179.47965 C 64.242896,179.92368 71.368686,180.13399 76.567866,179.69719 C 81.767056,179.26039 88.025212,179.02765 91.892892,177.79358 C 95.760562,176.55951 98.216012,174.17084 99.480102,172.56736 C 100.74418,170.96387 99.743782,168.94445 101.50284,171.27030 C 103.26189,173.59616 106.25481,176.50978 106.50948,178.84317 C 106.76415,181.17656 105.19539,182.46185 103.14073,183.98157 C 101.08608,185.50128 99.017652,186.03544 95.291302,186.85790 C 91.564942,187.68036 85.371376,188.14750 80.698546,189.10922 C 79.178706,190.23342 79.054796,190.32998 79.714856,192.01248 C 85.394076,191.82783 92.177437,192.94634 96.585142,192.15536 C 100.99285,191.36438 108.89411,189.00648 110.96357,185.03131 C 112.81149,181.38844 113.10162,178.24428 111.79936,175.42115 C 110.49709,172.59802 107.21918,169.08118 104.33335,166.81999 C 101.44752,164.55880 98.568372,162.21119 94.913792,161.38481 C 91.329892,160.12221 87.751712,158.84326 84.164326,157.59064 L 84.073116,157.86080 z "
         id="path1560"
         sodipodi:nodetypes="ccczzzzzzzzzzzzzcczzzzccc"
         style="fill-opacity:0.074380167;fill-rule:evenodd;stroke-width:0.25000000;" />
      <path
         d="M 85.009309,159.03344 L 84.392797,159.95330 C 90.334870,160.64808 96.207355,163.30499 100.49102,166.32543 C 104.77469,169.34586 107.78130,173.97826 108.54013,177.31422 C 109.29897,189.26871 91.935602,189.85573 80.084253,189.38133 L 79.993048,191.54261 C 92.064938,192.02583 100.06583,190.54365 104.98315,187.85043 C 109.90047,185.15722 111.57627,180.98941 110.63784,176.86395 C 109.69942,172.73850 106.46871,168.66120 101.88219,165.42721 C 97.295666,162.19323 91.352143,159.77508 85.009309,159.03344 z M 83.889411,160.40936 L 84.188466,161.46488 C 88.862238,162.96368 92.181782,164.38216 94.220989,165.69737 C 96.260196,167.01258 96.893399,168.12191 96.957131,168.84923 C 97.020864,169.57654 96.623876,170.36438 95.315446,171.28066 C 94.007015,172.19694 91.966261,173.14457 89.478342,173.89220 C 84.502502,175.38747 77.774744,176.30192 71.328597,176.50374 C 64.882449,176.70556 58.685228,176.11850 54.911742,174.70268 L 54.090899,176.77390 C 58.399586,178.39053 64.711927,178.87218 71.328597,178.66502 C 77.945266,178.45786 84.868664,177.54051 90.116775,175.96342 C 92.740831,175.17488 94.964639,174.22157 96.592312,173.08172 C 98.219986,171.94188 99.299523,170.42063 99.146045,168.66912 C 97.506677,164.32192 89.243282,161.71728 83.889411,160.40936 z "
         id="path1545"
         sodipodi:nodetypes="cccccccccccccccccccccccc"
         style="fill-opacity:0.074380167;fill-rule:evenodd;stroke-width:0.25000000;" />
      <path
         d="M 84.398800,158.17957 C 83.655670,159.70480 82.943390,161.24674 84.277010,162.70094 C 85.939490,164.15423 88.433950,164.68773 90.409440,165.79265 C 92.042840,166.78377 94.614240,166.89611 94.899270,169.15045 C 94.127470,171.32051 93.238227,171.22130 89.211700,172.33459 C 84.963634,173.33711 80.882140,173.70206 76.247400,174.12545 C 71.612653,174.54885 64.972413,175.09275 61.531509,174.66578 C 58.090609,174.23881 57.165720,173.56803 55.395697,174.20902 C 53.625674,174.85002 51.671727,177.11606 55.030878,178.17136 C 58.390030,179.22666 65.203533,179.57125 70.698233,179.40069 C 76.192930,179.23013 83.757460,178.32045 87.700500,177.90921 C 91.643540,177.49798 96.858275,174.99508 98.672202,172.13780 C 100.59690,169.39129 98.937880,166.95708 100.88862,169.13003 C 103.18414,170.80859 104.84815,173.22407 105.97520,175.14464 C 107.10226,177.06521 107.46141,178.92379 106.66239,180.80746 C 105.86337,182.69113 104.23423,184.11006 102.17192,185.17680 C 99.998850,186.35430 99.145219,186.73971 95.671189,187.41080 C 92.197159,188.08188 80.583626,185.77971 81.221720,188.93134 C 79.179940,189.15984 79.080810,190.02687 79.799400,191.26402 C 83.535050,192.20769 87.667170,192.30632 91.229780,192.15255 C 94.792390,191.99879 98.453250,191.67644 101.04827,190.51792 C 103.64328,189.35940 109.14772,187.55906 110.52882,184.21126 C 111.79915,181.08499 112.76175,178.36283 111.41088,175.59361 C 110.06001,172.82439 107.29415,168.94579 103.99942,166.72885 C 102.10068,165.09332 100.43385,163.38586 97.964850,162.68564 C 93.684170,160.54249 89.031010,159.37374 84.490010,157.90941 L 84.398800,158.17957 z "
         id="path1557"
         sodipodi:nodetypes="cccczzzzzzzzczzzzcczzzzcccc"
         style="fill-opacity:0.074380167;fill-rule:evenodd;stroke-width:0.25000000;" />
      <path
         d="M 84.437998,158.72083 C 83.019841,160.06504 83.189173,161.27676 84.620408,162.50306 C 87.822482,163.90702 91.282913,165.06873 94.294722,166.77502 C 95.685286,167.62644 96.776306,169.41099 93.552239,171.58072 C 89.663553,174.08275 76.323812,176.00527 71.087505,175.96476 C 65.851198,175.92426 58.502063,174.57784 55.434888,174.39007 C 52.367713,174.20230 51.867482,176.48062 54.861185,177.51664 C 57.854888,178.55266 61.009162,178.95054 67.870656,178.95861 C 74.732151,179.07745 87.194853,177.37953 90.990912,176.31727 C 94.786971,175.25501 96.518186,173.85618 98.537126,171.88854 C 99.731156,170.72370 99.525006,169.00650 98.939556,167.72614 C 98.010476,166.68515 95.106086,163.91274 97.798576,166.04618 C 100.36387,168.00556 103.29120,169.46071 104.82722,172.37067 C 106.14541,173.88319 106.73033,175.66995 107.18801,177.56730 C 107.64569,179.46465 107.08647,180.32019 106.21395,182.32711 C 105.34143,184.33403 103.06189,185.49691 100.58124,186.63729 C 98.100593,187.77767 94.937083,188.22470 91.397484,188.35571 C 87.857884,188.48672 80.174767,187.14732 79.945153,187.45335 C 80.528647,190.29154 79.098850,191.96635 82.903265,191.90151 C 86.818451,191.83667 92.457213,191.92138 96.395536,191.14753 C 100.33386,190.37368 102.98992,189.74232 105.23269,188.34830 C 107.47546,186.95427 109.59344,185.06396 110.43136,183.03517 C 111.26928,181.00638 111.73108,179.18039 110.85040,176.29246 C 109.96972,173.40454 107.17571,169.27002 103.84097,167.12764 C 101.24140,165.20772 98.917486,162.85986 95.692356,162.02859 C 92.129924,160.36150 88.340073,159.37921 84.529203,158.45067 L 84.437998,158.72083 z "
         id="path1553"
         sodipodi:nodetypes="ccczzzzzzcccczzzzzzzzzzcccc"
         style="fill-opacity:0.074380167;fill-rule:evenodd;stroke-width:0.25000000;" />
    </g>
    <g
       id="g1323"
       style="fill-opacity:0.041322295;"
       transform="matrix(1.118038,0.000000,0.000000,1.118038,92.79767,-169.2983)">
      <rect
         height="116.97278"
         id="rect1318"
         rx="6.6461806"
         ry="6.6461806"
         style="fill-rule:evenodd;stroke-width:1.0000000pt;"
         width="82.855721"
         x="-55.827915"
         y="159.11385" />
      <rect
         height="120.98737"
         id="rect1320"
         rx="7.9114428"
         ry="7.9422932"
         style="fill-rule:evenodd;stroke-width:1.0000000pt;"
         width="87.581894"
         x="-58.034355"
         y="157.18489" />
      <rect
         height="119.21096"
         id="rect1321"
         rx="7.2292266"
         ry="7.2292266"
         style="fill-rule:evenodd;stroke-width:1.0000000pt;"
         width="85.232117"
         x="-56.949711"
         y="158.04243" />
      <rect
         height="123.37296"
         id="rect1322"
         rx="8.7303076"
         ry="8.7303076"
         style="fill-rule:evenodd;stroke-width:1.0000000pt;"
         width="90.001343"
         x="-59.219116"
         y="156.16342" />
    </g>
    <path
       d="M -29.021652 -29.754164 A 22.153934 22.153934 0 1 0 -73.329521,-29.754164 A 22.153934 22.153934 0 1 0 -29.021652 -29.754164 z"
       id="path674"
       sodipodi:cx="-51.175587"
       sodipodi:cy="-29.754164"
       sodipodi:rx="22.153934"
       sodipodi:ry="22.153934"
       sodipodi:type="arc"
       style="fill:url(#radialGradient675);fill-opacity:1;fill-rule:evenodd;stroke-width:1.0000000pt;"
       transform="matrix(3.605673,0.000000,0.000000,1.027862,268.5271,154.9177)" />
    <g
       id="g1006"
       style="fill:url(#linearGradient1003);"
       transform="matrix(3.263053,0.000000,0.000000,2.180953,28.14040,27.34652)">
      <path
         d="M 6.7812500,52.062500 C 6.1266082,52.566635 5.9145103,53.510766 6.2866995,54.255629 C 6.4653806,54.943963 6.7252499,55.582558 7.2999060,56.034514 C 8.0022353,56.702458 9.0672625,56.901999 10.010791,56.911409 C 11.166509,56.885730 12.230905,56.326054 13.003813,55.481435 C 13.627674,54.933999 14.166156,54.231411 15.057111,54.174354 C 16.189120,53.822205 17.452065,53.854453 18.546474,53.468330 C 19.024276,53.287633 19.542191,52.403321 19.056778,52.145987 C 16.784355,51.885091 14.509615,51.661331 12.219465,51.684513 C 10.794494,51.679796 9.3519565,51.569860 7.9376171,51.628862 C 7.5521616,51.773406 7.1667057,51.917954 6.7812500,52.062500 z M 18.812500,53.625000 C 17.530621,53.759430 16.672665,54.858287 16.106417,55.925961 C 15.687434,56.639173 16.129951,57.521882 16.468750,58.187500 C 16.967968,58.798883 17.634470,59.194427 18.411549,59.326257 C 19.065311,59.476796 19.711319,59.505281 20.329299,59.205207 C 21.789450,58.796332 23.223243,58.243203 24.699411,57.922161 C 25.599106,57.834607 26.518578,57.818459 27.406250,57.687500 C 28.030758,57.372659 28.173423,56.880963 27.750000,56.312500 C 26.350501,55.834390 24.793929,55.666915 23.388466,55.182700 C 22.150683,54.583628 21.015685,53.517024 19.576161,53.557618 C 19.321607,53.580078 19.067054,53.602539 18.812500,53.625000 z "
         id="path983"
         style="fill-opacity:0.12396694;fill-rule:evenodd;stroke-width:0.37500000;stroke-linecap:round;stroke-linejoin:round;" />
      <path
         d="M 19.396793,59.271278 C 17.089092,59.386265 15.815240,57.645025 15.962933,56.610138 C 16.110626,55.575250 17.513708,53.653315 19.618332,53.653315 C 21.722956,53.751876 22.221420,55.805225 25.932203,56.018773 C 29.642986,56.330883 27.593748,58.072121 25.821433,57.694306 C 23.938349,57.316490 21.593724,59.156291 19.396793,59.271278 z M 18.621405,52.174904 C 17.513708,52.174904 10.276756,51.435698 8.0982859,51.780661 C 5.9198159,52.125624 5.9752009,53.686169 6.3259719,54.540362 C 6.6767429,55.394555 7.5444379,56.741552 10.092140,56.807259 C 12.529073,56.872967 13.322923,54.014704 14.744467,53.948997 C 16.166011,53.784729 17.439862,53.669742 18.289096,53.456193 C 19.138330,53.242645 19.618333,52.174904 18.621405,52.174904 z "
         id="path971"
         style="fill-opacity:0.12396694;fill-rule:evenodd;stroke-width:0.37500000;stroke-linecap:round;stroke-linejoin:round;" />
      <path
         d="M 6.6875000,51.781250 C 6.2272976,52.255259 5.9432511,52.867797 5.9900714,53.546715 C 5.9889593,54.255707 6.5592462,54.861150 6.7830600,55.529154 C 6.9266381,56.234564 7.4879945,56.495840 8.1374258,56.624976 C 8.8553908,56.815799 9.5603483,57.290676 10.310722,56.953089 C 11.180976,56.729383 12.169508,56.772079 12.803119,56.039859 C 13.592784,55.479083 14.253299,54.666903 15.277447,54.586634 C 16.112048,54.370258 16.946649,54.153878 17.781250,53.937500 C 17.148224,54.552288 16.237427,54.961191 16.023095,55.889176 C 15.760241,56.608669 15.900242,57.461394 16.187500,58.156250 C 16.891501,58.875642 17.778818,59.470172 18.829393,59.464276 C 19.881221,59.467437 20.914839,59.048136 21.959501,58.887135 C 23.741367,58.440149 25.578852,58.255174 27.375000,57.906250 C 27.964213,57.556519 28.193874,57.039538 28.000000,56.375000 C 26.803726,55.557211 25.258422,55.453666 23.941153,54.857515 C 22.701728,54.431256 21.501793,53.832864 20.238562,53.510670 C 19.770693,53.492459 18.720356,53.426564 19.259460,52.759177 C 19.513347,52.144864 18.739029,51.690648 18.175765,51.842287 C 14.804970,51.706457 11.424866,51.482797 8.0598689,51.401659 C 7.6024125,51.528188 7.1449563,51.654720 6.6875000,51.781250 z "
         id="path990"
         style="fill-opacity:0.12396694;fill-rule:evenodd;stroke-width:0.37500000;stroke-linecap:round;stroke-linejoin:round;" />
      <path
         d="M 6.5312500,51.312500 C 6.1499622,52.067887 5.8246678,52.892229 5.5312500,53.687500 C 6.0702003,54.702735 6.5487590,55.761879 7.1250000,56.750000 C 8.1350306,56.903610 9.1508006,57.232700 10.157540,57.281396 C 12.103193,56.667727 14.043080,56.038924 15.882637,55.146808 C 16.624557,54.764429 15.494944,55.839119 15.783975,56.280436 C 15.717126,57.106258 15.893875,57.963281 16.093750,58.750000 C 16.863641,59.128761 17.588932,59.662287 18.491291,59.566485 C 19.985397,59.699326 21.456936,59.222603 22.940829,59.079582 C 24.544510,58.812809 26.214833,58.684081 27.750000,58.187500 C 27.923509,57.555284 28.320900,56.910040 28.361529,56.285557 C 25.501274,55.081262 22.523268,54.029263 19.656250,52.812500 C 19.198562,52.408685 18.877237,51.746171 18.337581,51.495980 C 14.704106,51.369537 11.062908,51.163938 7.4342357,51.086754 C 7.1332403,51.162003 6.8322452,51.237251 6.5312500,51.312500 z "
         id="path1001"
         style="fill-opacity:0.12396694;fill-rule:evenodd;stroke-width:0.37500000;stroke-linecap:round;stroke-linejoin:round;" />
    </g>
    <path
       d="M 31.826474,13.423114 C 31.844726,9.6864132 36.016564,5.4962812 39.753307,5.4962812 L 115.79218,5.4962812 C 119.59812,5.4962812 123.86580,9.7639635 123.86580,13.569907 L 123.86580,128.50898 C 123.86580,132.34951 119.55932,136.65600 115.71878,136.65600 L 39.459720,136.65600 C 35.013687,136.65600 31.254283,130.56956 31.276000,126.12359 L 31.826474,13.423114 z "
       id="path578"
       sodipodi:nodetypes="czzzzzzzz"
       style="fill:url(#linearGradient589);fill-opacity:1;fill-rule:evenodd;stroke-width:0.43750000;" />
    <path
       d="M 44.441431,22.096311 C 44.452888,19.966494 46.829672,17.578222 48.959523,17.578222 L 105.52601,17.578222 C 107.95404,17.578222 110.67664,20.300818 110.67664,22.728844 L 110.67664,59.686823 C 110.67664,61.923163 108.16898,64.430819 105.93264,64.430819 L 48.778798,64.430819 C 46.638302,64.430819 44.226603,62.030605 44.238118,59.890138 L 44.441431,22.096311 z "
       id="path579"
       sodipodi:nodetypes="czzzzzzzz"
       style="fill:url(#linearGradient583);fill-opacity:1;fill-rule:evenodd;stroke:url(#linearGradient896);stroke-width:1.4275854;" />
    <path
       d="M 46.711038,25.849638 L 46.711038,33.005929 L 108.56182,33.005929 L 108.56182,25.849638 L 46.711038,25.849638 z "
       id="path585"
       style="fill-opacity:1.0000000;fill-rule:evenodd;stroke-width:1.0000000pt;fill:#bab5ab;" />
    <path
       d="M 50.586037,28.963809 L 83.477734,28.963809 M 50.043867,56.795247 L 76.429511,56.795247 M 50.043867,49.927752 L 73.176486,49.927752 M 50.043867,43.060254 L 81.128326,43.060254 M 50.043867,36.192756 L 76.429511,36.192756"
       id="path609"
       sodipodi:nodetypes="cccccccccc"
       style="fill:none;fill-opacity:0.75000000;fill-rule:evenodd;stroke:#565248;stroke-width:2.0394077;stroke-linecap:round;stroke-linejoin:round;stroke-dashoffset:0.0000000;stroke-opacity:1.0000000;" />
    <path
       d="M 32.787822 29.839920 A 8.1969557 8.1969557 0 1 0 16.393910,29.839920 A 8.1969557 8.1969557 0 1 0 32.787822 29.839920 z"
       id="path680"
       sodipodi:cx="24.590866"
       sodipodi:cy="29.839920"
       sodipodi:rx="8.1969557"
       sodipodi:ry="8.1969557"
       sodipodi:type="arc"
       style="fill:url(#linearGradient683);fill-opacity:1;fill-rule:evenodd;stroke:#969496;stroke-width:0.37500000;stroke-opacity:0.35536996;"
       transform="matrix(3.263053,0.000000,0.000000,3.263053,-2.097557,0.207557)" />
    <path
       d="M 32.787822 29.839920 A 8.1969557 8.1969557 0 1 0 16.393910,29.839920 A 8.1969557 8.1969557 0 1 0 32.787822 29.839920 z"
       id="path681"
       sodipodi:cx="24.590866"
       sodipodi:cy="29.839920"
       sodipodi:rx="8.1969557"
       sodipodi:ry="8.1969557"
       sodipodi:type="arc"
       style="fill:url(#linearGradient895);fill-opacity:1;fill-rule:evenodd;stroke-width:1.1562500;stroke-opacity:0.48760000;"
       transform="matrix(1.058285,0.000000,0.000000,1.058285,52.48099,66.35897)" />
    <path
       d="M 39.767495,6.5917679 C 37.620180,6.5917679 35.739817,7.6604567 34.261094,9.1410273 C 32.782368,10.621597 31.618504,12.606814 31.609862,14.749398 L 31.201981,126.50894 C 31.192751,128.79776 32.129520,131.16355 33.547300,133.13701 C 34.965081,135.11048 36.989524,136.80795 39.563554,136.80795 L 114.71572,136.80795 C 116.90556,136.80795 118.80888,135.67194 120.32410,134.15672 C 121.83933,132.64149 122.97532,130.63621 122.97533,128.44637 L 122.97533,14.851369 C 122.97533,12.675711 121.92980,10.644763 120.42607,9.1410273 C 118.92233,7.6372918 116.89138,6.5917679 114.71572,6.5917679 L 39.767495,6.5917679 z M 39.767495,9.8548193 L 114.71572,9.8548193 C 115.65840,9.8548193 117.05657,10.462171 118.08075,11.486346 C 119.10493,12.510521 119.71227,13.908692 119.71227,14.851369 L 119.71227,128.44637 C 119.71227,129.40323 119.01444,130.77573 117.97878,131.81140 C 116.94311,132.84707 115.67258,133.54489 114.71572,133.54489 L 39.563554,133.54489 C 38.494797,133.54489 37.226324,132.73217 36.198530,131.30155 C 35.170738,129.87092 34.459572,127.86287 34.465035,126.50894 L 34.974887,14.749398 C 34.978593,13.830368 35.606277,12.487731 36.606413,11.486346 C 37.606548,10.484962 38.853174,9.8548193 39.767495,9.8548193 z "
       id="path1567"
       style="fill:url(#linearGradient682);fill-rule:evenodd;stroke-width:1.0109367;" />
    <path
       d="M 123.88400,113.50203 L 123.96873,114.32689 C 130.61221,115.11360 137.17786,118.12212 141.96717,121.54227 C 146.75647,124.96243 150.11798,130.20785 150.96638,133.98528 C 151.81478,147.52178 132.40188,148.18649 119.15162,147.64932 L 119.04966,150.09660 C 132.54649,150.64377 141.49179,148.96544 146.98954,145.91582 C 152.48729,142.86619 154.36089,138.14683 153.31170,133.47543 C 152.26251,128.80403 148.65045,124.18716 143.52255,120.52519 C 138.39463,116.86323 130.97553,114.34182 123.88400,113.50203 z M 123.56074,114.90522 L 123.74028,116.03850 C 128.96574,117.73565 132.67712,119.34185 134.95704,120.83111 C 137.23694,122.32036 137.94489,123.57651 138.01614,124.40006 C 138.08740,125.22363 137.64354,126.11572 136.18067,127.15327 C 134.71780,128.19080 132.43616,129.26384 129.65457,130.11041 C 124.09139,131.80355 116.56950,132.83902 109.36246,133.06755 C 102.15543,133.29609 95.226702,132.63133 91.007798,131.02814 L 90.090066,133.37346 C 94.907335,135.20402 101.96477,135.74941 109.36246,135.51483 C 116.76015,135.28026 124.50078,134.24152 130.36837,132.45573 C 133.30216,131.56283 135.78846,130.48337 137.60827,129.19268 C 139.42806,127.90199 140.63503,126.17942 140.46343,124.19612 C 138.63055,119.27364 129.54657,116.38623 123.56074,114.90522 z "
       id="path1544"
       sodipodi:nodetypes="cccccccccccccccccccccccc"
       style="fill:url(#linearGradient937);fill-rule:evenodd;stroke-width:0.25000000;" />
    <path
       d="M 123.85587,113.07542 L 124.03350,114.50250 C 130.67696,115.29978 137.79993,118.41133 142.58923,121.87730 C 147.37853,125.34329 150.74004,130.65899 151.58845,134.48702 C 152.43685,148.20488 133.02394,148.87848 119.77368,148.33411 L 119.42402,149.57574 C 132.92086,150.13025 142.11384,149.66788 147.61160,146.57739 C 153.10934,143.48691 154.98295,138.70433 153.93377,133.97033 C 152.88457,129.23635 149.27251,124.55761 144.14460,120.84660 C 139.01670,117.13559 130.94739,113.92646 123.85587,113.07542 z M 123.57860,114.56314 L 123.80506,116.67631 C 129.03051,118.39620 133.29918,119.64739 135.57910,121.15660 C 137.85900,122.66582 138.56695,123.93879 138.63820,124.77338 C 138.70946,125.60799 138.26561,126.51204 136.80274,127.56347 C 135.33986,128.61491 133.05822,129.70231 130.27663,130.56024 C 124.71345,132.27606 117.19157,133.32540 109.98453,133.55698 C 102.77748,133.78858 95.848754,133.11491 91.629848,131.49026 L 90.712118,133.86701 C 95.529397,135.72209 102.58684,136.27479 109.98453,136.03707 C 117.38221,135.79936 125.12284,134.74669 130.99042,132.93697 C 133.92422,132.03212 136.41052,130.93818 138.23031,129.63020 C 140.05013,128.32222 141.25708,126.57658 141.08549,124.56672 C 139.25262,119.57827 129.56443,116.06400 123.57860,114.56314 z "
       id="path938"
       sodipodi:nodetypes="cccccccccccccccccccccccc"
       style="fill-opacity:0.090909071;fill-rule:evenodd;stroke-width:0.25000000;" />
    <g
       id="g657"
       style="fill:url(#linearGradient911);"
       transform="matrix(3.263053,0.000000,0.000000,3.263053,4.196759,3.372879)">
      <path
         d="M 27.360109,47.009219 C 25.052408,47.138450 23.778556,45.181519 23.926249,44.018438 C 24.073942,42.855357 25.477024,40.695348 27.581648,40.695348 C 29.686272,40.806117 30.184736,43.113819 33.895519,43.353820 C 37.606302,43.704591 35.557064,45.661520 33.784749,45.236904 C 31.901665,44.812287 29.557040,46.879988 27.360109,47.009219 z "
         id="path612"
         sodipodi:nodetypes="czzzzz"
         style="fill-rule:evenodd;stroke-width:0.37500000;stroke-linecap:round;stroke-linejoin:round;" />
      <path
         d="M 26.584721,39.033803 C 25.477024,39.033803 18.240072,38.203030 16.061602,38.590724 C 13.883132,38.978418 13.938517,40.732271 14.289288,41.692275 C 14.640059,42.652279 15.507754,44.166131 18.055456,44.239977 C 20.492389,44.313824 21.286239,41.101503 22.707783,41.027656 C 24.129327,40.843040 25.403178,40.713809 26.252412,40.473808 C 27.101646,40.233807 27.581649,39.033803 26.584721,39.033803 z "
         id="path613"
         sodipodi:nodetypes="czzzzzz"
         style="fill-rule:evenodd;stroke-width:0.37500000;stroke-linecap:round;stroke-linejoin:round;" />
    </g>
    <path
       d="M 86.290589,142.49418 C 84.809946,144.27280 83.955888,146.28279 83.982407,148.61791 C 84.482473,150.55615 85.030901,152.57776 86.970727,153.55650 C 88.530916,155.34536 91.014069,155.41204 93.156592,155.98498 C 98.466422,154.43117 103.68729,152.47460 108.99646,150.99969 C 111.87616,150.48520 114.87655,150.34283 117.70740,149.80430 C 120.65882,149.19571 119.41924,146.99590 117.07982,146.68402 C 113.05511,145.50004 108.82839,144.67519 104.95200,143.18259 C 101.80451,140.82080 98.386029,137.78993 94.686149,137.63030 C 90.986271,137.72626 87.365539,139.80924 86.290589,142.49418 z "
       id="path922"
       sodipodi:nodetypes="cccccccczc"
       style="fill:url(#linearGradient912);fill-rule:evenodd;stroke-width:0.37500000;stroke-linecap:round;stroke-linejoin:round;" />
    <path
       d="M 55.902727,131.79478 C 54.281585,132.87420 53.385377,135.34721 54.513545,137.59301 C 55.236804,139.66113 55.548516,142.00300 57.630112,143.18461 C 59.154174,144.83189 61.395972,145.81422 63.499847,146.31401 C 66.005567,146.20514 68.065383,146.00307 70.595092,144.50723 C 73.124803,143.01140 71.513509,139.26655 74.341365,137.34954 C 77.169222,135.43253 84.804475,135.55326 87.555936,135.04697 C 90.570112,134.54069 92.135680,135.07459 92.796307,132.88079 C 93.410707,131.24128 89.751335,131.42134 88.506544,131.35045 C 79.211516,131.03302 71.099812,129.96000 65.764031,130.03413 C 60.428248,130.10828 57.523874,130.71536 55.902727,131.79478 z "
       id="path923"
       sodipodi:nodetypes="cccczzzcczz"
       style="fill:url(#linearGradient927);fill-rule:evenodd;stroke-width:0.37500000;stroke-linecap:round;stroke-linejoin:round;" />
    <path
       d="M 119.97584,15.194271 C 119.96273,12.509665 116.96551,9.4992928 114.28087,9.4992928 L 59.651285,9.4992928 C 56.916933,9.4992928 53.850851,12.565380 53.850851,15.299731 L 53.850851,97.876886 C 53.850851,100.63610 56.944805,103.73006 59.704020,103.73006 L 114.49180,103.73006 C 117.68601,103.73006 120.38693,99.357300 120.37133,96.163118 L 119.97584,15.194271 z "
       id="path954"
       sodipodi:nodetypes="czzzzzzzz"
       style="fill:url(#linearGradient955);fill-opacity:1;fill-rule:evenodd;stroke-width:0.43750000;" />
    <path
       d="M 118.42420,43.432301 C 118.41108,40.747696 115.41385,37.737325 112.72922,37.737325 L 58.099632,37.737325 C 55.365279,37.737325 52.299198,40.803409 52.299198,43.537763 L 52.299198,126.11492 C 52.299198,128.87413 55.393152,131.96809 58.152366,131.96809 L 112.94014,131.96809 C 116.13437,131.96809 118.83529,127.59533 118.81968,124.40114 L 118.42420,43.432301 z "
       id="path956"
       sodipodi:nodetypes="czzzzzzzz"
       style="fill:url(#linearGradient957);fill-opacity:1;fill-rule:evenodd;stroke-width:0.43750000;" />
  </g>
  <path
     style="font-size:1.87930405px;font-style:normal;font-variant:normal;font-weight:normal;font-stretch:normal;line-height:100%;writing-mode:lr-tb;text-anchor:start;fill:#000000;fill-opacity:1;stroke:none;stroke-width:1pt;stroke-linecap:butt;stroke-linejoin:miter;stroke-opacity:1;font-family:Bitstream Vera Sans"
     d="M 6.3429467,-17.962615 C 6.3429466,-18.185904 6.4028983,-18.360712 6.522802,-18.48704 C 6.6427051,-18.613366 6.7974783,-18.676529 6.9871222,-18.676531 C 7.1113071,-18.676529 7.2232577,-18.646859 7.3229744,-18.587521 C 7.4226889,-18.528179 7.4986991,-18.44544 7.5510052,-18.339302 C 7.6033087,-18.233162 7.6294611,-18.1128 7.6294624,-17.978215 C 7.6294611,-17.841794 7.6019322,-17.719749 7.5468758,-17.612081 C 7.4918169,-17.504413 7.4138185,-17.422897 7.3128805,-17.367533 C 7.2119403,-17.312169 7.1030485,-17.284488 6.9862046,-17.284488 C 6.8595712,-17.284488 6.746397,-17.315075 6.6466819,-17.376251 C 6.5469659,-17.437426 6.4714145,-17.52093 6.4200275,-17.626763 C 6.3686402,-17.732596 6.3429466,-17.844547 6.3429467,-17.962615 L 6.3429467,-17.962615 z M 6.5264725,-17.959863 C 6.5264722,-17.797748 6.5700595,-17.670044 6.6572346,-17.576752 C 6.7444089,-17.48346 6.8537595,-17.436814 6.9852869,-17.436814 C 7.1192599,-17.436814 7.2295282,-17.483919 7.3160922,-17.578129 C 7.402654,-17.672338 7.4459355,-17.806006 7.4459367,-17.979133 C 7.4459355,-18.088636 7.42743,-18.184222 7.3904201,-18.265892 C 7.353408,-18.34756 7.2992679,-18.410876 7.2279998,-18.455841 C 7.1567297,-18.500804 7.0767431,-18.523285 6.9880398,-18.523287 C 6.8620182,-18.523285 6.7535851,-18.480004 6.6627404,-18.393442 C 6.5718948,-18.306878 6.5264722,-18.162352 6.5264725,-17.959863 L 6.5264725,-17.959863 z M 7.8350113,-17.307428 L 7.8350113,-18.28195 L 7.9836672,-18.28195 L 7.9836672,-18.134212 C 8.0215956,-18.203339 8.0566184,-18.248915 8.0887357,-18.270939 C 8.1208523,-18.292961 8.156181,-18.303972 8.1947219,-18.303973 C 8.2503908,-18.303972 8.3069779,-18.286232 8.3644832,-18.250751 L 8.3075902,-18.097507 C 8.267214,-18.121364 8.2268384,-18.133294 8.1864632,-18.133294 C 8.1503694,-18.133294 8.1179465,-18.122435 8.0891945,-18.100719 C 8.0604418,-18.079001 8.0399481,-18.048872 8.0277134,-18.010332 C 8.0093605,-17.951603 8.0001842,-17.887369 8.0001845,-17.81763 L 8.0001845,-17.307428 L 7.8350113,-17.307428 z M 8.4654223,-18.462723 L 8.4654223,-18.652672 L 8.6305956,-18.652672 L 8.6305956,-18.462723 L 8.4654223,-18.462723 z M 8.4654223,-17.307428 L 8.4654223,-18.28195 L 8.6305956,-18.28195 L 8.6305956,-17.307428 L 8.4654223,-17.307428 z M 8.8526619,-17.226677 L 9.0132469,-17.202819 C 9.019976,-17.153267 9.0386344,-17.117173 9.0692223,-17.094538 C 9.1102094,-17.063951 9.1661847,-17.048657 9.2371484,-17.048657 C 9.3136169,-17.048657 9.372651,-17.063951 9.4142508,-17.094538 C 9.4558493,-17.125126 9.4839899,-17.167949 9.4986726,-17.223006 C 9.5072364,-17.256653 9.5112128,-17.32731 9.5106018,-17.434979 C 9.4384143,-17.349945 9.3484868,-17.307428 9.2408189,-17.307428 C 9.1068447,-17.307428 9.0031528,-17.355757 8.9297427,-17.452414 C 8.8563323,-17.54907 8.8196272,-17.664997 8.8196272,-17.800195 C 8.8196272,-17.893181 8.8364503,-17.978979 8.8700968,-18.05759 C 8.9037431,-18.136199 8.9525303,-18.196916 9.0164586,-18.239739 C 9.0803865,-18.282561 9.155479,-18.303972 9.2417365,-18.303973 C 9.3567454,-18.303972 9.451567,-18.257479 9.5262015,-18.164494 L 9.5262015,-18.28195 L 9.6785279,-18.28195 L 9.6785279,-17.439567 C 9.678527,-17.287852 9.6630803,-17.180337 9.6321876,-17.11702 C 9.6012933,-17.053704 9.5523531,-17.003693 9.485367,-16.966988 C 9.4183794,-16.930283 9.3359459,-16.911931 9.238066,-16.91193 C 9.1218327,-16.911931 9.0279287,-16.938083 8.9563539,-16.990388 C 8.8847788,-17.042693 8.8502148,-17.121456 8.8526619,-17.226677 L 8.8526619,-17.226677 z M 8.9893886,-17.812124 C 8.9893884,-17.684268 9.0147761,-17.590975 9.0655518,-17.532247 C 9.1163269,-17.473519 9.1799491,-17.444155 9.2564186,-17.444155 C 9.3322754,-17.444155 9.3958976,-17.473366 9.4472854,-17.531789 C 9.4986719,-17.590211 9.5243655,-17.681821 9.5243662,-17.806618 C 9.5243655,-17.92591 9.4979072,-18.015837 9.4449913,-18.076401 C 9.3920741,-18.136964 9.328299,-18.167246 9.2536657,-18.167247 C 9.180255,-18.167246 9.1178563,-18.137423 9.0664694,-18.077778 C 9.0150819,-18.018131 8.9893884,-17.92958 8.9893886,-17.812124 L 8.9893886,-17.812124 z M 9.9299583,-18.462723 L 9.9299583,-18.652672 L 10.095132,-18.652672 L 10.095132,-18.462723 L 9.9299583,-18.462723 z M 9.9299583,-17.307428 L 9.9299583,-18.28195 L 10.095132,-18.28195 L 10.095132,-17.307428 L 9.9299583,-17.307428 z M 10.347479,-17.307428 L 10.347479,-18.28195 L 10.496135,-18.28195 L 10.496135,-18.143388 C 10.56771,-18.250444 10.671096,-18.303972 10.806294,-18.303973 C 10.865021,-18.303972 10.919009,-18.29342 10.968255,-18.272315 C 11.017501,-18.251209 11.054359,-18.223527 11.07883,-18.18927 C 11.103299,-18.155011 11.120428,-18.114329 11.130217,-18.067225 C 11.136333,-18.036637 11.139392,-17.983108 11.139393,-17.90664 L 11.139393,-17.307428 L 10.97422,-17.307428 L 10.97422,-17.900217 C 10.974219,-17.967509 10.967796,-18.017825 10.95495,-18.051167 C 10.942102,-18.084506 10.919314,-18.111118 10.886586,-18.131 C 10.853857,-18.150881 10.81547,-18.160822 10.771424,-18.160823 C 10.701072,-18.160822 10.640355,-18.138493 10.589275,-18.093836 C 10.538193,-18.049178 10.512652,-17.96445 10.512653,-17.839653 L 10.512653,-17.307428 L 10.347479,-17.307428 z M 12.029493,-17.427638 C 11.968318,-17.375639 11.909436,-17.338934 11.85285,-17.317522 C 11.796262,-17.296111 11.735546,-17.285405 11.670701,-17.285405 C 11.563644,-17.285405 11.481363,-17.311558 11.423858,-17.363863 C 11.366354,-17.416167 11.337601,-17.483001 11.337601,-17.564364 C 11.337601,-17.612081 11.34846,-17.655668 11.370177,-17.695127 C 11.391894,-17.734584 11.420341,-17.766242 11.455517,-17.790101 C 11.490692,-17.813959 11.530303,-17.832006 11.57435,-17.844241 C 11.606772,-17.852805 11.655712,-17.861064 11.72117,-17.869017 C 11.854532,-17.884922 11.952718,-17.903887 12.015729,-17.92591 C 12.01634,-17.948544 12.016646,-17.962921 12.016647,-17.969039 C 12.016646,-18.036331 12.001046,-18.083742 11.969848,-18.111271 C 11.927636,-18.148587 11.864931,-18.167246 11.781734,-18.167247 C 11.704041,-18.167246 11.646689,-18.153634 11.609678,-18.126412 C 11.572667,-18.099188 11.545291,-18.051013 11.52755,-17.981886 L 11.366048,-18.003909 C 11.38073,-18.073036 11.404894,-18.128858 11.43854,-18.171376 C 11.472187,-18.213892 11.520821,-18.246621 11.584443,-18.269562 C 11.648065,-18.292502 11.721781,-18.303972 11.805592,-18.303973 C 11.88879,-18.303972 11.956388,-18.294184 12.008388,-18.274609 C 12.060386,-18.255032 12.098621,-18.230409 12.123092,-18.20074 C 12.147561,-18.171069 12.16469,-18.133599 12.174479,-18.088331 C 12.179984,-18.060189 12.182737,-18.009414 12.182737,-17.936004 L 12.182737,-17.715773 C 12.182737,-17.562223 12.186254,-17.465107 12.19329,-17.424426 C 12.200324,-17.383744 12.214242,-17.344745 12.235042,-17.307428 L 12.062528,-17.307428 C 12.045398,-17.341686 12.034387,-17.381756 12.029493,-17.427638 L 12.029493,-17.427638 z M 12.015729,-17.796525 C 11.955777,-17.772054 11.865849,-17.751254 11.745946,-17.734126 C 11.678041,-17.724337 11.630019,-17.713326 11.601878,-17.701091 C 11.573737,-17.688856 11.55202,-17.670962 11.536727,-17.64741 C 11.521433,-17.623857 11.513786,-17.597705 11.513786,-17.568953 C 11.513786,-17.524906 11.530456,-17.488201 11.563797,-17.458837 C 11.597137,-17.429473 11.645924,-17.414791 11.710159,-17.414791 C 11.77378,-17.414791 11.830367,-17.428708 11.87992,-17.456543 C 11.929471,-17.484378 11.96587,-17.522459 11.989118,-17.570788 C 12.006858,-17.608104 12.015728,-17.663162 12.015729,-17.735961 L 12.015729,-17.796525 z M 12.436003,-17.307428 L 12.436003,-18.652672 L 12.601176,-18.652672 L 12.601176,-17.307428 L 12.436003,-17.307428 z M 13.380243,-18.462723 L 13.380243,-18.652672 L 13.545416,-18.652672 L 13.545416,-18.462723 L 13.380243,-18.462723 z M 13.380243,-17.307428 L 13.380243,-18.28195 L 13.545416,-18.28195 L 13.545416,-17.307428 L 13.380243,-17.307428 z M 14.433681,-17.664386 L 14.596101,-17.643281 C 14.57836,-17.53133 14.532937,-17.443696 14.459834,-17.38038 C 14.386728,-17.317063 14.296954,-17.285405 14.190509,-17.285405 C 14.057147,-17.285405 13.949937,-17.328993 13.868881,-17.416167 C 13.787823,-17.503342 13.747295,-17.628292 13.747295,-17.791019 C 13.747295,-17.89624 13.76473,-17.988308 13.7996,-18.067225 C 13.834469,-18.14614 13.887539,-18.205327 13.958808,-18.244786 C 14.030077,-18.284243 14.107617,-18.303972 14.191427,-18.303973 C 14.29726,-18.303972 14.383823,-18.277208 14.451116,-18.223681 C 14.518408,-18.170152 14.561537,-18.094141 14.580502,-17.99565 L 14.419917,-17.970874 C 14.404622,-18.036331 14.377552,-18.085577 14.338707,-18.118612 C 14.29986,-18.151646 14.252908,-18.168163 14.197851,-18.168164 C 14.114652,-18.168163 14.047053,-18.138341 13.995055,-18.078695 C 13.943055,-18.019049 13.917056,-17.924686 13.917056,-17.795607 C 13.917056,-17.664692 13.942138,-17.569564 13.992302,-17.510224 C 14.042465,-17.450884 14.107922,-17.421214 14.188674,-17.421214 C 14.253519,-17.421214 14.307659,-17.441096 14.351095,-17.48086 C 14.394528,-17.520624 14.422057,-17.581799 14.433681,-17.664386 L 14.433681,-17.664386 z M 14.675935,-17.794689 C 14.675935,-17.975156 14.726099,-18.108823 14.826426,-18.195693 C 14.910236,-18.267879 15.012399,-18.303972 15.132914,-18.303973 C 15.266888,-18.303972 15.376391,-18.260079 15.461425,-18.172294 C 15.546458,-18.084506 15.588975,-17.963227 15.588976,-17.808454 C 15.588975,-17.683044 15.570164,-17.584399 15.532542,-17.512518 C 15.494918,-17.440637 15.440166,-17.384815 15.368286,-17.345051 C 15.296405,-17.305287 15.217947,-17.285405 15.132914,-17.285405 C 14.996493,-17.285405 14.886225,-17.329146 14.802109,-17.416626 C 14.717993,-17.504107 14.675935,-17.630128 14.675935,-17.794689 L 14.675935,-17.794689 z M 14.845696,-17.794689 C 14.845696,-17.669891 14.872919,-17.576446 14.927365,-17.514354 C 14.981811,-17.452261 15.050327,-17.421214 15.132914,-17.421214 C 15.214889,-17.421214 15.283099,-17.452414 15.337546,-17.514812 C 15.391991,-17.577211 15.419214,-17.672338 15.419215,-17.800195 C 15.419214,-17.92071 15.391838,-18.012014 15.337087,-18.074107 C 15.282334,-18.136199 15.214277,-18.167246 15.132914,-18.167247 C 15.050327,-18.167246 14.981811,-18.136352 14.927365,-18.074566 C 14.872919,-18.012778 14.845696,-17.919486 14.845696,-17.794689 L 14.845696,-17.794689 z M 15.783513,-17.307428 L 15.783513,-18.28195 L 15.932169,-18.28195 L 15.932169,-18.143388 C 16.003744,-18.250444 16.10713,-18.303972 16.242328,-18.303973 C 16.301055,-18.303972 16.355042,-18.29342 16.404289,-18.272315 C 16.453534,-18.251209 16.490392,-18.223527 16.514863,-18.18927 C 16.539333,-18.155011 16.556462,-18.114329 16.566251,-18.067225 C 16.572367,-18.036637 16.575426,-17.983108 16.575427,-17.90664 L 16.575427,-17.307428 L 16.410254,-17.307428 L 16.410254,-17.900217 C 16.410253,-17.967509 16.403829,-18.017825 16.390983,-18.051167 C 16.378136,-18.084506 16.355348,-18.111118 16.32262,-18.131 C 16.289891,-18.150881 16.251503,-18.160822 16.207458,-18.160823 C 16.137106,-18.160822 16.076389,-18.138493 16.025308,-18.093836 C 15.974227,-18.049178 15.948686,-17.96445 15.948686,-17.839653 L 15.948686,-17.307428 L 15.783513,-17.307428 z M 17.50315,-17.307428 L 17.349906,-17.307428 L 17.349906,-18.652672 L 17.515079,-18.652672 L 17.515079,-18.172752 C 17.584818,-18.260232 17.673828,-18.303972 17.782109,-18.303973 C 17.84206,-18.303972 17.8988,-18.29189 17.952329,-18.267727 C 18.005857,-18.243562 18.049903,-18.20961 18.084468,-18.16587 C 18.119031,-18.122129 18.146101,-18.069365 18.165678,-18.007579 C 18.185253,-17.945792 18.195041,-17.879722 18.195042,-17.809371 C 18.195041,-17.642363 18.153748,-17.513283 18.071162,-17.422132 C 17.988575,-17.330981 17.889471,-17.285405 17.77385,-17.285405 C 17.65884,-17.285405 17.568607,-17.333428 17.50315,-17.429473 L 17.50315,-17.307428 z M 17.501315,-17.80203 C 17.501314,-17.685185 17.51722,-17.600763 17.549031,-17.548765 C 17.60103,-17.463731 17.671381,-17.421214 17.760086,-17.421214 C 17.832272,-17.421214 17.894671,-17.452567 17.947282,-17.515271 C 17.999892,-17.577976 18.026197,-17.671421 18.026198,-17.795607 C 18.026197,-17.922851 18.000963,-18.016755 17.950494,-18.077319 C 17.900024,-18.137882 17.839001,-18.168163 17.767427,-18.168164 C 17.69524,-18.168163 17.632841,-18.136811 17.580231,-18.074107 C 17.52762,-18.011402 17.501314,-17.92071 17.501315,-17.80203 L 17.501315,-17.80203 z M 18.389579,-16.932118 L 18.371227,-17.087197 C 18.40732,-17.07741 18.438825,-17.072516 18.465742,-17.072515 C 18.502447,-17.072516 18.531811,-17.078633 18.553835,-17.090868 C 18.575858,-17.103103 18.593904,-17.120232 18.607975,-17.142255 C 18.618374,-17.158773 18.635197,-17.19976 18.658444,-17.265217 C 18.661503,-17.274394 18.666397,-17.287852 18.673127,-17.305593 L 18.303322,-18.28195 L 18.481342,-18.28195 L 18.684138,-17.717608 C 18.710443,-17.646033 18.733995,-17.570788 18.754795,-17.491872 C 18.773759,-17.567729 18.796394,-17.641751 18.8227,-17.713938 L 19.031002,-18.28195 L 19.196175,-18.28195 L 18.825453,-17.290911 C 18.785688,-17.183854 18.754795,-17.110138 18.732772,-17.069762 C 18.703408,-17.015317 18.669761,-16.9754 18.631833,-16.950012 C 18.593904,-16.924625 18.548635,-16.911931 18.496024,-16.91193 C 18.464213,-16.911931 18.428731,-16.91866 18.389579,-16.932118 L 18.389579,-16.932118 z M 19.788046,-17.689162 L 19.948631,-17.711185 C 19.952913,-17.60841 19.972184,-17.538059 20.006442,-17.50013 C 20.0407,-17.462202 20.088111,-17.443237 20.148675,-17.443237 C 20.193332,-17.443237 20.231872,-17.453484 20.264296,-17.473978 C 20.296718,-17.494472 20.319047,-17.522306 20.331283,-17.557482 C 20.343517,-17.592658 20.349635,-17.648786 20.349635,-17.725867 L 20.349635,-18.652672 L 20.527655,-18.652672 L 20.527655,-17.735961 C 20.527655,-17.623398 20.514043,-17.536224 20.486821,-17.474437 C 20.459597,-17.41265 20.416469,-17.365545 20.357435,-17.333122 C 20.2984,-17.300699 20.22912,-17.284488 20.149592,-17.284488 C 20.031524,-17.284488 19.941137,-17.31844 19.878433,-17.386344 C 19.815728,-17.454249 19.785599,-17.555188 19.788046,-17.689162 L 19.788046,-17.689162 z M 20.798355,-18.462723 L 20.798355,-18.652672 L 20.963529,-18.652672 L 20.963529,-18.462723 L 20.798355,-18.462723 z M 20.798355,-17.307428 L 20.798355,-18.28195 L 20.963529,-18.28195 L 20.963529,-17.307428 L 20.798355,-17.307428 z M 21.215877,-17.307428 L 21.215877,-18.28195 L 21.363615,-18.28195 L 21.363615,-18.145224 C 21.394202,-18.192939 21.434884,-18.231327 21.485659,-18.260386 C 21.536435,-18.289443 21.594245,-18.303972 21.659091,-18.303973 C 21.731278,-18.303972 21.790465,-18.288984 21.836653,-18.25901 C 21.882839,-18.229033 21.915415,-18.187128 21.93438,-18.133294 C 22.01146,-18.247079 22.111787,-18.303972 22.235362,-18.303973 C 22.332018,-18.303972 22.406346,-18.277208 22.458346,-18.223681 C 22.510344,-18.170152 22.536343,-18.087718 22.536345,-17.97638 L 22.536345,-17.307428 L 22.372089,-17.307428 L 22.372089,-17.921322 C 22.372088,-17.987391 22.366735,-18.034954 22.356031,-18.064013 C 22.345324,-18.093071 22.3259,-18.11647 22.297761,-18.134212 C 22.269619,-18.151952 22.236585,-18.160822 22.198657,-18.160823 C 22.13014,-18.160822 22.073247,-18.138035 22.027978,-18.09246 C 21.982708,-18.046884 21.960073,-17.973932 21.960074,-17.873605 L 21.960074,-17.307428 L 21.7949,-17.307428 L 21.7949,-17.940592 C 21.7949,-18.014002 21.781441,-18.06906 21.754525,-18.105766 C 21.727607,-18.14247 21.683561,-18.160822 21.622386,-18.160823 C 21.575893,-18.160822 21.532917,-18.148587 21.493459,-18.124118 C 21.454001,-18.099647 21.425402,-18.06386 21.407661,-18.016756 C 21.38992,-17.96965 21.381049,-17.901745 21.38105,-17.813042 L 21.38105,-17.307428 L 21.215877,-17.307428 z M 22.783187,-17.307428 L 22.783187,-18.28195 L 22.930925,-18.28195 L 22.930925,-18.145224 C 22.961512,-18.192939 23.002194,-18.231327 23.05297,-18.260386 C 23.103745,-18.289443 23.161555,-18.303972 23.226402,-18.303973 C 23.298588,-18.303972 23.357775,-18.288984 23.403963,-18.25901 C 23.450149,-18.229033 23.482725,-18.187128 23.50169,-18.133294 C 23.57877,-18.247079 23.679098,-18.303972 23.802673,-18.303973 C 23.899328,-18.303972 23.973656,-18.277208 24.025656,-18.223681 C 24.077654,-18.170152 24.103653,-18.087718 24.103655,-17.97638 L 24.103655,-17.307428 L 23.939399,-17.307428 L 23.939399,-17.921322 C 23.939398,-17.987391 23.934045,-18.034954 23.923341,-18.064013 C 23.912634,-18.093071 23.893211,-18.11647 23.865071,-18.134212 C 23.83693,-18.151952 23.803895,-18.160822 23.765967,-18.160823 C 23.69745,-18.160822 23.640557,-18.138035 23.595289,-18.09246 C 23.550018,-18.046884 23.527383,-17.973932 23.527384,-17.873605 L 23.527384,-17.307428 L 23.362211,-17.307428 L 23.362211,-17.940592 C 23.36221,-18.014002 23.348752,-18.06906 23.321835,-18.105766 C 23.294917,-18.14247 23.250871,-18.160822 23.189697,-18.160823 C 23.143203,-18.160822 23.100227,-18.148587 23.06077,-18.124118 C 23.021311,-18.099647 22.992712,-18.06386 22.974971,-18.016756 C 22.95723,-17.96965 22.94836,-17.901745 22.94836,-17.813042 L 22.94836,-17.307428 L 22.783187,-17.307428 z M 24.986414,-17.427638 C 24.925238,-17.375639 24.866357,-17.338934 24.809771,-17.317522 C 24.753183,-17.296111 24.692466,-17.285405 24.627621,-17.285405 C 24.520564,-17.285405 24.438284,-17.311558 24.380779,-17.363863 C 24.323274,-17.416167 24.294522,-17.483001 24.294522,-17.564364 C 24.294522,-17.612081 24.30538,-17.655668 24.327098,-17.695127 C 24.348815,-17.734584 24.377261,-17.766242 24.412437,-17.790101 C 24.447613,-17.813959 24.487224,-17.832006 24.53127,-17.844241 C 24.563693,-17.852805 24.612633,-17.861064 24.678091,-17.869017 C 24.811452,-17.884922 24.909638,-17.903887 24.97265,-17.92591 C 24.973261,-17.948544 24.973567,-17.962921 24.973567,-17.969039 C 24.973567,-18.036331 24.957967,-18.083742 24.926768,-18.111271 C 24.884557,-18.148587 24.821852,-18.167246 24.738654,-18.167247 C 24.660961,-18.167246 24.60361,-18.153634 24.566599,-18.126412 C 24.529588,-18.099188 24.502212,-18.051013 24.484471,-17.981886 L 24.322968,-18.003909 C 24.33765,-18.073036 24.361815,-18.128858 24.395461,-18.171376 C 24.429107,-18.213892 24.477742,-18.246621 24.541364,-18.269562 C 24.604986,-18.292502 24.678702,-18.303972 24.762513,-18.303973 C 24.84571,-18.303972 24.913309,-18.294184 24.965309,-18.274609 C 25.017307,-18.255032 25.055541,-18.230409 25.080012,-18.20074 C 25.104481,-18.171069 25.121611,-18.133599 25.131399,-18.088331 C 25.136904,-18.060189 25.139657,-18.009414 25.139658,-17.936004 L 25.139658,-17.715773 C 25.139657,-17.562223 25.143175,-17.465107 25.150211,-17.424426 C 25.157245,-17.383744 25.171162,-17.344745 25.191963,-17.307428 L 25.019449,-17.307428 C 25.002319,-17.341686 24.991307,-17.381756 24.986414,-17.427638 L 24.986414,-17.427638 z M 24.97265,-17.796525 C 24.912697,-17.772054 24.82277,-17.751254 24.702867,-17.734126 C 24.634962,-17.724337 24.586939,-17.713326 24.558799,-17.701091 C 24.530658,-17.688856 24.508941,-17.670962 24.493647,-17.64741 C 24.478353,-17.623857 24.470706,-17.597705 24.470707,-17.568953 C 24.470706,-17.524906 24.487377,-17.488201 24.520717,-17.458837 C 24.554058,-17.429473 24.602845,-17.414791 24.667079,-17.414791 C 24.730701,-17.414791 24.787288,-17.428708 24.836841,-17.456543 C 24.886392,-17.484378 24.922791,-17.522459 24.946038,-17.570788 C 24.963779,-17.608104 24.972649,-17.663162 24.97265,-17.735961 L 24.97265,-17.796525 z M 26.032511,-17.664386 L 26.194931,-17.643281 C 26.177189,-17.53133 26.131767,-17.443696 26.058663,-17.38038 C 25.985558,-17.317063 25.895784,-17.285405 25.789339,-17.285405 C 25.655977,-17.285405 25.548767,-17.328993 25.46771,-17.416167 C 25.386653,-17.503342 25.346124,-17.628292 25.346124,-17.791019 C 25.346124,-17.89624 25.363559,-17.988308 25.398429,-18.067225 C 25.433299,-18.14614 25.486369,-18.205327 25.557638,-18.244786 C 25.628907,-18.284243 25.706446,-18.303972 25.790257,-18.303973 C 25.896089,-18.303972 25.982652,-18.277208 26.049946,-18.223681 C 26.117238,-18.170152 26.160366,-18.094141 26.179332,-17.99565 L 26.018746,-17.970874 C 26.003452,-18.036331 25.976382,-18.085577 25.937536,-18.118612 C 25.898689,-18.151646 25.851737,-18.168163 25.79668,-18.168164 C 25.713481,-18.168163 25.645883,-18.138341 25.593884,-18.078695 C 25.541885,-18.019049 25.515886,-17.924686 25.515886,-17.795607 C 25.515886,-17.664692 25.540967,-17.569564 25.591131,-17.510224 C 25.641295,-17.450884 25.706752,-17.421214 25.787504,-17.421214 C 25.852349,-17.421214 25.906489,-17.441096 25.949924,-17.48086 C 25.993358,-17.520624 26.020887,-17.581799 26.032511,-17.664386 L 26.032511,-17.664386 z M 6.309912,-15.719013 L 6.47325,-15.744706 C 6.4824261,-15.679249 6.5079667,-15.629085 6.549872,-15.594215 C 6.5917767,-15.559345 6.650352,-15.54191 6.7255979,-15.54191 C 6.8014547,-15.54191 6.8577359,-15.557357 6.8944417,-15.588251 C 6.9311462,-15.619144 6.9494987,-15.65539 6.9494994,-15.69699 C 6.9494987,-15.734306 6.9332873,-15.76367 6.9008651,-15.785082 C 6.8782296,-15.799764 6.8219484,-15.818422 6.7320214,-15.841057 C 6.610894,-15.871645 6.526931,-15.898103 6.4801322,-15.920432 C 6.433333,-15.942761 6.3978513,-15.973654 6.3736873,-16.013113 C 6.3495229,-16.05257 6.3374408,-16.096158 6.3374409,-16.143875 C 6.3374408,-16.187309 6.3473818,-16.227531 6.3672639,-16.264543 C 6.3871457,-16.301553 6.4142157,-16.332294 6.448474,-16.356765 C 6.4741674,-16.375728 6.5091902,-16.391787 6.5535425,-16.40494 C 6.5978942,-16.418092 6.645458,-16.424668 6.6962338,-16.424669 C 6.7727024,-16.424668 6.8398422,-16.413657 6.8976534,-16.391635 C 6.9554633,-16.369611 6.998133,-16.339788 7.0256626,-16.302166 C 7.0531907,-16.264542 7.072155,-16.214226 7.0825556,-16.151216 L 6.9210529,-16.129193 C 6.9137112,-16.179356 6.8924528,-16.218508 6.8572777,-16.246649 C 6.8221014,-16.274789 6.7723965,-16.288859 6.708163,-16.28886 C 6.6323053,-16.288859 6.5781652,-16.276318 6.5457427,-16.251237 C 6.5133195,-16.226155 6.4971081,-16.196791 6.4971083,-16.163145 C 6.4971081,-16.141733 6.5038374,-16.122463 6.5172962,-16.105334 C 6.5307545,-16.087593 6.5518599,-16.072911 6.5806126,-16.061288 C 6.5971296,-16.05517 6.6457638,-16.0411 6.7265156,-16.019077 C 6.8433597,-15.987877 6.9248757,-15.962337 6.9710637,-15.942455 C 7.0172502,-15.922573 7.0534966,-15.893668 7.0798027,-15.855739 C 7.1061072,-15.81781 7.1192599,-15.770705 7.1192608,-15.714425 C 7.1192599,-15.659367 7.1032014,-15.607521 7.0710852,-15.558886 C 7.0389674,-15.510252 6.9926272,-15.472629 6.9320645,-15.446018 C 6.8715003,-15.419407 6.8029841,-15.406101 6.7265156,-15.406101 C 6.5998824,-15.406101 6.5033786,-15.432407 6.4370037,-15.485017 C 6.3706284,-15.537628 6.3282645,-15.615626 6.309912,-15.719013 L 6.309912,-15.719013 z M 7.5863339,-15.428124 L 7.2156118,-16.402646 L 7.3899613,-16.402646 L 7.5991807,-15.819034 C 7.6218151,-15.756023 7.6426147,-15.690566 7.6615795,-15.622662 C 7.676261,-15.674049 7.6967547,-15.735836 7.7230606,-15.808023 L 7.939621,-16.402646 L 8.1093824,-16.402646 L 7.7404955,-15.428124 L 7.5863339,-15.428124 z M 8.2250036,-15.347373 L 8.3855887,-15.323515 C 8.3923177,-15.273963 8.4109761,-15.237869 8.4415641,-15.215234 C 8.4825511,-15.184647 8.5385264,-15.169353 8.6094901,-15.169353 C 8.6859587,-15.169353 8.7449927,-15.184647 8.7865925,-15.215234 C 8.828191,-15.245822 8.8563316,-15.288645 8.8710144,-15.343702 C 8.8795782,-15.377349 8.8835546,-15.448006 8.8829436,-15.555675 C 8.8107561,-15.470641 8.7208285,-15.428124 8.6131607,-15.428124 C 8.4791865,-15.428124 8.3754945,-15.476453 8.3020845,-15.57311 C 8.228674,-15.669766 8.1919689,-15.785693 8.191969,-15.920891 C 8.1919689,-16.013877 8.2087921,-16.099675 8.2424386,-16.178286 C 8.2760848,-16.256895 8.324872,-16.317612 8.3888004,-16.360435 C 8.4527282,-16.403257 8.5278208,-16.424668 8.6140783,-16.424669 C 8.7290872,-16.424668 8.8239087,-16.378175 8.8985433,-16.28519 L 8.8985433,-16.402646 L 9.0508697,-16.402646 L 9.0508697,-15.560263 C 9.0508687,-15.408548 9.035422,-15.301033 9.0045294,-15.237716 C 8.9736351,-15.1744 8.9246949,-15.124389 8.8577088,-15.087684 C 8.7907212,-15.050979 8.7082876,-15.032627 8.6104078,-15.032626 C 8.4941744,-15.032627 8.4002705,-15.058779 8.3286957,-15.111084 C 8.2571205,-15.163389 8.2225565,-15.242152 8.2250036,-15.347373 L 8.2250036,-15.347373 z M 8.3617303,-15.93282 C 8.3617301,-15.804964 8.3871178,-15.711671 8.4378935,-15.652943 C 8.4886686,-15.594215 8.5522909,-15.564851 8.6287604,-15.564851 C 8.7046171,-15.564851 8.7682393,-15.594062 8.8196272,-15.652485 C 8.8710137,-15.710907 8.8967072,-15.802517 8.896708,-15.927314 C 8.8967072,-16.046606 8.870249,-16.136533 8.8173331,-16.197097 C 8.7644159,-16.25766 8.7006407,-16.287942 8.6260075,-16.287943 C 8.5525967,-16.287942 8.490198,-16.258119 8.4388112,-16.198474 C 8.3874237,-16.138827 8.3617301,-16.050276 8.3617303,-15.93282 L 8.3617303,-15.93282 z M 9.2371485,-15.831881 L 9.2371485,-15.997972 L 9.7445973,-15.997972 L 9.7445973,-15.831881 L 9.2371485,-15.831881 z M 9.9299583,-16.583419 L 9.9299583,-16.773368 L 10.095132,-16.773368 L 10.095132,-16.583419 L 9.9299583,-16.583419 z M 9.9299583,-15.428124 L 9.9299583,-16.402646 L 10.095132,-16.402646 L 10.095132,-15.428124 L 9.9299583,-15.428124 z M 10.386937,-15.428124 L 10.386937,-16.274178 L 10.241034,-16.274178 L 10.241034,-16.402646 L 10.386937,-16.402646 L 10.386937,-16.506338 C 10.386937,-16.571795 10.392749,-16.620429 10.404372,-16.652241 C 10.420278,-16.695063 10.448265,-16.72978 10.488335,-16.756392 C 10.528405,-16.783002 10.584533,-16.796308 10.65672,-16.796309 C 10.703213,-16.796308 10.7546,-16.790802 10.810882,-16.779792 L 10.786106,-16.635724 C 10.751847,-16.64184 10.719424,-16.644899 10.688837,-16.6449 C 10.638673,-16.644899 10.603192,-16.634193 10.582392,-16.612783 C 10.561592,-16.591371 10.551193,-16.551301 10.551193,-16.492574 L 10.551193,-16.402646 L 10.741142,-16.402646 L 10.741142,-16.274178 L 10.551193,-16.274178 L 10.551193,-15.428124 L 10.386937,-15.428124 z M 10.86961,-16.583419 L 10.86961,-16.773368 L 11.034783,-16.773368 L 11.034783,-16.583419 L 10.86961,-16.583419 z M 10.86961,-15.428124 L 10.86961,-16.402646 L 11.034783,-16.402646 L 11.034783,-15.428124 L 10.86961,-15.428124 z M 11.954248,-15.741953 L 12.124927,-15.720848 C 12.098008,-15.621132 12.048151,-15.543745 11.975353,-15.488688 C 11.902554,-15.43363 11.809567,-15.406101 11.696394,-15.406101 C 11.553855,-15.406101 11.440834,-15.449994 11.35733,-15.537781 C 11.273826,-15.625567 11.232074,-15.748682 11.232074,-15.907127 C 11.232074,-16.071076 11.274284,-16.19832 11.358706,-16.28886 C 11.443128,-16.379399 11.552632,-16.424668 11.687218,-16.424669 C 11.81752,-16.424668 11.923965,-16.380316 12.006552,-16.291613 C 12.089138,-16.202908 12.130431,-16.078111 12.130432,-15.917221 C 12.130431,-15.907432 12.130125,-15.89275 12.129515,-15.873174 L 11.402753,-15.873174 C 11.40887,-15.766117 11.439152,-15.684143 11.493598,-15.62725 C 11.548043,-15.570357 11.615948,-15.54191 11.697311,-15.54191 C 11.757874,-15.54191 11.809567,-15.557816 11.852391,-15.589627 C 11.895213,-15.621438 11.929165,-15.672213 11.954248,-15.741953 L 11.954248,-15.741953 z M 11.411929,-16.008983 L 11.956083,-16.008983 C 11.948741,-16.090958 11.927941,-16.152439 11.893684,-16.193427 C 11.841073,-16.257048 11.772862,-16.288859 11.689053,-16.28886 C 11.613195,-16.288859 11.54942,-16.263472 11.497727,-16.212697 C 11.446034,-16.161921 11.417434,-16.094016 11.411929,-16.008983 L 11.411929,-16.008983 z M 12.965475,-15.428124 L 12.965475,-15.551087 C 12.903687,-15.45443 12.812842,-15.406101 12.692939,-15.406101 C 12.615246,-15.406101 12.543824,-15.427513 12.478673,-15.470335 C 12.413521,-15.513158 12.363051,-15.572957 12.327264,-15.649732 C 12.291476,-15.726506 12.273583,-15.814752 12.273583,-15.914468 C 12.273583,-16.011736 12.289794,-16.099981 12.322217,-16.179204 C 12.35464,-16.258425 12.403274,-16.319141 12.46812,-16.361353 C 12.532965,-16.403563 12.605458,-16.424668 12.685598,-16.424669 C 12.744326,-16.424668 12.796631,-16.41228 12.842513,-16.387505 C 12.888393,-16.362728 12.92571,-16.330459 12.954463,-16.290696 L 12.954463,-16.773368 L 13.118719,-16.773368 L 13.118719,-15.428124 L 12.965475,-15.428124 z M 12.443344,-15.914468 C 12.443344,-15.78967 12.469649,-15.696378 12.52226,-15.634591 C 12.574871,-15.572804 12.636963,-15.54191 12.708539,-15.54191 C 12.780725,-15.54191 12.842053,-15.571427 12.892523,-15.630461 C 12.942992,-15.689495 12.968227,-15.779576 12.968228,-15.900703 C 12.968227,-16.034065 12.942533,-16.131945 12.891147,-16.194344 C 12.839759,-16.256742 12.776443,-16.287942 12.701198,-16.287943 C 12.627787,-16.287942 12.566459,-16.257966 12.517213,-16.198015 C 12.467967,-16.138063 12.443344,-16.043547 12.443344,-15.914468 L 12.443344,-15.914468 z M 13.776659,-15.405184 L 14.166651,-16.796309 L 14.29879,-16.796309 L 13.909715,-15.405184 L 13.776659,-15.405184 z M 14.876896,-15.719013 L 15.040234,-15.744706 C 15.04941,-15.679249 15.074951,-15.629085 15.116856,-15.594215 C 15.158761,-15.559345 15.217336,-15.54191 15.292582,-15.54191 C 15.368439,-15.54191 15.42472,-15.557357 15.461426,-15.588251 C 15.49813,-15.619144 15.516483,-15.65539 15.516484,-15.69699 C 15.516483,-15.734306 15.500271,-15.76367 15.467849,-15.785082 C 15.445214,-15.799764 15.388933,-15.818422 15.299006,-15.841057 C 15.177878,-15.871645 15.093915,-15.898103 15.047116,-15.920432 C 15.000317,-15.942761 14.964836,-15.973654 14.940671,-16.013113 C 14.916507,-16.05257 14.904425,-16.096158 14.904425,-16.143875 C 14.904425,-16.187309 14.914366,-16.227531 14.934248,-16.264543 C 14.95413,-16.301553 14.9812,-16.332294 15.015458,-16.356765 C 15.041152,-16.375728 15.076174,-16.391787 15.120527,-16.40494 C 15.164878,-16.418092 15.212442,-16.424668 15.263218,-16.424669 C 15.339687,-16.424668 15.406826,-16.413657 15.464638,-16.391635 C 15.522447,-16.369611 15.565117,-16.339788 15.592647,-16.302166 C 15.620175,-16.264542 15.639139,-16.214226 15.64954,-16.151216 L 15.488037,-16.129193 C 15.480695,-16.179356 15.459437,-16.218508 15.424262,-16.246649 C 15.389086,-16.274789 15.339381,-16.288859 15.275147,-16.28886 C 15.199289,-16.288859 15.145149,-16.276318 15.112727,-16.251237 C 15.080304,-16.226155 15.064092,-16.196791 15.064093,-16.163145 C 15.064092,-16.141733 15.070822,-16.122463 15.08428,-16.105334 C 15.097739,-16.087593 15.118844,-16.072911 15.147597,-16.061288 C 15.164114,-16.05517 15.212748,-16.0411 15.2935,-16.019077 C 15.410344,-15.987877 15.49186,-15.962337 15.538048,-15.942455 C 15.584234,-15.922573 15.620481,-15.893668 15.646787,-15.855739 C 15.673091,-15.81781 15.686244,-15.770705 15.686245,-15.714425 C 15.686244,-15.659367 15.670186,-15.607521 15.638069,-15.558886 C 15.605952,-15.510252 15.559611,-15.472629 15.499049,-15.446018 C 15.438485,-15.419407 15.369968,-15.406101 15.2935,-15.406101 C 15.166867,-15.406101 15.070363,-15.432407 15.003988,-15.485017 C 14.937613,-15.537628 14.895249,-15.615626 14.876896,-15.719013 L 14.876896,-15.719013 z M 16.243245,-15.575863 L 16.267104,-15.42996 C 16.22061,-15.420172 16.179011,-15.415278 16.142306,-15.415278 C 16.082354,-15.415278 16.035861,-15.42476 16.002826,-15.443724 C 15.969792,-15.462688 15.946545,-15.487617 15.933087,-15.518511 C 15.919628,-15.549404 15.912899,-15.614403 15.912899,-15.713507 L 15.912899,-16.274178 L 15.791772,-16.274178 L 15.791772,-16.402646 L 15.912899,-16.402646 L 15.912899,-16.643983 L 16.077154,-16.743087 L 16.077154,-16.402646 L 16.243245,-16.402646 L 16.243245,-16.274178 L 16.077154,-16.274178 L 16.077154,-15.704331 C 16.077154,-15.657225 16.08006,-15.626944 16.085872,-15.613485 C 16.091683,-15.600027 16.101165,-15.589321 16.114318,-15.581368 C 16.127471,-15.573415 16.146282,-15.569439 16.170752,-15.569439 C 16.189105,-15.569439 16.213269,-15.57158 16.243245,-15.575863 L 16.243245,-15.575863 z M 16.396489,-15.052814 L 16.378137,-15.207893 C 16.41423,-15.198106 16.445735,-15.193212 16.472653,-15.193211 C 16.509358,-15.193212 16.538722,-15.199329 16.560745,-15.211564 C 16.582768,-15.223799 16.600815,-15.240928 16.614885,-15.262951 C 16.625285,-15.279469 16.642108,-15.320456 16.665355,-15.385913 C 16.668413,-15.39509 16.673307,-15.408548 16.680037,-15.426289 L 16.310232,-16.402646 L 16.488252,-16.402646 L 16.691048,-15.838304 C 16.717353,-15.766729 16.740906,-15.691484 16.761706,-15.612568 C 16.78067,-15.688425 16.803304,-15.762447 16.82961,-15.834634 L 17.037912,-16.402646 L 17.203085,-16.402646 L 16.832363,-15.411607 C 16.792599,-15.30455 16.761705,-15.230834 16.739683,-15.190458 C 16.710318,-15.136013 16.676672,-15.096096 16.638744,-15.070708 C 16.600815,-15.04532 16.555545,-15.032627 16.502934,-15.032626 C 16.471123,-15.032627 16.435642,-15.039356 16.396489,-15.052814 L 16.396489,-15.052814 z M 17.339811,-15.428124 L 17.339811,-16.773368 L 17.504985,-16.773368 L 17.504985,-15.428124 L 17.339811,-15.428124 z M 17.762839,-16.583419 L 17.762839,-16.773368 L 17.928012,-16.773368 L 17.928012,-16.583419 L 17.762839,-16.583419 z M 17.762839,-15.428124 L 17.762839,-16.402646 L 17.928012,-16.402646 L 17.928012,-15.428124 L 17.762839,-15.428124 z M 18.093185,-15.428124 L 18.093185,-15.562098 L 18.713502,-16.274178 C 18.64315,-16.270507 18.581057,-16.268672 18.527224,-16.268672 L 18.12989,-16.268672 L 18.12989,-16.402646 L 18.926392,-16.402646 L 18.926392,-16.293448 L 18.398756,-15.674966 L 18.296899,-15.562098 C 18.37092,-15.567604 18.440354,-15.570357 18.5052,-15.570357 L 18.955756,-15.570357 L 18.955756,-15.428124 L 18.093185,-15.428124 z M 19.787129,-15.741953 L 19.957807,-15.720848 C 19.930889,-15.621132 19.881032,-15.543745 19.808234,-15.488688 C 19.735435,-15.43363 19.642448,-15.406101 19.529275,-15.406101 C 19.386736,-15.406101 19.273715,-15.449994 19.190211,-15.537781 C 19.106707,-15.625567 19.064954,-15.748682 19.064955,-15.907127 C 19.064954,-16.071076 19.107165,-16.19832 19.191587,-16.28886 C 19.276009,-16.379399 19.385513,-16.424668 19.520098,-16.424669 C 19.650401,-16.424668 19.756846,-16.380316 19.839433,-16.291613 C 19.922019,-16.202908 19.963312,-16.078111 19.963313,-15.917221 C 19.963312,-15.907432 19.963006,-15.89275 19.962396,-15.873174 L 19.235634,-15.873174 C 19.241751,-15.766117 19.272033,-15.684143 19.326479,-15.62725 C 19.380924,-15.570357 19.448829,-15.54191 19.530192,-15.54191 C 19.590755,-15.54191 19.642448,-15.557816 19.685272,-15.589627 C 19.728094,-15.621438 19.762046,-15.672213 19.787129,-15.741953 L 19.787129,-15.741953 z M 19.24481,-16.008983 L 19.788964,-16.008983 C 19.781622,-16.090958 19.760822,-16.152439 19.726565,-16.193427 C 19.673954,-16.257048 19.605743,-16.288859 19.521934,-16.28886 C 19.446076,-16.288859 19.382301,-16.263472 19.330608,-16.212697 C 19.278915,-16.161921 19.250315,-16.094016 19.24481,-16.008983 L 19.24481,-16.008983 z M 20.798355,-15.428124 L 20.798355,-15.551087 C 20.736568,-15.45443 20.645723,-15.406101 20.52582,-15.406101 C 20.448127,-15.406101 20.376705,-15.427513 20.311553,-15.470335 C 20.246401,-15.513158 20.195932,-15.572957 20.160144,-15.649732 C 20.124357,-15.726506 20.106463,-15.814752 20.106463,-15.914468 C 20.106463,-16.011736 20.122675,-16.099981 20.155098,-16.179204 C 20.18752,-16.258425 20.236155,-16.319141 20.301001,-16.361353 C 20.365846,-16.403563 20.438339,-16.424668 20.518479,-16.424669 C 20.577206,-16.424668 20.629511,-16.41228 20.675393,-16.387505 C 20.721274,-16.362728 20.758591,-16.330459 20.787344,-16.290696 L 20.787344,-16.773368 L 20.951599,-16.773368 L 20.951599,-15.428124 L 20.798355,-15.428124 z M 20.276225,-15.914468 C 20.276224,-15.78967 20.30253,-15.696378 20.355141,-15.634591 C 20.407751,-15.572804 20.469844,-15.54191 20.541419,-15.54191 C 20.613606,-15.54191 20.674934,-15.571427 20.725404,-15.630461 C 20.775873,-15.689495 20.801108,-15.779576 20.801108,-15.900703 C 20.801108,-16.034065 20.775414,-16.131945 20.724027,-16.194344 C 20.67264,-16.256742 20.609323,-16.287942 20.534078,-16.287943 C 20.460668,-16.287942 20.399339,-16.257966 20.350094,-16.198015 C 20.300847,-16.138063 20.276224,-16.043547 20.276225,-15.914468 L 20.276225,-15.914468 z M 22.00412,-15.428124 L 21.633398,-16.402646 L 21.807747,-16.402646 L 22.016967,-15.819034 C 22.039601,-15.756023 22.060401,-15.690566 22.079366,-15.622662 C 22.094047,-15.674049 22.114541,-15.735836 22.140847,-15.808023 L 22.357407,-16.402646 L 22.527168,-16.402646 L 22.158282,-15.428124 L 22.00412,-15.428124 z M 23.340188,-15.741953 L 23.510867,-15.720848 C 23.483949,-15.621132 23.434091,-15.543745 23.361294,-15.488688 C 23.288494,-15.43363 23.195508,-15.406101 23.082334,-15.406101 C 22.939796,-15.406101 22.826774,-15.449994 22.74327,-15.537781 C 22.659766,-15.625567 22.618014,-15.748682 22.618014,-15.907127 C 22.618014,-16.071076 22.660225,-16.19832 22.744647,-16.28886 C 22.829068,-16.379399 22.938572,-16.424668 23.073158,-16.424669 C 23.203461,-16.424668 23.309906,-16.380316 23.392493,-16.291613 C 23.475079,-16.202908 23.516372,-16.078111 23.516373,-15.917221 C 23.516372,-15.907432 23.516066,-15.89275 23.515455,-15.873174 L 22.788693,-15.873174 C 22.79481,-15.766117 22.825092,-15.684143 22.879538,-15.62725 C 22.933984,-15.570357 23.001888,-15.54191 23.083252,-15.54191 C 23.143815,-15.54191 23.195508,-15.557816 23.238331,-15.589627 C 23.281153,-15.621438 23.315105,-15.672213 23.340188,-15.741953 L 23.340188,-15.741953 z M 22.797869,-16.008983 L 23.342023,-16.008983 C 23.334682,-16.090958 23.313882,-16.152439 23.279625,-16.193427 C 23.227013,-16.257048 23.158803,-16.288859 23.074993,-16.28886 C 22.999136,-16.288859 22.93536,-16.263472 22.883668,-16.212697 C 22.831974,-16.161921 22.803375,-16.094016 22.797869,-16.008983 L 22.797869,-16.008983 z M 23.717333,-15.428124 L 23.717333,-16.402646 L 23.865989,-16.402646 L 23.865989,-16.254908 C 23.903918,-16.324035 23.93894,-16.369611 23.971058,-16.391635 C 24.003174,-16.413657 24.038503,-16.424668 24.077044,-16.424669 C 24.132713,-16.424668 24.1893,-16.406928 24.246805,-16.371447 L 24.189912,-16.218203 C 24.149536,-16.24206 24.10916,-16.25399 24.068785,-16.25399 C 24.032691,-16.25399 24.000269,-16.243131 23.971517,-16.221415 C 23.942764,-16.199697 23.92227,-16.169568 23.910035,-16.131028 C 23.891683,-16.072299 23.882506,-16.008065 23.882507,-15.938326 L 23.882507,-15.428124 L 23.717333,-15.428124 z M 24.280758,-15.719013 L 24.444096,-15.744706 C 24.453272,-15.679249 24.478813,-15.629085 24.520718,-15.594215 C 24.562623,-15.559345 24.621198,-15.54191 24.696444,-15.54191 C 24.772301,-15.54191 24.828582,-15.557357 24.865288,-15.588251 C 24.901992,-15.619144 24.920345,-15.65539 24.920346,-15.69699 C 24.920345,-15.734306 24.904133,-15.76367 24.871711,-15.785082 C 24.849076,-15.799764 24.792795,-15.818422 24.702868,-15.841057 C 24.58174,-15.871645 24.497777,-15.898103 24.450978,-15.920432 C 24.404179,-15.942761 24.368698,-15.973654 24.344533,-16.013113 C 24.320369,-16.05257 24.308287,-16.096158 24.308287,-16.143875 C 24.308287,-16.187309 24.318228,-16.227531 24.33811,-16.264543 C 24.357992,-16.301553 24.385062,-16.332294 24.41932,-16.356765 C 24.445014,-16.375728 24.480036,-16.391787 24.524389,-16.40494 C 24.56874,-16.418092 24.616304,-16.424668 24.66708,-16.424669 C 24.743549,-16.424668 24.810688,-16.413657 24.8685,-16.391635 C 24.926309,-16.369611 24.968979,-16.339788 24.996509,-16.302166 C 25.024037,-16.264542 25.043001,-16.214226 25.053402,-16.151216 L 24.891899,-16.129193 C 24.884557,-16.179356 24.863299,-16.218508 24.828124,-16.246649 C 24.792948,-16.274789 24.743243,-16.288859 24.679009,-16.28886 C 24.603151,-16.288859 24.549011,-16.276318 24.516589,-16.251237 C 24.484166,-16.226155 24.467954,-16.196791 24.467955,-16.163145 C 24.467954,-16.141733 24.474684,-16.122463 24.488142,-16.105334 C 24.501601,-16.087593 24.522706,-16.072911 24.551459,-16.061288 C 24.567976,-16.05517 24.61661,-16.0411 24.697362,-16.019077 C 24.814206,-15.987877 24.895722,-15.962337 24.94191,-15.942455 C 24.988096,-15.922573 25.024343,-15.893668 25.050649,-15.855739 C 25.076953,-15.81781 25.090106,-15.770705 25.090107,-15.714425 C 25.090106,-15.659367 25.074048,-15.607521 25.041931,-15.558886 C 25.009814,-15.510252 24.963473,-15.472629 24.902911,-15.446018 C 24.842347,-15.419407 24.77383,-15.406101 24.697362,-15.406101 C 24.570729,-15.406101 24.474225,-15.432407 24.40785,-15.485017 C 24.341475,-15.537628 24.299111,-15.615626 24.280758,-15.719013 L 24.280758,-15.719013 z M 25.287397,-16.583419 L 25.287397,-16.773368 L 25.45257,-16.773368 L 25.45257,-16.583419 L 25.287397,-16.583419 z M 25.287397,-15.428124 L 25.287397,-16.402646 L 25.45257,-16.402646 L 25.45257,-15.428124 L 25.287397,-15.428124 z M 25.643436,-15.915385 C 25.643436,-16.095852 25.693599,-16.229519 25.793927,-16.316389 C 25.877737,-16.388575 25.979899,-16.424668 26.100415,-16.424669 C 26.234388,-16.424668 26.343892,-16.380775 26.428926,-16.29299 C 26.513959,-16.205202 26.556476,-16.083922 26.556477,-15.92915 C 26.556476,-15.80374 26.537664,-15.705095 26.500042,-15.633214 C 26.462419,-15.561333 26.407667,-15.505511 26.335787,-15.465747 C 26.263905,-15.425983 26.185448,-15.406101 26.100415,-15.406101 C 25.963994,-15.406101 25.853726,-15.449842 25.76961,-15.537322 C 25.685494,-15.624803 25.643436,-15.750823 25.643436,-15.915385 L 25.643436,-15.915385 z M 25.813197,-15.915385 C 25.813197,-15.790587 25.84042,-15.697142 25.894866,-15.63505 C 25.949312,-15.572957 26.017828,-15.54191 26.100415,-15.54191 C 26.182389,-15.54191 26.2506,-15.57311 26.305046,-15.635508 C 26.359491,-15.697907 26.386714,-15.793034 26.386715,-15.920891 C 26.386714,-16.041406 26.359339,-16.13271 26.304587,-16.194803 C 26.249835,-16.256895 26.181778,-16.287942 26.100415,-16.287943 C 26.017828,-16.287942 25.949312,-16.257048 25.894866,-16.195262 C 25.84042,-16.133474 25.813197,-16.040182 25.813197,-15.915385 L 25.813197,-15.915385 z M 26.751014,-15.428124 L 26.751014,-16.402646 L 26.89967,-16.402646 L 26.89967,-16.264084 C 26.971244,-16.37114 27.07463,-16.424668 27.209828,-16.424669 C 27.268556,-16.424668 27.322543,-16.414116 27.37179,-16.393011 C 27.421035,-16.371905 27.457893,-16.344223 27.482364,-16.309966 C 27.506833,-16.275707 27.523962,-16.235025 27.533751,-16.187921 C 27.539868,-16.157333 27.542927,-16.103804 27.542928,-16.027336 L 27.542928,-15.428124 L 27.377754,-15.428124 L 27.377754,-16.020913 C 27.377754,-16.088205 27.37133,-16.138521 27.358484,-16.171863 C 27.345637,-16.205202 27.322849,-16.231814 27.290121,-16.251696 C 27.257391,-16.271577 27.219004,-16.281518 27.174958,-16.281519 C 27.104606,-16.281518 27.04389,-16.259189 26.992809,-16.214532 C 26.941727,-16.169874 26.916187,-16.085146 26.916187,-15.960349 L 26.916187,-15.428124 L 26.751014,-15.428124 z M 6.5283077,-13.54882 L 6.3750637,-13.54882 L 6.3750637,-14.894064 L 6.5402369,-14.894064 L 6.5402369,-14.414144 C 6.6099763,-14.501624 6.6989863,-14.545364 6.8072669,-14.545365 C 6.8672181,-14.545364 6.9239581,-14.533282 6.9774871,-14.509119 C 7.0310147,-14.484954 7.0750608,-14.451002 7.1096257,-14.407262 C 7.1441888,-14.363521 7.1712588,-14.310757 7.1908358,-14.248971 C 7.2104109,-14.187183 7.220199,-14.121114 7.2201999,-14.050763 C 7.220199,-13.883754 7.1789057,-13.754675 7.09632,-13.663524 C 7.0137327,-13.572373 6.9146288,-13.526797 6.7990083,-13.526797 C 6.6839983,-13.526797 6.5937649,-13.57482 6.5283077,-13.670865 L 6.5283077,-13.54882 z M 6.5264725,-14.043422 C 6.5264722,-13.926577 6.5423777,-13.842155 6.5741892,-13.790157 C 6.6261878,-13.705123 6.6965393,-13.662606 6.7852438,-13.662606 C 6.85743,-13.662606 6.9198287,-13.693958 6.9724401,-13.756663 C 7.0250501,-13.819368 7.0513554,-13.912813 7.0513562,-14.036999 C 7.0513554,-14.164243 7.0261207,-14.258147 6.9756518,-14.318711 C 6.9251816,-14.379274 6.8641593,-14.409555 6.7925849,-14.409556 C 6.7203976,-14.409555 6.6579989,-14.378203 6.6053886,-14.315499 C 6.5527775,-14.252794 6.5264722,-14.162102 6.5264725,-14.043422 L 6.5264725,-14.043422 z M 7.4147373,-13.17351 L 7.3963848,-13.328589 C 7.432478,-13.318802 7.4639833,-13.313907 7.4909005,-13.313907 C 7.5276055,-13.313907 7.5569696,-13.320025 7.5789929,-13.33226 C 7.6010157,-13.344495 7.6190624,-13.361624 7.633133,-13.383647 C 7.6435325,-13.400165 7.6603557,-13.441152 7.6836026,-13.506609 C 7.686661,-13.515786 7.691555,-13.529244 7.6982847,-13.546985 L 7.3284802,-14.523342 L 7.5065002,-14.523342 L 7.7092962,-13.959 C 7.7356011,-13.887425 7.7591536,-13.812179 7.7799537,-13.733264 C 7.7989175,-13.809121 7.8215523,-13.883143 7.8478582,-13.95533 L 8.05616,-14.523342 L 8.2213332,-14.523342 L 7.8506111,-13.532303 C 7.8108466,-13.425246 7.7799532,-13.35153 7.7579306,-13.311154 C 7.728566,-13.256709 7.6949196,-13.216792 7.6569914,-13.191404 C 7.6190624,-13.166016 7.5737927,-13.153323 7.5211823,-13.153322 C 7.489371,-13.153323 7.4538893,-13.160052 7.4147373,-13.17351 L 7.4147373,-13.17351 z M 8.7563108,-13.54882 L 9.2729359,-14.894064 L 9.4647204,-14.894064 L 10.015298,-13.54882 L 9.8125017,-13.54882 L 9.6555872,-13.956248 L 9.0930807,-13.956248 L 8.9453424,-13.54882 L 8.7563108,-13.54882 z M 9.1444679,-14.101233 L 9.6005295,-14.101233 L 9.4601322,-14.47379 C 9.4173089,-14.586963 9.3854978,-14.67995 9.3646988,-14.752749 C 9.3475692,-14.666491 9.3234049,-14.580846 9.2922061,-14.495813 L 9.1444679,-14.101233 z M 10.13826,-13.54882 L 10.13826,-14.523342 L 10.286916,-14.523342 L 10.286916,-14.38478 C 10.35849,-14.491836 10.461877,-14.545364 10.597074,-14.545365 C 10.655802,-14.545364 10.709789,-14.534812 10.759036,-14.513707 C 10.808281,-14.492601 10.845139,-14.464919 10.86961,-14.430662 C 10.894079,-14.396403 10.911208,-14.355721 10.920997,-14.308617 C 10.927114,-14.278029 10.930173,-14.2245 10.930174,-14.148032 L 10.930174,-13.54882 L 10.765,-13.54882 L 10.765,-14.141609 C 10.765,-14.208901 10.758576,-14.259217 10.74573,-14.292559 C 10.732883,-14.325898 10.710095,-14.352509 10.677367,-14.372392 C 10.644637,-14.392273 10.60625,-14.402214 10.562204,-14.402215 C 10.491852,-14.402214 10.431136,-14.379885 10.380055,-14.335228 C 10.328973,-14.29057 10.303433,-14.205842 10.303433,-14.081045 L 10.303433,-13.54882 L 10.13826,-13.54882 z M 11.816603,-13.54882 L 11.816603,-13.671783 C 11.754816,-13.575126 11.663971,-13.526797 11.544068,-13.526797 C 11.466375,-13.526797 11.394953,-13.548209 11.329801,-13.591031 C 11.264649,-13.633854 11.21418,-13.693653 11.178393,-13.770428 C 11.142605,-13.847202 11.124711,-13.935448 11.124711,-14.035164 C 11.124711,-14.132432 11.140923,-14.220677 11.173346,-14.2999 C 11.205768,-14.379121 11.254403,-14.439837 11.319249,-14.482049 C 11.384094,-14.524259 11.456587,-14.545364 11.536727,-14.545365 C 11.595454,-14.545364 11.647759,-14.532976 11.693641,-14.508201 C 11.739522,-14.483424 11.776839,-14.451154 11.805592,-14.411391 L 11.805592,-14.894064 L 11.969848,-14.894064 L 11.969848,-13.54882 L 11.816603,-13.54882 z M 11.294473,-14.035164 C 11.294472,-13.910366 11.320778,-13.817074 11.373389,-13.755287 C 11.425999,-13.6935 11.488092,-13.662606 11.559667,-13.662606 C 11.631854,-13.662606 11.693182,-13.692123 11.743652,-13.751157 C 11.794121,-13.810191 11.819356,-13.900272 11.819356,-14.021399 C 11.819356,-14.154761 11.793662,-14.252641 11.742276,-14.31504 C 11.690888,-14.377438 11.627571,-14.408638 11.552326,-14.408639 C 11.478916,-14.408638 11.417587,-14.378662 11.368342,-14.318711 C 11.319095,-14.258758 11.294472,-14.164243 11.294473,-14.035164 L 11.294473,-14.035164 z M 12.228619,-13.54882 L 12.228619,-14.523342 L 12.377275,-14.523342 L 12.377275,-14.375604 C 12.415203,-14.444731 12.450226,-14.490307 12.482343,-14.512331 C 12.51446,-14.534353 12.549788,-14.545364 12.588329,-14.545365 C 12.643998,-14.545364 12.700585,-14.527623 12.758091,-14.492143 L 12.701198,-14.338899 C 12.660821,-14.362756 12.620446,-14.374685 12.580071,-14.374686 C 12.543977,-14.374685 12.511554,-14.363827 12.482802,-14.34211 C 12.454049,-14.320392 12.433556,-14.290264 12.421321,-14.251724 C 12.402968,-14.192995 12.393792,-14.128761 12.393792,-14.059022 L 12.393792,-13.54882 L 12.228619,-13.54882 z M 13.525229,-13.862649 L 13.695908,-13.841544 C 13.668989,-13.741828 13.619132,-13.664441 13.546334,-13.609384 C 13.473535,-13.554326 13.380548,-13.526797 13.267375,-13.526797 C 13.124836,-13.526797 13.011815,-13.57069 12.928311,-13.658477 C 12.844807,-13.746263 12.803055,-13.869378 12.803055,-14.027823 C 12.803055,-14.191772 12.845265,-14.319016 12.929687,-14.409556 C 13.014109,-14.500095 13.123613,-14.545364 13.258199,-14.545365 C 13.388501,-14.545364 13.494946,-14.501012 13.577533,-14.412309 C 13.660119,-14.323604 13.701412,-14.198807 13.701413,-14.037916 C 13.701412,-14.028128 13.701106,-14.013446 13.700496,-13.99387 L 12.973734,-13.99387 C 12.979851,-13.886813 13.010133,-13.804838 13.064579,-13.747946 C 13.119024,-13.691053 13.186929,-13.662606 13.268292,-13.662606 C 13.328855,-13.662606 13.380548,-13.678512 13.423372,-13.710323 C 13.466194,-13.742134 13.500146,-13.792909 13.525229,-13.862649 L 13.525229,-13.862649 z M 12.98291,-14.129679 L 13.527064,-14.129679 C 13.519722,-14.211654 13.498922,-14.273135 13.464665,-14.314123 C 13.412054,-14.377744 13.343843,-14.409555 13.260034,-14.409556 C 13.184176,-14.409555 13.120401,-14.384168 13.068708,-14.333393 C 13.017015,-14.282617 12.988415,-14.214712 12.98291,-14.129679 L 12.98291,-14.129679 z M 14.084064,-13.54882 L 13.785835,-14.523342 L 13.956514,-14.523342 L 14.111593,-13.960836 L 14.169404,-13.751616 C 14.171851,-13.762016 14.188674,-13.829003 14.219873,-13.952577 L 14.374953,-14.523342 L 14.544714,-14.523342 L 14.690617,-13.958083 L 14.739251,-13.771804 L 14.795227,-13.959918 L 14.962235,-14.523342 L 15.12282,-14.523342 L 14.818168,-13.54882 L 14.646571,-13.54882 L 14.491492,-14.132432 L 14.453869,-14.298523 L 14.256579,-13.54882 L 14.084064,-13.54882 z M 15.813795,-13.54882 L 15.813795,-14.894064 L 16.72133,-14.894064 L 16.72133,-14.735314 L 15.991815,-14.735314 L 15.991815,-14.318711 L 16.623144,-14.318711 L 16.623144,-14.159961 L 15.991815,-14.159961 L 15.991815,-13.54882 L 15.813795,-13.54882 z M 16.933302,-14.704115 L 16.933302,-14.894064 L 17.098475,-14.894064 L 17.098475,-14.704115 L 16.933302,-14.704115 z M 16.933302,-13.54882 L 16.933302,-14.523342 L 17.098475,-14.523342 L 17.098475,-13.54882 L 16.933302,-13.54882 z M 17.711452,-13.696559 L 17.73531,-13.550656 C 17.688816,-13.540867 17.647217,-13.535973 17.610512,-13.535973 C 17.55056,-13.535973 17.504067,-13.545456 17.471033,-13.56442 C 17.437998,-13.583384 17.414751,-13.608313 17.401293,-13.639207 C 17.387834,-13.6701 17.381105,-13.735099 17.381105,-13.834203 L 17.381105,-14.394874 L 17.259978,-14.394874 L 17.259978,-14.523342 L 17.381105,-14.523342 L 17.381105,-14.764679 L 17.545361,-14.863783 L 17.545361,-14.523342 L 17.711452,-14.523342 L 17.711452,-14.394874 L 17.545361,-14.394874 L 17.545361,-13.825027 C 17.54536,-13.777921 17.548266,-13.74764 17.554078,-13.734181 C 17.55989,-13.720723 17.569372,-13.710017 17.582525,-13.702064 C 17.595677,-13.694111 17.614488,-13.690135 17.638959,-13.690135 C 17.657311,-13.690135 17.681475,-13.692276 17.711452,-13.696559 L 17.711452,-13.696559 z M 17.784862,-13.54882 L 17.784862,-13.682794 L 18.405179,-14.394874 C 18.334827,-14.391203 18.272734,-14.389368 18.218901,-14.389368 L 17.821567,-14.389368 L 17.821567,-14.523342 L 18.618069,-14.523342 L 18.618069,-14.414144 L 18.090433,-13.795662 L 17.988576,-13.682794 C 18.062598,-13.6883 18.132031,-13.691053 18.196878,-13.691053 L 18.647433,-13.691053 L 18.647433,-13.54882 L 17.784862,-13.54882 z M 18.745619,-13.839709 L 18.908957,-13.865402 C 18.918133,-13.799944 18.943674,-13.749781 18.985579,-13.714911 C 19.027484,-13.680041 19.086059,-13.662606 19.161305,-13.662606 C 19.237162,-13.662606 19.293443,-13.678053 19.330149,-13.708947 C 19.366853,-13.73984 19.385206,-13.776086 19.385207,-13.817686 C 19.385206,-13.855002 19.368994,-13.884366 19.336572,-13.905778 C 19.313937,-13.92046 19.257656,-13.939118 19.167728,-13.961753 C 19.046601,-13.99234 18.962638,-14.018799 18.915839,-14.041128 C 18.86904,-14.063457 18.833558,-14.09435 18.809394,-14.133809 C 18.78523,-14.173266 18.773148,-14.216853 18.773148,-14.264571 C 18.773148,-14.308005 18.783089,-14.348227 18.802971,-14.385239 C 18.822853,-14.422249 18.849923,-14.45299 18.884181,-14.477461 C 18.909874,-14.496424 18.944897,-14.512483 18.98925,-14.525636 C 19.033601,-14.538788 19.081165,-14.545364 19.131941,-14.545365 C 19.208409,-14.545364 19.275549,-14.534353 19.33336,-14.512331 C 19.39117,-14.490307 19.43384,-14.460484 19.46137,-14.422862 C 19.488898,-14.385238 19.507862,-14.334922 19.518263,-14.271912 L 19.35676,-14.249889 C 19.349418,-14.300052 19.32816,-14.339204 19.292985,-14.367345 C 19.257808,-14.395485 19.208104,-14.409555 19.14387,-14.409556 C 19.068012,-14.409555 19.013872,-14.397014 18.98145,-14.371933 C 18.949027,-14.346851 18.932815,-14.317487 18.932815,-14.283841 C 18.932815,-14.262429 18.939544,-14.243159 18.953003,-14.22603 C 18.966462,-14.208289 18.987567,-14.193607 19.01632,-14.181984 C 19.032837,-14.175866 19.081471,-14.161796 19.162223,-14.139773 C 19.279067,-14.108573 19.360583,-14.083033 19.406771,-14.063151 C 19.452957,-14.043269 19.489204,-14.014364 19.51551,-13.976435 C 19.541814,-13.938506 19.554967,-13.891401 19.554968,-13.83512 C 19.554967,-13.780063 19.538908,-13.728217 19.506792,-13.679582 C 19.474675,-13.630948 19.428334,-13.593325 19.367772,-13.566714 C 19.307207,-13.540103 19.238691,-13.526797 19.162223,-13.526797 C 19.03559,-13.526797 18.939086,-13.553103 18.872711,-13.605713 C 18.806335,-13.658324 18.763972,-13.736322 18.745619,-13.839709 L 18.745619,-13.839709 z M 19.752258,-14.704115 L 19.752258,-14.894064 L 19.917432,-14.894064 L 19.917432,-14.704115 L 19.752258,-14.704115 z M 19.752258,-13.54882 L 19.752258,-14.523342 L 19.917432,-14.523342 L 19.917432,-13.54882 L 19.752258,-13.54882 z M 20.16978,-13.54882 L 20.16978,-14.523342 L 20.317518,-14.523342 L 20.317518,-14.386615 C 20.348105,-14.434331 20.388787,-14.472719 20.439563,-14.501778 C 20.490338,-14.530835 20.548148,-14.545364 20.612995,-14.545365 C 20.685181,-14.545364 20.744368,-14.530376 20.790556,-14.500401 C 20.836742,-14.470425 20.869318,-14.42852 20.888283,-14.374686 C 20.965363,-14.488471 21.06569,-14.545364 21.189266,-14.545365 C 21.285921,-14.545364 21.360249,-14.5186 21.412249,-14.465073 C 21.464247,-14.411544 21.490246,-14.32911 21.490248,-14.217772 L 21.490248,-13.54882 L 21.325992,-13.54882 L 21.325992,-14.162714 C 21.325991,-14.228783 21.320638,-14.276346 21.309934,-14.305405 C 21.299227,-14.334463 21.279804,-14.357862 21.251664,-14.375604 C 21.223522,-14.393344 21.190488,-14.402214 21.15256,-14.402215 C 21.084043,-14.402214 21.02715,-14.379427 20.981881,-14.333852 C 20.936611,-14.288275 20.913976,-14.215324 20.913977,-14.114997 L 20.913977,-13.54882 L 20.748804,-13.54882 L 20.748804,-14.181984 C 20.748803,-14.255394 20.735344,-14.310452 20.708428,-14.347157 C 20.68151,-14.383862 20.637464,-14.402214 20.576289,-14.402215 C 20.529796,-14.402214 20.48682,-14.389979 20.447363,-14.36551 C 20.407904,-14.341039 20.379305,-14.305252 20.361564,-14.258147 C 20.343823,-14.211042 20.334953,-14.143137 20.334953,-14.054434 L 20.334953,-13.54882 L 20.16978,-13.54882 z M 21.675609,-14.036081 C 21.675609,-14.216548 21.725773,-14.350215 21.8261,-14.437085 C 21.90991,-14.509271 22.012073,-14.545364 22.132588,-14.545365 C 22.266561,-14.545364 22.376065,-14.501471 22.461099,-14.413686 C 22.546132,-14.325898 22.588649,-14.204618 22.58865,-14.049846 C 22.588649,-13.924436 22.569837,-13.825791 22.532216,-13.75391 C 22.494592,-13.682029 22.43984,-13.626207 22.36796,-13.586443 C 22.296078,-13.546679 22.217621,-13.526797 22.132588,-13.526797 C 21.996167,-13.526797 21.885899,-13.570537 21.801783,-13.658018 C 21.717667,-13.745499 21.675609,-13.871519 21.675609,-14.036081 L 21.675609,-14.036081 z M 21.84537,-14.036081 C 21.84537,-13.911283 21.872593,-13.817838 21.927039,-13.755746 C 21.981485,-13.693653 22.050001,-13.662606 22.132588,-13.662606 C 22.214562,-13.662606 22.282773,-13.693805 22.337219,-13.756204 C 22.391665,-13.818603 22.418888,-13.91373 22.418888,-14.041587 C 22.418888,-14.162102 22.391512,-14.253406 22.336761,-14.315499 C 22.282008,-14.377591 22.213951,-14.408638 22.132588,-14.408639 C 22.050001,-14.408638 21.981485,-14.377744 21.927039,-14.315958 C 21.872593,-14.25417 21.84537,-14.160878 21.84537,-14.036081 L 21.84537,-14.036081 z M 22.783187,-13.54882 L 22.783187,-14.523342 L 22.931843,-14.523342 L 22.931843,-14.38478 C 23.003418,-14.491836 23.106804,-14.545364 23.242001,-14.545365 C 23.300729,-14.545364 23.354716,-14.534812 23.403963,-14.513707 C 23.453208,-14.492601 23.490066,-14.464919 23.514537,-14.430662 C 23.539006,-14.396403 23.556135,-14.355721 23.565924,-14.308617 C 23.572041,-14.278029 23.5751,-14.2245 23.575101,-14.148032 L 23.575101,-13.54882 L 23.409927,-13.54882 L 23.409927,-14.141609 C 23.409927,-14.208901 23.403503,-14.259217 23.390657,-14.292559 C 23.37781,-14.325898 23.355022,-14.352509 23.322294,-14.372392 C 23.289565,-14.392273 23.251177,-14.402214 23.207131,-14.402215 C 23.136779,-14.402214 23.076063,-14.379885 23.024982,-14.335228 C 22.9739,-14.29057 22.94836,-14.205842 22.94836,-14.081045 L 22.94836,-13.54882 L 22.783187,-13.54882 z"
     id="text893" />
  <path
     style="font-size:12px;font-style:normal;font-weight:normal;fill:#000000;fill-opacity:1;stroke:none;stroke-width:1pt;stroke-linecap:butt;stroke-linejoin:miter;stroke-opacity:1;font-family:helvetica"
     d="M -0.69191837,-30.445013 L -0.69191837,-31.657904 L 0.36276913,-31.657904 L 0.36276913,-30.445013 L -0.69191837,-30.445013 z M -0.69191837,-23.06806 L -0.69191837,-29.290716 L 0.36276913,-29.290716 L 0.36276913,-23.06806 L -0.69191837,-23.06806 z M 1.9740973,-20.683294 L 1.9740973,-29.290716 L 2.9350348,-29.290716 L 2.9350348,-28.482122 C 3.1615953,-28.798523 3.4174544,-29.035827 3.7026129,-29.194036 C 3.9877663,-29.352233 4.3334691,-29.431335 4.7397223,-29.431341 C 5.2709682,-29.431335 5.7397177,-29.294616 6.1459723,-29.021185 C 6.5522169,-28.747742 6.8588572,-28.362 7.0658941,-27.863958 C 7.2729193,-27.365907 7.3764348,-26.820009 7.376441,-26.226263 C 7.3764348,-25.589542 7.2621771,-25.0163 7.0336676,-24.506536 C 6.8051463,-23.99677 6.4731154,-23.606145 6.0375738,-23.334661 C 5.6020225,-23.063177 5.1440152,-22.927435 4.6635504,-22.927435 C 4.3119847,-22.927435 3.9965554,-23.001654 3.7172613,-23.150091 C 3.4379622,-23.298528 3.2084702,-23.486028 3.0287848,-23.712591 L 3.0287848,-20.683294 L 1.9740973,-20.683294 z M 2.9291754,-26.144232 C 2.9291736,-25.343448 3.0912828,-24.751652 3.4155035,-24.368841 C 3.7397197,-23.986028 4.1322974,-23.794622 4.5932379,-23.794622 C 5.061984,-23.794622 5.4633508,-23.992864 5.7973394,-24.389349 C 6.1313189,-24.785832 6.2983109,-25.400089 6.298316,-26.232122 C 6.2983109,-27.025087 6.1352251,-27.618837 5.8090582,-28.013372 C 5.482882,-28.407898 5.093234,-28.605164 4.6401129,-28.605169 C 4.1908911,-28.605164 3.7934306,-28.395203 3.4477301,-27.975286 C 3.102025,-27.55536 2.9291736,-26.945009 2.9291754,-26.144232 L 2.9291754,-26.144232 z M 8.2612066,-26.179388 C 8.2612062,-27.331728 8.5815184,-28.185242 9.2221441,-28.739935 C 9.7572985,-29.200866 10.409642,-29.431335 11.179175,-29.431341 C 12.03464,-29.431335 12.733858,-29.151062 13.276832,-28.590521 C 13.819794,-28.029969 14.091279,-27.255556 14.091285,-26.267279 C 14.091279,-25.466495 13.971161,-24.836613 13.730933,-24.37763 C 13.490693,-23.918645 13.141084,-23.5622 12.682105,-23.308294 C 12.223116,-23.054388 11.72214,-22.927435 11.179175,-22.927435 C 10.308079,-22.927435 9.6039783,-23.206732 9.0668707,-23.765326 C 8.5297606,-24.323918 8.2612062,-25.128605 8.2612066,-26.179388 L 8.2612066,-26.179388 z M 9.345191,-26.179388 C 9.3451895,-25.382511 9.5190175,-24.785832 9.8666754,-24.389349 C 10.214329,-23.992864 10.651829,-23.794622 11.179175,-23.794622 C 11.702609,-23.794622 12.138155,-23.99384 12.485816,-24.392279 C 12.833467,-24.790714 13.007295,-25.398136 13.0073,-26.214544 C 13.007295,-26.984072 12.832491,-27.567079 12.482886,-27.963568 C 12.133273,-28.360047 11.698703,-28.558289 11.179175,-28.558294 C 10.651829,-28.558289 10.214329,-28.361023 9.8666754,-27.966497 C 9.5190175,-27.571962 9.3451895,-26.976259 9.345191,-26.179388 L 9.345191,-26.179388 z M 19.370582,-23.06806 L 19.370582,-23.853216 C 18.976046,-23.236029 18.395968,-22.927435 17.630347,-22.927435 C 17.134251,-22.927435 16.678197,-23.064154 16.262183,-23.337591 C 15.846166,-23.611028 15.523901,-23.992864 15.295386,-24.483099 C 15.06687,-24.973331 14.952612,-25.536807 14.952613,-26.173529 C 14.952612,-26.794619 15.056128,-27.358095 15.26316,-27.863958 C 15.47019,-28.369812 15.780737,-28.757507 16.1948,-29.027044 C 16.608861,-29.296569 17.071751,-29.431335 17.583472,-29.431341 C 17.958469,-29.431335 18.292453,-29.352233 18.585425,-29.194036 C 18.87839,-29.035827 19.116671,-28.829773 19.300269,-28.575872 L 19.300269,-31.657904 L 20.349097,-31.657904 L 20.349097,-23.06806 L 19.370582,-23.06806 z M 16.036597,-26.173529 C 16.036596,-25.376651 16.204564,-24.780949 16.540504,-24.386419 C 16.876439,-23.991887 17.272923,-23.794622 17.729957,-23.794622 C 18.19089,-23.794622 18.582492,-23.983098 18.904761,-24.360052 C 19.227022,-24.737004 19.388155,-25.312198 19.38816,-26.085638 C 19.388155,-26.937197 19.224093,-27.562196 18.895972,-27.960638 C 18.567843,-28.35907 18.163547,-28.558289 17.683082,-28.558294 C 17.214329,-28.558289 16.822728,-28.366883 16.508277,-27.984076 C 16.193822,-27.601259 16.036596,-26.997743 16.036597,-26.173529 L 16.036597,-26.173529 z"
     id="text902" />
</svg>
