<?xml version="1.0" encoding="UTF-8" standalone="no"?>
<!-- Made by Andrew Fitzsimon Created with Inkscape (http://www.inkscape.org/) -->
<svg
   xmlns:dc="http://purl.org/dc/elements/1.1/"
   xmlns:cc="http://creativecommons.org/ns#"
   xmlns:rdf="http://www.w3.org/1999/02/22-rdf-syntax-ns#"
   xmlns:svg="http://www.w3.org/2000/svg"
   xmlns="http://www.w3.org/2000/svg"
   xmlns:xlink="http://www.w3.org/1999/xlink"
   xmlns:sodipodi="http://sodipodi.sourceforge.net/DTD/sodipodi-0.dtd"
   xmlns:inkscape="http://www.inkscape.org/namespaces/inkscape"
   height="128.00000pt"
   id="svg845"
   inkscape:version="0.46"
   sodipodi:docbase="/home/andy/Desktop/etiquette-icons-0.4/scalable/apps"
   sodipodi:docname="gthumb.svg"
   sodipodi:version="0.32"
   width="128.00000pt"
   inkscape:output_extension="org.inkscape.output.svg.inkscape"
   inkscape:export-filename="C:\Documents and Settings\All Users\Documents\Ubuntu Brig\Andy Fitzsimon\gthumb.png"
   inkscape:export-xdpi="90"
   inkscape:export-ydpi="90">
  <metadata
     id="metadata3">
    <rdf:RDF>
      <cc:Work
         rdf:about="">
        <dc:title>Etiquette Icons</dc:title>
        <dc:description />
        <dc:subject>
          <rdf:Bag>
            <rdf:li>hash</rdf:li>
            <rdf:li />
            <rdf:li>application</rdf:li>
            <rdf:li>computer</rdf:li>
            <rdf:li>icons</rdf:li>
          </rdf:Bag>
        </dc:subject>
        <dc:publisher>
          <cc:Agent
             rdf:about="http://www.openclipart.org">
            <dc:title>Andy Fitzsimon</dc:title>
          </cc:Agent>
        </dc:publisher>
        <dc:creator>
          <cc:Agent>
            <dc:title>Andy Fitzsimon</dc:title>
          </cc:Agent>
        </dc:creator>
        <dc:rights>
          <cc:Agent>
            <dc:title>Andy Fitzsimon</dc:title>
          </cc:Agent>
        </dc:rights>
        <dc:date />
        <dc:format>image/svg+xml</dc:format>
        <dc:type
           rdf:resource="http://purl.org/dc/dcmitype/StillImage" />
        <cc:license
           rdf:resource="http://web.resource.org/cc/PublicDomain" />
        <dc:language>en</dc:language>
      </cc:Work>
      <cc:License
         rdf:about="http://web.resource.org/cc/PublicDomain">
        <cc:permits
           rdf:resource="http://web.resource.org/cc/Reproduction" />
        <cc:permits
           rdf:resource="http://web.resource.org/cc/Distribution" />
        <cc:permits
           rdf:resource="http://web.resource.org/cc/DerivativeWorks" />
      </cc:License>
    </rdf:RDF>
  </metadata>
  <defs
     id="defs847">
    <inkscape:perspective
       sodipodi:type="inkscape:persp3d"
       inkscape:vp_x="0 : 80 : 1"
       inkscape:vp_y="0 : 1000 : 0"
       inkscape:vp_z="160 : 80 : 1"
       inkscape:persp3d-origin="80 : 53.333333 : 1"
       id="perspective66" />
    <linearGradient
       id="linearGradient1202">
      <stop
         id="stop1203"
         offset="0.00000000"
         style="stop-color:#000000;stop-opacity:0.22314049;" />
      <stop
         id="stop1204"
         offset="1.0000000"
         style="stop-color:#000000;stop-opacity:0.00000000;" />
    </linearGradient>
    <linearGradient
       id="linearGradient1443">
      <stop
         id="stop1444"
         offset="0.0000000"
         style="stop-color:#9db8d2;stop-opacity:1.0000000;" />
      <stop
         id="stop1447"
         offset="0.50000000"
         style="stop-color:#6988b7;stop-opacity:0.37500000;" />
      <stop
         id="stop1445"
         offset="1.0000000"
         style="stop-color:#929395;stop-opacity:0.00000000;" />
    </linearGradient>
    <linearGradient
       id="linearGradient1439">
      <stop
         id="stop1440"
         offset="0.0000000"
         style="stop-color:#9db8d2;stop-opacity:0.91764706;" />
      <stop
         id="stop1441"
         offset="1.0000000"
         style="stop-color:#4b6983;stop-opacity:0.77319586;" />
    </linearGradient>
    <linearGradient
       id="linearGradient1125">
      <stop
         id="stop1126"
         offset="0.00000000"
         style="stop-color:#000;stop-opacity:1;" />
      <stop
         id="stop1127"
         offset="1.0000000"
         style="stop-color:#000000;stop-opacity:0.00000000;" />
    </linearGradient>
    <linearGradient
       id="linearGradient1045">
      <stop
         id="stop1046"
         offset="0.00000000"
         style="stop-color:#ffffff;stop-opacity:0.74901962;" />
      <stop
         id="stop1047"
         offset="1.0000000"
         style="stop-color:#ffffff;stop-opacity:0.00000000;" />
    </linearGradient>
    <linearGradient
       id="linearGradient870">
      <stop
         id="stop871"
         offset="0.0000000"
         style="stop-color:#83a67f;stop-opacity:1.0000000;" />
      <stop
         id="stop872"
         offset="1.0000000"
         style="stop-color:#eaeaea;stop-opacity:1.0000000;" />
    </linearGradient>
    <linearGradient
       id="linearGradient864">
      <stop
         id="stop865"
         offset="0"
         style="stop-color:#000;stop-opacity:1;" />
      <stop
         id="stop866"
         offset="1"
         style="stop-color:#fff;stop-opacity:1;" />
    </linearGradient>
    <linearGradient
       id="linearGradient867"
       x1="0.47368422"
       x2="0.59649122"
       xlink:href="#linearGradient1443"
       y1="0.11718750"
       y2="1.2187500" />
    <linearGradient
       id="linearGradient873"
       x1="0.63380283"
       x2="0.62676054"
       xlink:href="#linearGradient870"
       y1="0.11764706"
       y2="0.74369746" />
    <linearGradient
       id="linearGradient1044"
       x1="0.56690139"
       x2="0.66549295"
       xlink:href="#linearGradient1045"
       y1="-0.29629636"
       y2="0.65432096" />
    <linearGradient
       id="linearGradient1123"
       x1="0.78195488"
       x2="0.57894737"
       xlink:href="#linearGradient1045"
       y1="0.38281250"
       y2="0.60937500" />
    <linearGradient
       gradientTransform="scale(1.096129,0.912302)"
       id="linearGradient1124"
       x1="0.21097578"
       x2="1.2504174"
       xlink:href="#linearGradient1125"
       y1="-1.2339019"
       y2="-0.10575413" />
    <linearGradient
       id="linearGradient1388"
       x1="-0.21705426"
       x2="1.5399107"
       xlink:href="#linearGradient1125"
       y1="0.55468750"
       y2="0.55468750" />
    <linearGradient
       id="linearGradient1437"
       x1="0.23239437"
       x2="0.62676054"
       xlink:href="#linearGradient1045"
       y1="-0.23899370"
       y2="0.84905660" />
    <radialGradient
       cx="0.44718307"
       cy="0.51748252"
       fx="0.63028163"
       fy="0.16783214"
       id="radialGradient1438"
       r="0.57398623"
       xlink:href="#linearGradient1439" />
    <radialGradient
       cx="0.46126762"
       cy="0.54032260"
       fx="0.50704223"
       fy="0.20025954"
       id="radialGradient1446"
       r="0.51062703"
       xlink:href="#linearGradient1443" />
    <linearGradient
       id="linearGradient1201"
       xlink:href="#linearGradient1202" />
  </defs>
  <sodipodi:namedview
     bordercolor="#666666"
     borderopacity="1.0"
     id="base"
     inkscape:cx="82.292211"
     inkscape:cy="17.686264"
     inkscape:pageopacity="0.0"
     inkscape:pageshadow="2"
     inkscape:window-height="667"
     inkscape:window-width="573"
     inkscape:window-x="246"
     inkscape:window-y="177"
     inkscape:zoom="1"
     pagecolor="#ffffff"
     showborder="true"
     showgrid="false"
     inkscape:current-layer="svg845" />
  <path
     transform="scale(1.221426,1.221426)"
     style="font-size:12px;font-style:normal;font-weight:normal;fill:#000000;fill-opacity:1;stroke:none;stroke-width:1pt;stroke-linecap:butt;stroke-linejoin:miter;stroke-opacity:1;font-family:helvetica"
     d="M -9.7838106,-30.834026 L -8.75842,-30.681683 C -8.7154529,-30.365277 -8.5963124,-30.134809 -8.4009981,-29.990276 C -8.1392816,-29.794965 -7.7818601,-29.697309 -7.3287325,-29.697308 C -6.8404548,-29.697309 -6.463502,-29.794965 -6.1978731,-29.990276 C -5.9322526,-30.18559 -5.7525652,-30.459027 -5.6588106,-30.810589 C -5.6041279,-31.025433 -5.5787373,-31.476604 -5.5826387,-32.164104 C -6.0435806,-31.621135 -6.6177988,-31.349651 -7.305295,-31.349651 C -8.160766,-31.349651 -8.8228747,-31.658245 -9.2916231,-32.275433 C -9.7603737,-32.892619 -9.9947485,-33.632852 -9.9947481,-34.496136 C -9.9947485,-35.089882 -9.8873267,-35.637733 -9.6724825,-36.13969 C -9.4576397,-36.641638 -9.1461165,-37.029333 -8.7379122,-37.302776 C -8.3297111,-37.576208 -7.8502194,-37.712926 -7.2994356,-37.712933 C -6.5650644,-37.712926 -5.9595963,-37.416052 -5.4830294,-36.822308 L -5.4830294,-37.572308 L -4.5103731,-37.572308 L -4.5103731,-32.193401 C -4.510379,-31.224651 -4.6090117,-30.538129 -4.8062716,-30.133831 C -5.0035426,-29.729536 -5.3160422,-29.4102 -5.7437716,-29.175823 C -6.1715101,-28.941451 -6.6978768,-28.824263 -7.3228731,-28.824261 C -8.0650629,-28.824263 -8.6646717,-28.991255 -9.1217012,-29.325237 C -9.5787333,-29.659223 -9.7994362,-30.162153 -9.7838106,-30.834026 L -9.7838106,-30.834026 z M -8.9107637,-34.572308 C -8.9107652,-33.755899 -8.748656,-33.160196 -8.4244356,-32.785198 C -8.1002191,-32.410197 -7.6939696,-32.222697 -7.2056856,-32.222698 C -6.7213143,-32.222697 -6.3150647,-32.409221 -5.9869356,-32.782269 C -5.6588153,-33.155314 -5.494753,-33.740274 -5.4947481,-34.537151 C -5.494753,-35.298866 -5.6636981,-35.873084 -6.0015841,-36.259808 C -6.3394787,-36.646521 -6.7467049,-36.83988 -7.2232637,-36.839886 C -7.6920164,-36.83988 -8.0904535,-36.649451 -8.4185762,-36.268597 C -8.7467029,-35.887733 -8.9107652,-35.322304 -8.9107637,-34.572308 L -8.9107637,-34.572308 z M -0.59045124,-31.349651 L -0.59045124,-38.925823 L -3.4205294,-38.925823 L -3.4205294,-39.939495 L 3.3880644,-39.939495 L 3.3880644,-38.925823 L 0.54626751,-38.925823 L 0.54626751,-31.349651 L -0.59045124,-31.349651 z M 4.4251738,-31.349651 L 4.4251738,-39.939495 L 5.4798613,-39.939495 L 5.4798613,-36.857464 C 5.9720464,-37.42777 6.5931396,-37.712926 7.3431425,-37.712933 C 7.8040758,-37.712926 8.2044661,-37.622106 8.5443144,-37.440472 C 8.8841529,-37.258825 9.1273167,-37.007849 9.2738066,-36.687542 C 9.4202852,-36.367224 9.4935273,-35.902381 9.4935331,-35.293011 L 9.4935331,-31.349651 L 8.4388456,-31.349651 L 8.4388456,-35.293011 C 8.4388408,-35.82035 8.3245831,-36.204139 8.0960722,-36.444378 C 7.8675523,-36.684607 7.5443105,-36.804724 7.1263456,-36.804729 C 6.8138425,-36.804724 6.5198974,-36.723669 6.2445097,-36.561565 C 5.9691167,-36.399451 5.7728279,-36.179725 5.6556425,-35.902386 C 5.5384531,-35.625038 5.4798594,-35.242226 5.4798613,-34.753948 L 5.4798613,-31.349651 L 4.4251738,-31.349651 z M 15.182986,-31.349651 L 15.182986,-32.263714 C 14.698607,-31.560589 14.040404,-31.209026 13.208377,-31.209026 C 12.841187,-31.209026 12.498414,-31.279339 12.180057,-31.419964 C 11.861696,-31.560589 11.625368,-31.737346 11.471072,-31.950237 C 11.316774,-32.163127 11.208376,-32.423869 11.145877,-32.732464 C 11.102907,-32.939493 11.081423,-33.267618 11.081424,-33.716839 L 11.081424,-37.572308 L 12.136111,-37.572308 L 12.136111,-34.121136 C 12.136109,-33.570352 12.157594,-33.199259 12.200564,-33.007854 C 12.266969,-32.730509 12.407594,-32.512736 12.622439,-32.354534 C 12.837281,-32.19633 13.102905,-32.117229 13.419314,-32.117229 C 13.735717,-32.117229 14.032592,-32.198283 14.309939,-32.360394 C 14.587279,-32.522502 14.783568,-32.743205 14.898807,-33.022503 C 15.014036,-33.301798 15.071653,-33.707071 15.071658,-34.238323 L 15.071658,-37.572308 L 16.126346,-37.572308 L 16.126346,-31.349651 L 15.182986,-31.349651 z M 17.784549,-31.349651 L 17.784549,-37.572308 L 18.727908,-37.572308 L 18.727908,-36.699261 C 18.923219,-37.003943 19.182984,-37.249059 19.507205,-37.434612 C 19.831421,-37.620153 20.200561,-37.712926 20.614627,-37.712933 C 21.07556,-37.712926 21.45349,-37.617223 21.748416,-37.425823 C 22.043333,-37.234411 22.25134,-36.966833 22.372439,-36.623089 C 22.864621,-37.349645 23.505245,-37.712926 24.294314,-37.712933 C 24.911494,-37.712926 25.386103,-37.542028 25.718143,-37.200237 C 26.050165,-36.858435 26.21618,-36.332068 26.216189,-35.621136 L 26.216189,-31.349651 L 25.167361,-31.349651 L 25.167361,-35.269573 C 25.167353,-35.691444 25.133173,-35.995155 25.064822,-36.180706 C 24.996455,-36.366248 24.872432,-36.515662 24.692752,-36.628948 C 24.513057,-36.742224 24.30212,-36.798865 24.059939,-36.79887 C 23.622433,-36.798865 23.259152,-36.653357 22.970096,-36.362347 C 22.681027,-36.071326 22.536496,-35.605506 22.536502,-34.964886 L 22.536502,-31.349651 L 21.481814,-31.349651 L 21.481814,-35.39262 C 21.48181,-35.861366 21.395872,-36.212928 21.224002,-36.447308 C 21.052123,-36.681677 20.770873,-36.798865 20.380252,-36.79887 C 20.083374,-36.798865 19.80896,-36.72074 19.55701,-36.564495 C 19.305054,-36.40824 19.122437,-36.179725 19.009158,-35.878948 C 18.895875,-35.578163 18.839234,-35.144569 18.839236,-34.578167 L 18.839236,-31.349651 L 17.784549,-31.349651 z M 28.765018,-31.349651 L 27.786502,-31.349651 L 27.786502,-39.939495 L 28.841189,-39.939495 L 28.841189,-36.875042 C 29.2865,-37.43363 29.854858,-37.712926 30.546268,-37.712933 C 30.929076,-37.712926 31.29138,-37.635778 31.633182,-37.481487 C 31.974973,-37.327184 32.256223,-37.110388 32.476932,-36.831097 C 32.697629,-36.551795 32.87048,-36.214881 32.995486,-35.820354 C 33.12048,-35.425819 33.18298,-35.003945 33.182986,-34.554729 C 33.18298,-33.488321 32.919308,-32.664103 32.391971,-32.082073 C 31.864622,-31.500042 31.23181,-31.209026 30.493533,-31.209026 C 29.759155,-31.209026 29.182984,-31.515667 28.765018,-32.128948 L 28.765018,-31.349651 z M 28.753299,-34.507854 C 28.753297,-33.761758 28.854859,-33.222696 29.057986,-32.890667 C 29.390015,-32.347697 29.839233,-32.076213 30.405643,-32.076214 C 30.866576,-32.076213 31.265013,-32.276408 31.600955,-32.6768 C 31.936888,-33.077189 32.104856,-33.673868 32.104861,-34.466839 C 32.104856,-35.279335 31.943724,-35.878944 31.621463,-36.265667 C 31.299193,-36.65238 30.909545,-36.84574 30.452518,-36.845745 C 29.991577,-36.84574 29.59314,-36.645544 29.257205,-36.245159 C 28.921266,-35.844764 28.753297,-35.265663 28.753299,-34.507854 L 28.753299,-34.507854 z"
     id="text1018" />
  <path
     transform="scale(0.286929,0.286929)"
     style="font-size:8px;font-style:normal;font-variant:normal;font-weight:normal;font-stretch:normal;line-height:100%;writing-mode:lr-tb;text-anchor:start;fill:#000000;fill-opacity:1;stroke:none;stroke-width:1pt;stroke-linecap:butt;stroke-linejoin:miter;stroke-opacity:1;font-family:Bitstream Vera Sans"
     d="M 40.799141,-114.73194 L 40.799141,-120.4585 L 41.556953,-120.4585 L 41.556953,-114.73194 L 40.799141,-114.73194 z M 45.506172,-116.25147 L 46.197578,-116.16163 C 46.122054,-115.68507 45.928695,-115.31202 45.6175,-115.04249 C 45.306299,-114.77296 44.924138,-114.63819 44.471016,-114.63819 C 43.903306,-114.63819 43.446926,-114.82374 43.101875,-115.19483 C 42.756823,-115.56592 42.584297,-116.09783 42.584297,-116.79053 C 42.584297,-117.23845 42.658516,-117.63038 42.806953,-117.96632 C 42.95539,-118.30225 43.181301,-118.5542 43.484688,-118.72218 C 43.788072,-118.89014 44.11815,-118.97412 44.474922,-118.97413 C 44.92544,-118.97412 45.29393,-118.86019 45.580391,-118.63233 C 45.866846,-118.40446 46.050439,-118.0809 46.131172,-117.66163 L 45.447578,-117.55616 C 45.382471,-117.8348 45.267237,-118.04444 45.101875,-118.18507 C 44.936508,-118.32569 44.736638,-118.396 44.502266,-118.396 C 44.148097,-118.396 43.860337,-118.26905 43.638985,-118.01514 C 43.417629,-117.76124 43.306952,-117.35954 43.306953,-116.81007 C 43.306952,-116.25277 43.413723,-115.84783 43.627266,-115.59522 C 43.840806,-115.34262 44.119452,-115.21632 44.463203,-115.21632 C 44.739243,-115.21632 44.969711,-115.30095 45.15461,-115.47022 C 45.339502,-115.63949 45.45669,-115.89991 45.506172,-116.25147 L 45.506172,-116.25147 z M 46.537422,-116.80616 C 46.537422,-117.57439 46.750963,-118.1434 47.178047,-118.51319 C 47.534817,-118.82048 47.969712,-118.97412 48.482735,-118.97413 C 49.053044,-118.97412 49.51919,-118.78728 49.881172,-118.41358 C 50.243147,-118.03988 50.424137,-117.52361 50.424141,-116.86475 C 50.424137,-116.3309 50.344059,-115.91098 50.183907,-115.60499 C 50.023747,-115.299 49.790674,-115.06137 49.484688,-114.8921 C 49.178695,-114.72283 48.844711,-114.63819 48.482735,-114.63819 C 47.902004,-114.63819 47.432603,-114.82439 47.074532,-115.19678 C 46.716458,-115.56918 46.537422,-116.10564 46.537422,-116.80616 L 46.537422,-116.80616 z M 47.260078,-116.80616 C 47.260077,-116.27491 47.375963,-115.87712 47.607735,-115.6128 C 47.839504,-115.34848 48.13117,-115.21632 48.482735,-115.21632 C 48.83169,-115.21632 49.122055,-115.34913 49.353828,-115.61475 C 49.585596,-115.88038 49.701481,-116.28533 49.701485,-116.8296 C 49.701481,-117.34262 49.584945,-117.73129 49.351875,-117.99561 C 49.1188,-118.25993 48.829086,-118.39209 48.482735,-118.3921 C 48.13117,-118.39209 47.839504,-118.26058 47.607735,-117.99757 C 47.375963,-117.73454 47.260077,-117.33741 47.260078,-116.80616 L 47.260078,-116.80616 z M 51.252266,-114.73194 L 51.252266,-118.88038 L 51.885078,-118.88038 L 51.885078,-118.29053 C 52.189764,-118.74626 52.629868,-118.97412 53.205391,-118.97413 C 53.455388,-118.97412 53.685206,-118.9292 53.894844,-118.83936 C 54.104476,-118.74952 54.261377,-118.63168 54.365547,-118.48585 C 54.46971,-118.34001 54.542627,-118.16683 54.584297,-117.96632 C 54.610335,-117.8361 54.623356,-117.60824 54.62336,-117.28272 L 54.62336,-114.73194 L 53.920235,-114.73194 L 53.920235,-117.25538 C 53.920231,-117.54183 53.892888,-117.75603 53.838203,-117.89796 C 53.783513,-118.03988 53.686508,-118.15316 53.547188,-118.2378 C 53.407862,-118.32243 53.244451,-118.36475 53.056953,-118.36475 C 52.757472,-118.36475 52.499009,-118.2697 52.281563,-118.0796 C 52.064114,-117.88949 51.95539,-117.52881 51.955391,-116.99757 L 51.955391,-114.73194 L 51.252266,-114.73194 z M 58.09211,-114.73194 L 58.09211,-118.3335 L 57.471016,-118.3335 L 57.471016,-118.88038 L 58.09211,-118.88038 L 58.09211,-119.32178 C 58.092109,-119.60043 58.116849,-119.80746 58.166328,-119.94288 C 58.234036,-120.12516 58.353176,-120.27295 58.52375,-120.38624 C 58.694322,-120.49951 58.933254,-120.55615 59.240547,-120.55616 C 59.438462,-120.55615 59.657212,-120.53272 59.896797,-120.48585 L 59.791328,-119.87257 C 59.645493,-119.8986 59.507472,-119.91162 59.377266,-119.91163 C 59.163722,-119.91162 59.012681,-119.86605 58.924141,-119.77491 C 58.835598,-119.68376 58.791327,-119.51319 58.791328,-119.26319 L 58.791328,-118.88038 L 59.599922,-118.88038 L 59.599922,-118.3335 L 58.791328,-118.3335 L 58.791328,-114.73194 L 58.09211,-114.73194 z M 60.135078,-114.73194 L 60.135078,-118.88038 L 60.767891,-118.88038 L 60.767891,-118.25147 C 60.929348,-118.54574 61.078436,-118.73975 61.215157,-118.8335 C 61.351874,-118.92725 61.502264,-118.97412 61.666328,-118.97413 C 61.903305,-118.97412 62.14419,-118.8986 62.388985,-118.74757 L 62.146797,-118.09522 C 61.97492,-118.19678 61.803045,-118.24756 61.631172,-118.24757 C 61.477524,-118.24756 61.339504,-118.20134 61.21711,-118.10889 C 61.094712,-118.01644 61.007473,-117.88819 60.955391,-117.72413 C 60.877265,-117.47413 60.838202,-117.20069 60.838203,-116.90382 L 60.838203,-114.73194 L 60.135078,-114.73194 z M 62.553047,-116.80616 C 62.553047,-117.57439 62.766588,-118.1434 63.193672,-118.51319 C 63.550442,-118.82048 63.985337,-118.97412 64.49836,-118.97413 C 65.068669,-118.97412 65.534815,-118.78728 65.896797,-118.41358 C 66.258772,-118.03988 66.439762,-117.52361 66.439766,-116.86475 C 66.439762,-116.3309 66.359684,-115.91098 66.199532,-115.60499 C 66.039372,-115.299 65.806299,-115.06137 65.500313,-114.8921 C 65.19432,-114.72283 64.860336,-114.63819 64.49836,-114.63819 C 63.917629,-114.63819 63.448228,-114.82439 63.090157,-115.19678 C 62.732083,-115.56918 62.553047,-116.10564 62.553047,-116.80616 L 62.553047,-116.80616 z M 63.275703,-116.80616 C 63.275702,-116.27491 63.391588,-115.87712 63.62336,-115.6128 C 63.855129,-115.34848 64.146795,-115.21632 64.49836,-115.21632 C 64.847315,-115.21632 65.13768,-115.34913 65.369453,-115.61475 C 65.601221,-115.88038 65.717106,-116.28533 65.71711,-116.8296 C 65.717106,-117.34262 65.60057,-117.73129 65.3675,-117.99561 C 65.134425,-118.25993 64.844711,-118.39209 64.49836,-118.3921 C 64.146795,-118.39209 63.855129,-118.26058 63.62336,-117.99757 C 63.391588,-117.73454 63.275702,-117.33741 63.275703,-116.80616 L 63.275703,-116.80616 z M 67.267891,-114.73194 L 67.267891,-118.88038 L 67.896797,-118.88038 L 67.896797,-118.29835 C 68.027004,-118.50147 68.200181,-118.66488 68.416328,-118.78858 C 68.632472,-118.91228 68.878566,-118.97412 69.15461,-118.97413 C 69.461899,-118.97412 69.713851,-118.91032 69.910469,-118.78272 C 70.10708,-118.65511 70.245752,-118.47673 70.326485,-118.24757 C 70.654606,-118.73194 71.081689,-118.97412 71.607735,-118.97413 C 72.019188,-118.97412 72.335594,-118.86019 72.556953,-118.63233 C 72.778302,-118.40446 72.888979,-118.05355 72.888985,-117.5796 L 72.888985,-114.73194 L 72.189766,-114.73194 L 72.189766,-117.34522 C 72.18976,-117.62647 72.166974,-117.82894 72.121407,-117.95264 C 72.075828,-118.07634 71.993146,-118.17595 71.87336,-118.25147 C 71.753563,-118.32699 71.612938,-118.36475 71.451485,-118.36475 C 71.159814,-118.36475 70.917626,-118.26774 70.724922,-118.07374 C 70.53221,-117.87972 70.435856,-117.56918 70.43586,-117.1421 L 70.43586,-114.73194 L 69.732735,-114.73194 L 69.732735,-117.42725 C 69.732732,-117.73975 69.67544,-117.97413 69.56086,-118.13038 C 69.446274,-118.28663 69.258774,-118.36475 68.99836,-118.36475 C 68.800441,-118.36475 68.617498,-118.31267 68.449532,-118.2085 C 68.281561,-118.10433 68.159817,-117.95199 68.084297,-117.75147 C 68.008775,-117.55095 67.971015,-117.26189 67.971016,-116.88428 L 67.971016,-114.73194 L 67.267891,-114.73194 z M 77.693672,-115.36085 L 77.795235,-114.73975 C 77.597316,-114.69809 77.420233,-114.67725 77.263985,-114.67725 C 77.008775,-114.67725 76.810859,-114.71762 76.670235,-114.79835 C 76.529609,-114.87908 76.430651,-114.9852 76.37336,-115.11671 C 76.316067,-115.24822 76.287422,-115.52491 76.287422,-115.94678 L 76.287422,-118.3335 L 75.771797,-118.3335 L 75.771797,-118.88038 L 76.287422,-118.88038 L 76.287422,-119.90772 L 76.986641,-120.3296 L 76.986641,-118.88038 L 77.693672,-118.88038 L 77.693672,-118.3335 L 76.986641,-118.3335 L 76.986641,-115.90772 C 76.98664,-115.7072 76.999009,-115.57829 77.02375,-115.521 C 77.048488,-115.46371 77.088853,-115.41814 77.144844,-115.38428 C 77.200832,-115.35043 77.28091,-115.3335 77.385078,-115.3335 C 77.463202,-115.3335 77.566066,-115.34262 77.693672,-115.36085 L 77.693672,-115.36085 z M 78.377266,-114.73194 L 78.377266,-120.4585 L 79.080391,-120.4585 L 79.080391,-118.40382 C 79.408514,-118.78402 79.822576,-118.97412 80.322578,-118.97413 C 80.629867,-118.97412 80.896794,-118.91358 81.12336,-118.79249 C 81.349919,-118.67139 81.512028,-118.50407 81.609688,-118.29053 C 81.70734,-118.07699 81.756168,-117.76709 81.756172,-117.36085 L 81.756172,-114.73194 L 81.053047,-114.73194 L 81.053047,-117.36085 C 81.053044,-117.71241 80.976872,-117.96827 80.824532,-118.12843 C 80.672185,-118.28858 80.45669,-118.36866 80.178047,-118.36866 C 79.969712,-118.36866 79.773748,-118.31462 79.590157,-118.20655 C 79.406561,-118.09847 79.275702,-117.95199 79.197578,-117.7671 C 79.119452,-117.5822 79.08039,-117.32699 79.080391,-117.00147 L 79.080391,-114.73194 L 78.377266,-114.73194 z M 85.670235,-116.06788 L 86.396797,-115.97803 C 86.28221,-115.55355 86.06997,-115.22413 85.760078,-114.98975 C 85.450179,-114.75538 85.054347,-114.63819 84.572578,-114.63819 C 83.965806,-114.63819 83.484687,-114.82504 83.129219,-115.19874 C 82.77375,-115.57244 82.596016,-116.09652 82.596016,-116.771 C 82.596016,-117.46892 82.775703,-118.01058 83.135078,-118.396 C 83.494452,-118.78142 83.960598,-118.97412 84.533516,-118.97413 C 85.088201,-118.97412 85.541325,-118.78532 85.892891,-118.40772 C 86.244449,-118.03012 86.420231,-117.49887 86.420235,-116.81397 C 86.420231,-116.7723 86.418928,-116.7098 86.416328,-116.62647 L 83.322578,-116.62647 C 83.348619,-116.17074 83.477525,-115.82178 83.709297,-115.5796 C 83.941066,-115.33741 84.230129,-115.21632 84.576485,-115.21632 C 84.834295,-115.21632 85.054347,-115.28402 85.236641,-115.41944 C 85.418929,-115.55486 85.563461,-115.771 85.670235,-116.06788 L 85.670235,-116.06788 z M 83.361641,-117.2046 L 85.678047,-117.2046 C 85.646794,-117.55355 85.558252,-117.81527 85.412422,-117.98975 C 85.188461,-118.26058 84.898097,-118.396 84.541328,-118.396 C 84.21841,-118.396 83.946926,-118.28793 83.726875,-118.07178 C 83.506822,-117.85564 83.385077,-117.56657 83.361641,-117.2046 L 83.361641,-117.2046 z M 92.271797,-116.97803 L 92.271797,-117.64991 L 94.697578,-117.65382 L 94.697578,-115.52882 C 94.325177,-115.23194 93.941063,-115.00863 93.545235,-114.85889 C 93.149397,-114.70915 92.743148,-114.63429 92.326485,-114.63428 C 91.763982,-114.63429 91.252915,-114.75473 90.793282,-114.99561 C 90.333645,-115.2365 89.98664,-115.5848 89.752266,-116.04053 C 89.51789,-116.49626 89.400703,-117.00538 89.400703,-117.56788 C 89.400703,-118.12517 89.517239,-118.64535 89.750313,-119.12843 C 89.983385,-119.61149 90.318671,-119.97022 90.756172,-120.2046 C 91.19367,-120.43897 91.697576,-120.55615 92.267891,-120.55616 C 92.68195,-120.55615 93.056298,-120.4891 93.390938,-120.35499 C 93.725568,-120.22087 93.987938,-120.03402 94.178047,-119.79444 C 94.368146,-119.55485 94.512677,-119.24235 94.611641,-118.85694 L 93.928047,-118.66944 C 93.842105,-118.9611 93.735334,-119.19027 93.607735,-119.35694 C 93.480126,-119.5236 93.297835,-119.65707 93.06086,-119.75733 C 92.823877,-119.85759 92.560856,-119.90772 92.271797,-119.90772 C 91.92544,-119.90772 91.625961,-119.85498 91.37336,-119.74952 C 91.120753,-119.64405 90.916978,-119.50537 90.762032,-119.3335 C 90.607082,-119.16162 90.486639,-118.97282 90.400703,-118.7671 C 90.254869,-118.41293 90.181952,-118.02881 90.181953,-117.61475 C 90.181952,-117.10433 90.269843,-116.67725 90.445625,-116.3335 C 90.621405,-115.98975 90.877264,-115.73454 91.213203,-115.56788 C 91.549138,-115.40121 91.905909,-115.31788 92.283516,-115.31788 C 92.611637,-115.31788 92.931949,-115.38103 93.244453,-115.50733 C 93.556949,-115.63363 93.793928,-115.7684 93.955391,-115.91163 L 93.955391,-116.97803 L 92.271797,-116.97803 z M 95.803047,-114.73194 L 95.803047,-120.4585 L 96.580391,-120.4585 L 99.588203,-115.96241 L 99.588203,-120.4585 L 100.31477,-120.4585 L 100.31477,-114.73194 L 99.537422,-114.73194 L 96.52961,-119.23194 L 96.52961,-114.73194 L 95.803047,-114.73194 z M 101.36164,-117.521 C 101.36164,-118.47152 101.61685,-119.21566 102.12727,-119.75343 C 102.63768,-120.29118 103.29653,-120.56006 104.10383,-120.56007 C 104.63247,-120.56006 105.10903,-120.43376 105.53352,-120.18116 C 105.95799,-119.92855 106.28156,-119.57634 106.50422,-119.12452 C 106.72687,-118.67269 106.8382,-118.16032 106.8382,-117.58741 C 106.8382,-117.00668 106.72101,-116.48715 106.48664,-116.02882 C 106.25226,-115.57048 105.92023,-115.22348 105.49055,-114.9878 C 105.06086,-114.75212 104.59731,-114.63429 104.09992,-114.63428 C 103.56086,-114.63429 103.07909,-114.76449 102.65461,-115.02491 C 102.23013,-115.28533 101.90851,-115.64079 101.68977,-116.09132 C 101.47102,-116.54184 101.36164,-117.0184 101.36164,-117.521 L 101.36164,-117.521 z M 102.14289,-117.50928 C 102.14289,-116.81918 102.32844,-116.27556 102.69953,-115.87843 C 103.07062,-115.48129 103.53612,-115.28272 104.09602,-115.28272 C 104.66632,-115.28272 105.13573,-115.48324 105.50422,-115.88428 C 105.8727,-116.28533 106.05695,-116.85433 106.05695,-117.59132 C 106.05695,-118.05746 105.97817,-118.46436 105.82063,-118.81202 C 105.66307,-119.15967 105.4326,-119.4292 105.12922,-119.62061 C 104.82583,-119.81201 104.48534,-119.90772 104.10773,-119.90772 C 103.57127,-119.90772 103.10969,-119.72347 102.72297,-119.35499 C 102.33625,-118.98649 102.14289,-118.37126 102.14289,-117.50928 L 102.14289,-117.50928 z M 107.78742,-114.73194 L 107.78742,-120.4585 L 108.92805,-120.4585 L 110.28352,-116.40382 C 110.40851,-116.02621 110.49966,-115.74366 110.55695,-115.55616 C 110.62205,-115.76449 110.72362,-116.07048 110.86164,-116.47413 L 112.23273,-120.4585 L 113.25227,-120.4585 L 113.25227,-114.73194 L 112.5218,-114.73194 L 112.5218,-119.52491 L 110.85773,-114.73194 L 110.17414,-114.73194 L 108.51789,-119.60694 L 108.51789,-114.73194 L 107.78742,-114.73194 z M 114.49836,-114.73194 L 114.49836,-120.4585 L 118.63898,-120.4585 L 118.63898,-119.78272 L 115.25617,-119.78272 L 115.25617,-118.02882 L 118.42414,-118.02882 L 118.42414,-117.35694 L 115.25617,-117.35694 L 115.25617,-115.40772 L 118.7718,-115.40772 L 118.7718,-114.73194 L 114.49836,-114.73194 z M 122.04523,-114.73194 L 122.04523,-120.4585 L 124.20539,-120.4585 C 124.5856,-120.4585 124.87596,-120.44027 125.07648,-120.40382 C 125.35773,-120.35694 125.59341,-120.26774 125.78352,-120.13624 C 125.97362,-120.00472 126.12661,-119.82048 126.2425,-119.5835 C 126.35838,-119.34652 126.41632,-119.0861 126.41633,-118.80225 C 126.41632,-118.31527 126.26138,-117.90316 125.95148,-117.56593 C 125.64158,-117.22868 125.08169,-117.06006 124.2718,-117.06007 L 122.80305,-117.06007 L 122.80305,-114.73194 L 122.04523,-114.73194 z M 122.80305,-117.73585 L 124.28352,-117.73585 C 124.7731,-117.73584 125.12075,-117.82699 125.32648,-118.00928 C 125.53221,-118.19157 125.63507,-118.44808 125.63508,-118.77882 C 125.63507,-119.0184 125.57453,-119.22347 125.45344,-119.39405 C 125.33234,-119.56462 125.17284,-119.67725 124.97492,-119.73194 C 124.84731,-119.76579 124.61164,-119.78272 124.26789,-119.78272 L 122.80305,-119.78272 L 122.80305,-117.73585 z M 127.29133,-114.73194 L 127.29133,-118.88038 L 127.92414,-118.88038 L 127.92414,-118.25147 C 128.0856,-118.54574 128.23469,-118.73975 128.37141,-118.8335 C 128.50812,-118.92725 128.65851,-118.97412 128.82258,-118.97413 C 129.05956,-118.97412 129.30044,-118.8986 129.54523,-118.74757 L 129.30305,-118.09522 C 129.13117,-118.19678 128.95929,-118.24756 128.78742,-118.24757 C 128.63377,-118.24756 128.49575,-118.20134 128.37336,-118.10889 C 128.25096,-118.01644 128.16372,-117.88819 128.11164,-117.72413 C 128.03351,-117.47413 127.99445,-117.20069 127.99445,-116.90382 L 127.99445,-114.73194 L 127.29133,-114.73194 z M 129.7093,-116.80616 C 129.7093,-117.57439 129.92284,-118.1434 130.34992,-118.51319 C 130.70669,-118.82048 131.14159,-118.97412 131.65461,-118.97413 C 132.22492,-118.97412 132.69106,-118.78728 133.05305,-118.41358 C 133.41502,-118.03988 133.59601,-117.52361 133.59602,-116.86475 C 133.59601,-116.3309 133.51593,-115.91098 133.35578,-115.60499 C 133.19562,-115.299 132.96255,-115.06137 132.65656,-114.8921 C 132.35057,-114.72283 132.01659,-114.63819 131.65461,-114.63819 C 131.07388,-114.63819 130.60448,-114.82439 130.24641,-115.19678 C 129.88833,-115.56918 129.7093,-116.10564 129.7093,-116.80616 L 129.7093,-116.80616 z M 130.43195,-116.80616 C 130.43195,-116.27491 130.54784,-115.87712 130.77961,-115.6128 C 131.01138,-115.34848 131.30305,-115.21632 131.65461,-115.21632 C 132.00357,-115.21632 132.29393,-115.34913 132.5257,-115.61475 C 132.75747,-115.88038 132.87336,-116.28533 132.87336,-116.8296 C 132.87336,-117.34262 132.75682,-117.73129 132.52375,-117.99561 C 132.29067,-118.25993 132.00096,-118.39209 131.65461,-118.3921 C 131.30305,-118.39209 131.01138,-118.26058 130.77961,-117.99757 C 130.54784,-117.73454 130.43195,-117.33741 130.43195,-116.80616 L 130.43195,-116.80616 z M 134.42023,-119.6421 L 134.42023,-120.4585 L 135.12336,-120.4585 L 135.12336,-119.6421 L 134.42023,-119.6421 z M 133.52961,-113.12257 L 133.66242,-113.72022 C 133.80305,-113.68377 133.91372,-113.66554 133.99445,-113.66553 C 134.13768,-113.66554 134.24445,-113.71306 134.31477,-113.80811 C 134.38508,-113.90317 134.42023,-114.1408 134.42023,-114.521 L 134.42023,-118.88038 L 135.12336,-118.88038 L 135.12336,-114.50538 C 135.12336,-113.99496 135.05695,-113.63949 134.92414,-113.43897 C 134.75487,-113.17856 134.47362,-113.04835 134.08039,-113.04835 C 133.89029,-113.04835 133.70669,-113.07309 133.52961,-113.12257 L 133.52961,-113.12257 z M 139.04523,-116.06788 L 139.7718,-115.97803 C 139.65721,-115.55355 139.44497,-115.22413 139.13508,-114.98975 C 138.82518,-114.75538 138.42935,-114.63819 137.94758,-114.63819 C 137.34081,-114.63819 136.85969,-114.82504 136.50422,-115.19874 C 136.14875,-115.57244 135.97102,-116.09652 135.97102,-116.771 C 135.97102,-117.46892 136.1507,-118.01058 136.51008,-118.396 C 136.86945,-118.78142 137.3356,-118.97412 137.90852,-118.97413 C 138.4632,-118.97412 138.91633,-118.78532 139.26789,-118.40772 C 139.61945,-118.03012 139.79523,-117.49887 139.79523,-116.81397 C 139.79523,-116.7723 139.79393,-116.7098 139.79133,-116.62647 L 136.69758,-116.62647 C 136.72362,-116.17074 136.85253,-115.82178 137.0843,-115.5796 C 137.31607,-115.33741 137.60513,-115.21632 137.95148,-115.21632 C 138.20929,-115.21632 138.42935,-115.28402 138.61164,-115.41944 C 138.79393,-115.55486 138.93846,-115.771 139.04523,-116.06788 L 139.04523,-116.06788 z M 136.73664,-117.2046 L 139.05305,-117.2046 C 139.02179,-117.55355 138.93325,-117.81527 138.78742,-117.98975 C 138.56346,-118.26058 138.2731,-118.396 137.91633,-118.396 C 137.59341,-118.396 137.32193,-118.28793 137.10188,-118.07178 C 136.88182,-117.85564 136.76008,-117.56657 136.73664,-117.2046 L 136.73664,-117.2046 z M 143.36555,-116.25147 L 144.05695,-116.16163 C 143.98143,-115.68507 143.78807,-115.31202 143.47688,-115.04249 C 143.16567,-114.77296 142.78351,-114.63819 142.33039,-114.63819 C 141.76268,-114.63819 141.3063,-114.82374 140.96125,-115.19483 C 140.6162,-115.56592 140.44367,-116.09783 140.44367,-116.79053 C 140.44367,-117.23845 140.51789,-117.63038 140.66633,-117.96632 C 140.81477,-118.30225 141.04068,-118.5542 141.34406,-118.72218 C 141.64745,-118.89014 141.97752,-118.97412 142.3343,-118.97413 C 142.78482,-118.97412 143.1533,-118.86019 143.43977,-118.63233 C 143.72622,-118.40446 143.90981,-118.0809 143.99055,-117.66163 L 143.30695,-117.55616 C 143.24185,-117.8348 143.12661,-118.04444 142.96125,-118.18507 C 142.79588,-118.32569 142.59601,-118.396 142.36164,-118.396 C 142.00747,-118.396 141.71971,-118.26905 141.49836,-118.01514 C 141.277,-117.76124 141.16633,-117.35954 141.16633,-116.81007 C 141.16633,-116.25277 141.2731,-115.84783 141.48664,-115.59522 C 141.70018,-115.34262 141.97883,-115.21632 142.32258,-115.21632 C 142.59862,-115.21632 142.82909,-115.30095 143.01398,-115.47022 C 143.19888,-115.63949 143.31606,-115.89991 143.36555,-116.25147 L 143.36555,-116.25147 z M 146.19367,-115.36085 L 146.29523,-114.73975 C 146.09732,-114.69809 145.92023,-114.67725 145.76398,-114.67725 C 145.50877,-114.67725 145.31086,-114.71762 145.17023,-114.79835 C 145.02961,-114.87908 144.93065,-114.9852 144.87336,-115.11671 C 144.81607,-115.24822 144.78742,-115.52491 144.78742,-115.94678 L 144.78742,-118.3335 L 144.2718,-118.3335 L 144.2718,-118.88038 L 144.78742,-118.88038 L 144.78742,-119.90772 L 145.48664,-120.3296 L 145.48664,-118.88038 L 146.19367,-118.88038 L 146.19367,-118.3335 L 145.48664,-118.3335 L 145.48664,-115.90772 C 145.48664,-115.7072 145.49901,-115.57829 145.52375,-115.521 C 145.54849,-115.46371 145.58885,-115.41814 145.64484,-115.38428 C 145.70083,-115.35043 145.78091,-115.3335 145.88508,-115.3335 C 145.9632,-115.3335 146.06607,-115.34262 146.19367,-115.36085 L 146.19367,-115.36085 z M 40.412422,-108.57178 L 41.127266,-108.63428 C 41.161119,-108.34783 41.239895,-108.1128 41.363594,-107.92921 C 41.487291,-107.74561 41.679348,-107.59717 41.939766,-107.48389 C 42.20018,-107.37061 42.493149,-107.31397 42.818672,-107.31397 C 43.107732,-107.31397 43.36294,-107.35694 43.584297,-107.44288 C 43.805648,-107.52882 43.970361,-107.64665 44.078438,-107.79639 C 44.186507,-107.94613 44.240543,-108.10954 44.240547,-108.28663 C 44.240543,-108.46631 44.18846,-108.62322 44.084297,-108.75733 C 43.980127,-108.89144 43.808252,-109.00407 43.568672,-109.09522 C 43.415023,-109.15512 43.07518,-109.24821 42.549141,-109.37452 C 42.023097,-109.50082 41.654608,-109.61996 41.443672,-109.73194 C 41.170234,-109.87517 40.966458,-110.0529 40.832344,-110.26514 C 40.698229,-110.47738 40.631172,-110.71501 40.631172,-110.97803 C 40.631172,-111.26709 40.713203,-111.53727 40.877266,-111.78858 C 41.041327,-112.03988 41.280911,-112.23063 41.596016,-112.36085 C 41.911118,-112.49105 42.261378,-112.55615 42.646797,-112.55616 C 43.071273,-112.55615 43.445622,-112.48779 43.769844,-112.35108 C 44.094059,-112.21436 44.343407,-112.01319 44.517891,-111.74757 C 44.692365,-111.48194 44.786115,-111.18116 44.799141,-110.84522 L 44.072578,-110.79053 C 44.033512,-111.15251 43.901351,-111.42595 43.676094,-111.61085 C 43.45083,-111.79574 43.118148,-111.88819 42.678047,-111.88819 C 42.219712,-111.88819 41.885728,-111.8042 41.676094,-111.63624 C 41.466457,-111.46826 41.36164,-111.26579 41.361641,-111.02882 C 41.36164,-110.82308 41.435858,-110.65381 41.584297,-110.521 C 41.730129,-110.38819 42.110988,-110.25212 42.726875,-110.1128 C 43.342757,-109.97347 43.765283,-109.85173 43.994453,-109.74757 C 44.327782,-109.59392 44.573876,-109.39926 44.732735,-109.16358 C 44.891584,-108.9279 44.971011,-108.65642 44.971016,-108.34913 C 44.971011,-108.04444 44.883772,-107.75733 44.709297,-107.4878 C 44.534814,-107.21827 44.284163,-107.00863 43.957344,-106.85889 C 43.630518,-106.70915 43.262679,-106.63429 42.853828,-106.63428 C 42.335597,-106.63429 41.901353,-106.70981 41.551094,-106.86085 C 41.200832,-107.01189 40.926093,-107.2391 40.726875,-107.54249 C 40.527656,-107.84587 40.422838,-108.18897 40.412422,-108.57178 L 40.412422,-108.57178 z M 47.650703,-106.73194 L 45.431953,-112.4585 L 46.252266,-112.4585 L 47.740547,-108.29835 C 47.860336,-107.96501 47.960597,-107.65251 48.041328,-107.36085 C 48.129867,-107.67335 48.232732,-107.98585 48.349922,-108.29835 L 49.896797,-112.4585 L 50.670235,-112.4585 L 48.428047,-106.73194 L 47.650703,-106.73194 z M 54.037422,-108.97803 L 54.037422,-109.64991 L 56.463203,-109.65382 L 56.463203,-107.52882 C 56.090802,-107.23194 55.706688,-107.00863 55.31086,-106.85889 C 54.915022,-106.70915 54.508773,-106.63429 54.09211,-106.63428 C 53.529607,-106.63429 53.01854,-106.75473 52.558907,-106.99561 C 52.09927,-107.2365 51.752265,-107.5848 51.517891,-108.04053 C 51.283515,-108.49626 51.166328,-109.00538 51.166328,-109.56788 C 51.166328,-110.12517 51.282864,-110.64535 51.515938,-111.12843 C 51.74901,-111.61149 52.084296,-111.97022 52.521797,-112.2046 C 52.959295,-112.43897 53.463201,-112.55615 54.033516,-112.55616 C 54.447575,-112.55615 54.821923,-112.4891 55.156563,-112.35499 C 55.491193,-112.22087 55.753563,-112.03402 55.943672,-111.79444 C 56.133771,-111.55485 56.278302,-111.24235 56.377266,-110.85694 L 55.693672,-110.66944 C 55.60773,-110.9611 55.500959,-111.19027 55.37336,-111.35694 C 55.245751,-111.5236 55.06346,-111.65707 54.826485,-111.75733 C 54.589502,-111.85759 54.326481,-111.90772 54.037422,-111.90772 C 53.691065,-111.90772 53.391586,-111.85498 53.138985,-111.74952 C 52.886378,-111.64405 52.682603,-111.50537 52.527657,-111.3335 C 52.372707,-111.16162 52.252264,-110.97282 52.166328,-110.7671 C 52.020494,-110.41293 51.947577,-110.02881 51.947578,-109.61475 C 51.947577,-109.10433 52.035468,-108.67725 52.21125,-108.3335 C 52.38703,-107.98975 52.642889,-107.73454 52.978828,-107.56788 C 53.314763,-107.40121 53.671534,-107.31788 54.049141,-107.31788 C 54.377262,-107.31788 54.697574,-107.38103 55.010078,-107.50733 C 55.322574,-107.63363 55.559553,-107.7684 55.721016,-107.91163 L 55.721016,-108.97803 L 54.037422,-108.97803 z M 57.213203,-108.45069 L 57.213203,-109.15772 L 59.37336,-109.15772 L 59.37336,-108.45069 L 57.213203,-108.45069 z M 60.162422,-111.64991 L 60.162422,-112.4585 L 60.865547,-112.4585 L 60.865547,-111.64991 L 60.162422,-111.64991 z M 60.162422,-106.73194 L 60.162422,-110.88038 L 60.865547,-110.88038 L 60.865547,-106.73194 L 60.162422,-106.73194 z M 62.107735,-106.73194 L 62.107735,-110.3335 L 61.486641,-110.3335 L 61.486641,-110.88038 L 62.107735,-110.88038 L 62.107735,-111.32178 C 62.107734,-111.60043 62.132474,-111.80746 62.181953,-111.94288 C 62.249661,-112.12516 62.368801,-112.27295 62.539375,-112.38624 C 62.709947,-112.49951 62.948879,-112.55615 63.256172,-112.55616 C 63.454087,-112.55615 63.672837,-112.53272 63.912422,-112.48585 L 63.806953,-111.87257 C 63.661118,-111.8986 63.523097,-111.91162 63.392891,-111.91163 C 63.179347,-111.91162 63.028306,-111.86605 62.939766,-111.77491 C 62.851223,-111.68376 62.806952,-111.51319 62.806953,-111.26319 L 62.806953,-110.88038 L 63.615547,-110.88038 L 63.615547,-110.3335 L 62.806953,-110.3335 L 62.806953,-106.73194 L 62.107735,-106.73194 z M 64.162422,-111.64991 L 64.162422,-112.4585 L 64.865547,-112.4585 L 64.865547,-111.64991 L 64.162422,-111.64991 z M 64.162422,-106.73194 L 64.162422,-110.88038 L 64.865547,-110.88038 L 64.865547,-106.73194 L 64.162422,-106.73194 z M 68.77961,-108.06788 L 69.506172,-107.97803 C 69.391585,-107.55355 69.179345,-107.22413 68.869453,-106.98975 C 68.559554,-106.75538 68.163722,-106.63819 67.681953,-106.63819 C 67.075181,-106.63819 66.594062,-106.82504 66.238594,-107.19874 C 65.883125,-107.57244 65.705391,-108.09652 65.705391,-108.771 C 65.705391,-109.46892 65.885078,-110.01058 66.244453,-110.396 C 66.603827,-110.78142 67.069973,-110.97412 67.642891,-110.97413 C 68.197576,-110.97412 68.6507,-110.78532 69.002266,-110.40772 C 69.353824,-110.03012 69.529606,-109.49887 69.52961,-108.81397 C 69.529606,-108.7723 69.528303,-108.7098 69.525703,-108.62647 L 66.431953,-108.62647 C 66.457994,-108.17074 66.5869,-107.82178 66.818672,-107.5796 C 67.050441,-107.33741 67.339504,-107.21632 67.68586,-107.21632 C 67.94367,-107.21632 68.163722,-107.28402 68.346016,-107.41944 C 68.528304,-107.55486 68.672836,-107.771 68.77961,-108.06788 L 68.77961,-108.06788 z M 66.471016,-109.2046 L 68.787422,-109.2046 C 68.756169,-109.55355 68.667627,-109.81527 68.521797,-109.98975 C 68.297836,-110.26058 68.007472,-110.396 67.650703,-110.396 C 67.327785,-110.396 67.056301,-110.28793 66.83625,-110.07178 C 66.616197,-109.85564 66.494452,-109.56657 66.471016,-109.2046 L 66.471016,-109.2046 z M 73.084297,-106.73194 L 73.084297,-107.25538 C 72.821273,-106.84392 72.434555,-106.63819 71.924141,-106.63819 C 71.59341,-106.63819 71.289374,-106.72934 71.012032,-106.91163 C 70.734687,-107.09392 70.519843,-107.34848 70.3675,-107.6753 C 70.215156,-108.00212 70.138984,-108.37777 70.138985,-108.80225 C 70.138984,-109.21631 70.207995,-109.59196 70.346016,-109.92921 C 70.484036,-110.26644 70.691067,-110.52491 70.96711,-110.7046 C 71.24315,-110.88428 71.551743,-110.97412 71.892891,-110.97413 C 72.142889,-110.97412 72.365545,-110.92139 72.56086,-110.81593 C 72.756169,-110.71045 72.915023,-110.57308 73.037422,-110.40382 L 73.037422,-112.4585 L 73.736641,-112.4585 L 73.736641,-106.73194 L 73.084297,-106.73194 z M 70.861641,-108.80225 C 70.86164,-108.271 70.973619,-107.87387 71.197578,-107.61085 C 71.421535,-107.34783 71.685858,-107.21632 71.990547,-107.21632 C 72.297836,-107.21632 72.558904,-107.34197 72.77375,-107.59327 C 72.988591,-107.84457 73.096013,-108.22803 73.096016,-108.74366 C 73.096013,-109.31137 72.986638,-109.72803 72.767891,-109.99366 C 72.549138,-110.25928 72.279607,-110.39209 71.959297,-110.3921 C 71.646795,-110.39209 71.385728,-110.26449 71.176094,-110.00928 C 70.966458,-109.75407 70.86164,-109.35173 70.861641,-108.80225 L 70.861641,-108.80225 z M 77.713203,-106.73194 L 77.06086,-106.73194 L 77.06086,-112.4585 L 77.763985,-112.4585 L 77.763985,-110.41553 C 78.060858,-110.78793 78.439764,-110.97412 78.900703,-110.97413 C 79.155909,-110.97412 79.397445,-110.92269 79.625313,-110.81983 C 79.853174,-110.71696 80.040674,-110.57243 80.187813,-110.38624 C 80.334944,-110.20004 80.450179,-109.97543 80.533516,-109.71241 C 80.616845,-109.44939 80.658512,-109.16814 80.658516,-108.86866 C 80.658512,-108.15772 80.482731,-107.60824 80.131172,-107.22022 C 79.779606,-106.8322 79.357732,-106.63819 78.865547,-106.63819 C 78.375962,-106.63819 77.991848,-106.84262 77.713203,-107.25147 L 77.713203,-106.73194 z M 77.705391,-108.83741 C 77.70539,-108.34001 77.773098,-107.98064 77.908516,-107.75928 C 78.129869,-107.39731 78.429347,-107.21632 78.806953,-107.21632 C 79.114243,-107.21632 79.379867,-107.34978 79.603828,-107.61671 C 79.827783,-107.88363 79.939763,-108.28142 79.939766,-108.81007 C 79.939763,-109.35173 79.832341,-109.75147 79.6175,-110.00928 C 79.402654,-110.26709 79.142888,-110.396 78.838203,-110.396 C 78.53091,-110.396 78.265285,-110.26254 78.041328,-109.99561 C 77.817369,-109.72868 77.70539,-109.34262 77.705391,-108.83741 L 77.705391,-108.83741 z M 81.486641,-105.13428 L 81.408516,-105.79444 C 81.562161,-105.75278 81.696276,-105.73194 81.81086,-105.73194 C 81.967109,-105.73194 82.092109,-105.75798 82.18586,-105.81007 C 82.279608,-105.86215 82.356431,-105.93507 82.416328,-106.02882 C 82.460598,-106.09913 82.532212,-106.27361 82.631172,-106.55225 C 82.644191,-106.59132 82.665025,-106.64861 82.693672,-106.72413 L 81.119453,-110.88038 L 81.877266,-110.88038 L 82.740547,-108.47803 C 82.852524,-108.17335 82.952785,-107.85303 83.041328,-107.5171 C 83.122055,-107.84001 83.21841,-108.15512 83.330391,-108.46241 L 84.21711,-110.88038 L 84.920235,-110.88038 L 83.34211,-106.66163 C 83.172837,-106.2059 83.041326,-105.8921 82.947578,-105.72022 C 82.822577,-105.48845 82.679348,-105.31853 82.517891,-105.21046 C 82.356431,-105.10239 82.163723,-105.04835 81.939766,-105.04835 C 81.804348,-105.04835 81.653307,-105.07699 81.486641,-105.13428 L 81.486641,-105.13428 z M 87.197578,-106.73194 L 89.396797,-112.4585 L 90.213203,-112.4585 L 92.556953,-106.73194 L 91.693672,-106.73194 L 91.025703,-108.46632 L 88.631172,-108.46632 L 88.002266,-106.73194 L 87.197578,-106.73194 z M 88.849922,-109.0835 L 90.791328,-109.0835 L 90.193672,-110.66944 C 90.011378,-111.15121 89.875961,-111.54704 89.787422,-111.85694 C 89.714503,-111.48975 89.611639,-111.12517 89.478828,-110.76319 L 88.849922,-109.0835 z M 93.080391,-106.73194 L 93.080391,-110.88038 L 93.713203,-110.88038 L 93.713203,-110.29053 C 94.017889,-110.74626 94.457993,-110.97412 95.033516,-110.97413 C 95.283513,-110.97412 95.513331,-110.9292 95.722969,-110.83936 C 95.932601,-110.74952 96.089502,-110.63168 96.193672,-110.48585 C 96.297835,-110.34001 96.370752,-110.16683 96.412422,-109.96632 C 96.43846,-109.8361 96.451481,-109.60824 96.451485,-109.28272 L 96.451485,-106.73194 L 95.74836,-106.73194 L 95.74836,-109.25538 C 95.748356,-109.54183 95.721013,-109.75603 95.666328,-109.89796 C 95.611638,-110.03988 95.514633,-110.15316 95.375313,-110.2378 C 95.235987,-110.32243 95.072576,-110.36475 94.885078,-110.36475 C 94.585597,-110.36475 94.327134,-110.2697 94.109688,-110.0796 C 93.892239,-109.88949 93.783515,-109.52881 93.783516,-108.99757 L 93.783516,-106.73194 L 93.080391,-106.73194 z M 100.22492,-106.73194 L 100.22492,-107.25538 C 99.961898,-106.84392 99.57518,-106.63819 99.064766,-106.63819 C 98.734035,-106.63819 98.429999,-106.72934 98.152657,-106.91163 C 97.875312,-107.09392 97.660468,-107.34848 97.508125,-107.6753 C 97.355781,-108.00212 97.279609,-108.37777 97.27961,-108.80225 C 97.279609,-109.21631 97.34862,-109.59196 97.486641,-109.92921 C 97.624661,-110.26644 97.831692,-110.52491 98.107735,-110.7046 C 98.383775,-110.88428 98.692368,-110.97412 99.033516,-110.97413 C 99.283514,-110.97412 99.50617,-110.92139 99.701485,-110.81593 C 99.896794,-110.71045 100.05565,-110.57308 100.17805,-110.40382 L 100.17805,-112.4585 L 100.87727,-112.4585 L 100.87727,-106.73194 L 100.22492,-106.73194 z M 98.002266,-108.80225 C 98.002265,-108.271 98.114244,-107.87387 98.338203,-107.61085 C 98.56216,-107.34783 98.826483,-107.21632 99.131172,-107.21632 C 99.438461,-107.21632 99.699529,-107.34197 99.914375,-107.59327 C 100.12922,-107.84457 100.23664,-108.22803 100.23664,-108.74366 C 100.23664,-109.31137 100.12726,-109.72803 99.908516,-109.99366 C 99.689763,-110.25928 99.420232,-110.39209 99.099922,-110.3921 C 98.78742,-110.39209 98.526353,-110.26449 98.316719,-110.00928 C 98.107083,-109.75407 98.002265,-109.35173 98.002266,-108.80225 L 98.002266,-108.80225 z M 101.97883,-106.73194 L 101.97883,-110.88038 L 102.61164,-110.88038 L 102.61164,-110.25147 C 102.7731,-110.54574 102.92219,-110.73975 103.05891,-110.8335 C 103.19562,-110.92725 103.34601,-110.97412 103.51008,-110.97413 C 103.74706,-110.97412 103.98794,-110.8986 104.23273,-110.74757 L 103.99055,-110.09522 C 103.81867,-110.19678 103.64679,-110.24756 103.47492,-110.24757 C 103.32127,-110.24756 103.18325,-110.20134 103.06086,-110.10889 C 102.93846,-110.01644 102.85122,-109.88819 102.79914,-109.72413 C 102.72101,-109.47413 102.68195,-109.20069 102.68195,-108.90382 L 102.68195,-106.73194 L 101.97883,-106.73194 z M 107.49836,-108.06788 L 108.22492,-107.97803 C 108.11033,-107.55355 107.8981,-107.22413 107.5882,-106.98975 C 107.2783,-106.75538 106.88247,-106.63819 106.4007,-106.63819 C 105.79393,-106.63819 105.31281,-106.82504 104.95734,-107.19874 C 104.60187,-107.57244 104.42414,-108.09652 104.42414,-108.771 C 104.42414,-109.46892 104.60383,-110.01058 104.9632,-110.396 C 105.32258,-110.78142 105.78872,-110.97412 106.36164,-110.97413 C 106.91633,-110.97412 107.36945,-110.78532 107.72102,-110.40772 C 108.07257,-110.03012 108.24836,-109.49887 108.24836,-108.81397 C 108.24836,-108.7723 108.24705,-108.7098 108.24445,-108.62647 L 105.1507,-108.62647 C 105.17674,-108.17074 105.30565,-107.82178 105.53742,-107.5796 C 105.76919,-107.33741 106.05825,-107.21632 106.40461,-107.21632 C 106.66242,-107.21632 106.88247,-107.28402 107.06477,-107.41944 C 107.24705,-107.55486 107.39159,-107.771 107.49836,-108.06788 L 107.49836,-108.06788 z M 105.18977,-109.2046 L 107.50617,-109.2046 C 107.47492,-109.55355 107.38638,-109.81527 107.24055,-109.98975 C 107.01659,-110.26058 106.72622,-110.396 106.36945,-110.396 C 106.04653,-110.396 105.77505,-110.28793 105.555,-110.07178 C 105.33495,-109.85564 105.2132,-109.56657 105.18977,-109.2046 L 105.18977,-109.2046 z M 109.87727,-106.73194 L 108.60773,-110.88038 L 109.3343,-110.88038 L 109.99445,-108.48585 L 110.24055,-107.59522 C 110.25096,-107.63949 110.32258,-107.92465 110.45539,-108.45069 L 111.11555,-110.88038 L 111.8382,-110.88038 L 112.4593,-108.47413 L 112.66633,-107.68116 L 112.90461,-108.48194 L 113.61555,-110.88038 L 114.29914,-110.88038 L 113.00227,-106.73194 L 112.2718,-106.73194 L 111.61164,-109.21632 L 111.45148,-109.92335 L 110.61164,-106.73194 L 109.87727,-106.73194 z M 117.24055,-106.73194 L 117.24055,-112.4585 L 121.10383,-112.4585 L 121.10383,-111.78272 L 117.99836,-111.78272 L 117.99836,-110.00928 L 120.68586,-110.00928 L 120.68586,-109.3335 L 117.99836,-109.3335 L 117.99836,-106.73194 L 117.24055,-106.73194 z M 122.00617,-111.64991 L 122.00617,-112.4585 L 122.7093,-112.4585 L 122.7093,-111.64991 L 122.00617,-111.64991 z M 122.00617,-106.73194 L 122.00617,-110.88038 L 122.7093,-110.88038 L 122.7093,-106.73194 L 122.00617,-106.73194 z M 125.31867,-107.36085 L 125.42023,-106.73975 C 125.22232,-106.69809 125.04523,-106.67725 124.88898,-106.67725 C 124.63377,-106.67725 124.43586,-106.71762 124.29523,-106.79835 C 124.15461,-106.87908 124.05565,-106.9852 123.99836,-107.11671 C 123.94107,-107.24822 123.91242,-107.52491 123.91242,-107.94678 L 123.91242,-110.3335 L 123.3968,-110.3335 L 123.3968,-110.88038 L 123.91242,-110.88038 L 123.91242,-111.90772 L 124.61164,-112.3296 L 124.61164,-110.88038 L 125.31867,-110.88038 L 125.31867,-110.3335 L 124.61164,-110.3335 L 124.61164,-107.90772 C 124.61164,-107.7072 124.62401,-107.57829 124.64875,-107.521 C 124.67349,-107.46371 124.71385,-107.41814 124.76984,-107.38428 C 124.82583,-107.35043 124.90591,-107.3335 125.01008,-107.3335 C 125.0882,-107.3335 125.19107,-107.34262 125.31867,-107.36085 L 125.31867,-107.36085 z M 125.63117,-106.73194 L 125.63117,-107.30225 L 128.2718,-110.3335 C 127.97232,-110.31788 127.70799,-110.31006 127.47883,-110.31007 L 125.78742,-110.31007 L 125.78742,-110.88038 L 129.17805,-110.88038 L 129.17805,-110.41553 L 126.93195,-107.78272 L 126.49836,-107.30225 C 126.81346,-107.32569 127.10904,-107.33741 127.38508,-107.33741 L 129.30305,-107.33741 L 129.30305,-106.73194 L 125.63117,-106.73194 z M 129.72102,-107.97022 L 130.41633,-108.0796 C 130.45539,-107.80095 130.56411,-107.58741 130.7425,-107.43897 C 130.92088,-107.29053 131.17023,-107.21632 131.49055,-107.21632 C 131.81346,-107.21632 132.05304,-107.28207 132.2093,-107.41358 C 132.36554,-107.54509 132.44367,-107.69939 132.44367,-107.87647 C 132.44367,-108.03533 132.37466,-108.16033 132.23664,-108.25147 C 132.14028,-108.31397 131.9007,-108.3934 131.51789,-108.48975 C 131.00226,-108.61996 130.64484,-108.73259 130.44563,-108.82764 C 130.24641,-108.92269 130.09536,-109.0542 129.9925,-109.22218 C 129.88964,-109.39014 129.8382,-109.57569 129.8382,-109.77882 C 129.8382,-109.96371 129.88052,-110.13493 129.96516,-110.29249 C 130.04979,-110.45004 130.16503,-110.5809 130.31086,-110.68507 C 130.42023,-110.76579 130.56932,-110.83415 130.75813,-110.89014 C 130.94693,-110.94613 131.1494,-110.97412 131.36555,-110.97413 C 131.69107,-110.97412 131.97687,-110.92725 132.22297,-110.8335 C 132.46906,-110.73975 132.6507,-110.6128 132.76789,-110.45264 C 132.88508,-110.29248 132.9658,-110.07829 133.01008,-109.81007 L 132.32258,-109.71632 C 132.29133,-109.92985 132.20083,-110.09652 132.05109,-110.21632 C 131.90135,-110.3361 131.68976,-110.396 131.41633,-110.396 C 131.09341,-110.396 130.86294,-110.34261 130.72492,-110.23585 C 130.5869,-110.12907 130.51789,-110.00407 130.51789,-109.86085 C 130.51789,-109.7697 130.54654,-109.68767 130.60383,-109.61475 C 130.66112,-109.53923 130.75096,-109.47673 130.87336,-109.42725 C 130.94367,-109.40121 131.1507,-109.34131 131.49445,-109.24757 C 131.99185,-109.11475 132.33885,-109.00603 132.53547,-108.92139 C 132.73208,-108.83676 132.88638,-108.71371 132.99836,-108.55225 C 133.11034,-108.39079 133.16632,-108.19027 133.16633,-107.95069 C 133.16632,-107.71632 133.09797,-107.49561 132.96125,-107.28858 C 132.82453,-107.08155 132.62726,-106.92139 132.36945,-106.80811 C 132.11164,-106.69483 131.81997,-106.63819 131.49445,-106.63819 C 130.95539,-106.63819 130.54458,-106.75017 130.26203,-106.97413 C 129.97948,-107.19809 129.79914,-107.53012 129.72102,-107.97022 L 129.72102,-107.97022 z M 134.00617,-111.64991 L 134.00617,-112.4585 L 134.7093,-112.4585 L 134.7093,-111.64991 L 134.00617,-111.64991 z M 134.00617,-106.73194 L 134.00617,-110.88038 L 134.7093,-110.88038 L 134.7093,-106.73194 L 134.00617,-106.73194 z M 135.78352,-106.73194 L 135.78352,-110.88038 L 136.41242,-110.88038 L 136.41242,-110.29835 C 136.54263,-110.50147 136.71581,-110.66488 136.93195,-110.78858 C 137.1481,-110.91228 137.39419,-110.97412 137.67023,-110.97413 C 137.97752,-110.97412 138.22948,-110.91032 138.42609,-110.78272 C 138.62271,-110.65511 138.76138,-110.47673 138.84211,-110.24757 C 139.17023,-110.73194 139.59731,-110.97412 140.12336,-110.97413 C 140.53481,-110.97412 140.85122,-110.86019 141.07258,-110.63233 C 141.29393,-110.40446 141.4046,-110.05355 141.40461,-109.5796 L 141.40461,-106.73194 L 140.70539,-106.73194 L 140.70539,-109.34522 C 140.70539,-109.62647 140.6826,-109.82894 140.63703,-109.95264 C 140.59145,-110.07634 140.50877,-110.17595 140.38898,-110.25147 C 140.26919,-110.32699 140.12856,-110.36475 139.96711,-110.36475 C 139.67544,-110.36475 139.43325,-110.26774 139.24055,-110.07374 C 139.04784,-109.87972 138.95148,-109.56918 138.95148,-109.1421 L 138.95148,-106.73194 L 138.24836,-106.73194 L 138.24836,-109.42725 C 138.24836,-109.73975 138.19107,-109.97413 138.07648,-110.13038 C 137.9619,-110.28663 137.7744,-110.36475 137.51398,-110.36475 C 137.31607,-110.36475 137.13312,-110.31267 136.96516,-110.2085 C 136.79719,-110.10433 136.67544,-109.95199 136.59992,-109.75147 C 136.5244,-109.55095 136.48664,-109.26189 136.48664,-108.88428 L 136.48664,-106.73194 L 135.78352,-106.73194 z M 142.19367,-108.80616 C 142.19367,-109.57439 142.40721,-110.1434 142.8343,-110.51319 C 143.19107,-110.82048 143.62596,-110.97412 144.13898,-110.97413 C 144.70929,-110.97412 145.17544,-110.78728 145.53742,-110.41358 C 145.8994,-110.03988 146.08039,-109.52361 146.08039,-108.86475 C 146.08039,-108.3309 146.00031,-107.91098 145.84016,-107.60499 C 145.68,-107.299 145.44692,-107.06137 145.14094,-106.8921 C 144.83495,-106.72283 144.50096,-106.63819 144.13898,-106.63819 C 143.55825,-106.63819 143.08885,-106.82439 142.73078,-107.19678 C 142.37271,-107.56918 142.19367,-108.10564 142.19367,-108.80616 L 142.19367,-108.80616 z M 142.91633,-108.80616 C 142.91633,-108.27491 143.03221,-107.87712 143.26398,-107.6128 C 143.49575,-107.34848 143.78742,-107.21632 144.13898,-107.21632 C 144.48794,-107.21632 144.7783,-107.34913 145.01008,-107.61475 C 145.24185,-107.88038 145.35773,-108.28533 145.35773,-108.8296 C 145.35773,-109.34262 145.24119,-109.73129 145.00813,-109.99561 C 144.77505,-110.25993 144.48534,-110.39209 144.13898,-110.3921 C 143.78742,-110.39209 143.49575,-110.26058 143.26398,-109.99757 C 143.03221,-109.73454 142.91633,-109.33741 142.91633,-108.80616 L 142.91633,-108.80616 z M 146.90852,-106.73194 L 146.90852,-110.88038 L 147.54133,-110.88038 L 147.54133,-110.29053 C 147.84601,-110.74626 148.28612,-110.97412 148.86164,-110.97413 C 149.11164,-110.97412 149.34146,-110.9292 149.55109,-110.83936 C 149.76073,-110.74952 149.91763,-110.63168 150.0218,-110.48585 C 150.12596,-110.34001 150.19888,-110.16683 150.24055,-109.96632 C 150.26658,-109.8361 150.27961,-109.60824 150.27961,-109.28272 L 150.27961,-106.73194 L 149.57648,-106.73194 L 149.57648,-109.25538 C 149.57648,-109.54183 149.54914,-109.75603 149.49445,-109.89796 C 149.43976,-110.03988 149.34276,-110.15316 149.20344,-110.2378 C 149.06411,-110.32243 148.9007,-110.36475 148.7132,-110.36475 C 148.41372,-110.36475 148.15526,-110.2697 147.93781,-110.0796 C 147.72036,-109.88949 147.61164,-109.52881 147.61164,-108.99757 L 147.61164,-106.73194 L 146.90852,-106.73194 z"
     id="text893" />
  <g
     id="g1701"
     transform="matrix(1.140857,0.000000,0.000000,1.140857,-2.835271,-14.49594)">
    <g
       id="g1076"
       style="fill-opacity:0.049999956;"
       transform="matrix(2.949899,0.000000,0.000000,2.896989,93.90972,139.1797)">
      <path
         d="M -10.179275,-41.156546 L -9.9247931,-17.744213 L 13.487540,-17.235249 L 13.487540,-41.156546 L -10.179275,-41.156546 z M -27.229561,-24.106260 L -20.613032,-2.2208190 L 2.2903367,-8.8373470 L -5.0896373,-31.231753 L -27.229561,-24.106260 z "
         id="path1053"
         style="stroke-width:1.0000000pt;" />
      <path
         d="M -10.562500,-41.437500 C -10.522877,-37.583322 -10.478826,-33.729169 -10.437500,-29.875000 C -16.197793,-28.030871 -21.959073,-26.189765 -27.718750,-24.343750 C -25.431290,-16.804056 -23.162461,-9.2584435 -20.875000,-1.7187500 C -12.992276,-4.0190560 -5.1014736,-6.2934428 2.7812500,-8.5937500 C 1.8231233,-11.458402 0.86454894,-14.322905 -0.093750000,-17.187500 C 4.5625080,-17.084041 9.2187024,-16.974939 13.875000,-16.875000 C 13.875000,-25.093750 13.875000,-33.312500 13.875000,-41.531250 C 5.7291667,-41.531250 -2.4166667,-41.531250 -10.562500,-41.531250 L -10.562500,-41.437500 z "
         id="path1058"
         style="stroke-width:1.0000000pt;" />
      <path
         d="M -10.875000,-41.875000 C -10.835354,-37.979156 -10.791330,-34.083335 -10.750000,-30.187500 C -16.551939,-28.343306 -22.355033,-26.502660 -28.156250,-24.656250 C -25.785660,-16.866495 -23.433091,-9.0710050 -21.062500,-1.2812500 C -12.929696,-3.6646147 -4.7890539,-6.0228851 3.3437500,-8.4062500 C 2.3864628,-11.229519 1.4269092,-14.052025 0.46875000,-16.875000 C 5.0833415,-16.771549 9.6978682,-16.662399 14.312500,-16.562500 C 14.312500,-25.031250 14.312500,-33.500000 14.312500,-41.968750 C 5.9166667,-41.968750 -2.4791667,-41.968750 -10.875000,-41.968750 L -10.875000,-41.875000 z "
         id="path1063"
         style="stroke-width:1.0000000pt;" />
      <path
         d="M -11.187500,-42.312500 C -11.147833,-38.374989 -11.103834,-34.437502 -11.062500,-30.500000 C -16.906085,-28.655741 -22.750989,-26.815550 -28.593750,-24.968750 C -26.140019,-16.928936 -23.703731,-8.8835636 -21.250000,-0.84375000 C -12.867122,-3.3101933 -4.4766282,-5.7523062 3.9062500,-8.2187500 C 2.9498237,-11.000646 1.9892659,-13.781142 1.0312500,-16.562500 C 5.6041749,-16.459051 10.177034,-16.349866 14.750000,-16.250000 C 14.750000,-24.968750 14.750000,-33.687500 14.750000,-42.406250 C 6.1041667,-42.406250 -2.5416667,-42.406250 -11.187500,-42.406250 L -11.187500,-42.312500 z "
         id="path1068"
         style="stroke-width:1.0000000pt;" />
      <path
         d="M -11.500000,-42.750000 C -11.460312,-38.770823 -11.416337,-34.791668 -11.375000,-30.812500 C -17.260232,-28.968177 -23.146943,-27.128434 -29.031250,-25.281250 C -26.494364,-16.991382 -23.974387,-8.6961178 -21.437500,-0.40625000 C -12.804551,-2.9557868 -4.1641986,-5.4817126 4.4687500,-8.0312500 C 3.5132068,-10.771787 2.5516189,-13.510258 1.5937500,-16.250000 C 6.1250084,-16.146559 10.656200,-16.037324 15.187500,-15.937500 C 15.187500,-24.906250 15.187500,-33.875000 15.187500,-42.843750 C 6.2916667,-42.843750 -2.6041667,-42.843750 -11.500000,-42.843750 L -11.500000,-42.750000 z "
         id="path1073"
         style="stroke-width:1.0000000pt;" />
    </g>
    <path
       d="M 63.519960,18.156749 L 64.283078,88.363586 L 134.48992,89.889822 L 134.48992,18.156749 L 63.519960,18.156749 z "
       id="path850"
       sodipodi:nodetypes="ccccc"
       style="fill:#ffffff;fill-rule:evenodd;stroke-width:1.0000000pt;" />
    <path
       d="M 70.480106,30.733543 L 70.159174,76.099064 L 127.16723,77.749755 L 126.84630,29.963219 L 70.480106,30.733543 z "
       id="path869"
       sodipodi:nodetypes="ccccc"
       style="fill:url(#linearGradient867);fill-rule:evenodd;stroke-width:1.8367109;" />
    <path
       d="M 12.391068,69.285641 L 32.232131,134.91377 L 100.91273,115.07271 L 78.782318,47.918341 L 12.391068,69.285641 z "
       id="path849"
       style="fill:#ffffff;fill-rule:evenodd;stroke-width:1.0000000pt;" />
    <path
       d="M 21.065418,81.021444 L 34.009479,121.81351 L 42.382898,119.58304 C 62.415730,120.71532 78.032214,119.25848 91.475263,102.93128 L 76.841894,63.557929 L 21.065418,81.021444 z "
       id="path868"
       sodipodi:nodetypes="cccccc"
       style="fill:url(#linearGradient873);fill-rule:evenodd;stroke-width:1.8367109;" />
    <g
       id="g1117"
       style="fill-opacity:0.070000000;"
       transform="matrix(2.635022,0.000000,0.000000,2.514741,97.32327,85.60771)">
      <path
         d="M -3.8172287,9.3581066 C -3.8172287,14.134223 -7.6934966,18.010492 -12.469612,18.010492 C -17.245727,18.010492 -21.121997,14.134223 -21.121997,9.3581066 C -21.121997,4.5819904 -17.245727,0.70572280 -12.469612,0.70572280 C -7.6934966,0.70572280 -3.8172287,4.5819904 -3.8172287,9.3581066 z M -5.5986006,14.702227 L 3.5627467,23.609093 L 1.0179279,25.390466 L -7.6344556,16.483600 L -5.5986006,14.702227 z "
         id="path1098"
         style="stroke-width:1.0000000pt;" />
      <path
         d="M -15.937500,1.0937500 C -16.969675,1.8140270 -18.113284,2.5478878 -19.054464,3.3359965 C -19.615763,4.2957407 -20.328271,5.2020552 -20.797544,6.1942302 C -20.951442,7.3703777 -21.251072,8.5491172 -21.319470,9.7238546 C -21.005543,10.910778 -20.769490,12.139886 -20.410243,13.302049 C -19.767400,14.160478 -19.188846,15.152420 -18.508186,15.930141 C -17.574906,16.504143 -16.668689,17.170100 -15.718750,17.687500 C -14.508909,17.841960 -13.296413,18.112785 -12.088152,18.196574 C -10.893080,17.890823 -9.6391339,17.725974 -8.4790160,17.337324 C -8.0352353,16.876296 -7.3446088,17.095951 -6.9744410,17.531273 C -4.3055993,20.270574 -1.6389793,23.012068 1.0312500,25.750000 C 2.0375301,25.044078 3.0580418,24.343231 4.0312500,23.593750 C 0.88075614,20.614980 -2.2144761,17.567611 -5.3437500,14.562500 C -4.8295347,13.665887 -4.2278399,12.810036 -4.0952065,11.759550 C -3.7968517,10.634972 -3.4810177,9.4790748 -3.7660858,8.3179121 C -3.9696892,6.6398528 -4.6719446,5.0751893 -5.6592508,3.7163523 C -6.4847600,2.8435040 -7.4176242,1.9938993 -8.5022026,1.4347668 C -9.8721392,0.81553058 -11.379728,0.74107628 -12.843750,0.50000000 C -13.875000,0.69791667 -14.906250,0.89583333 -15.937500,1.0937500 z "
         id="path1102"
         style="stroke-width:1.0000000pt;" />
      <path
         d="M -16.156250,0.75000000 C -17.307458,1.5442523 -18.484681,2.4345028 -19.593750,3.2500000 C -20.114724,4.2807745 -20.823813,5.2551697 -21.231586,6.3197301 C -21.357419,7.5571514 -21.609063,8.8028035 -21.659316,10.035313 C -21.282889,11.262210 -20.983182,12.537824 -20.560952,13.735368 C -19.790684,14.605421 -19.128549,15.664358 -18.295873,16.420021 C -17.435440,16.890429 -16.643770,17.574288 -15.742600,17.917670 C -14.442031,18.037054 -13.135732,18.265833 -11.838567,18.319790 C -10.538212,18.004860 -9.2378558,17.689930 -7.9375000,17.375000 C -5.9140343,19.189163 -3.9006185,21.013665 -2.0676489,23.023822 C -1.0888122,24.048850 -0.087662917,25.052170 0.90625000,26.062500 C 2.0696610,25.232800 3.2441608,24.403815 4.3750000,23.531250 C 1.1937709,20.541528 -1.9333127,17.484368 -5.0937500,14.468750 C -4.6006815,12.978019 -4.0531744,11.496301 -3.5937500,10.000000 C -3.8518355,8.7188028 -3.8884326,7.3677892 -4.2905760,6.1320012 C -4.7986462,5.1758466 -5.2017624,4.1162429 -5.7685273,3.2196355 C -6.7541504,2.4863303 -7.7224716,1.7016887 -8.7187500,1.0000000 C -10.262810,0.76308016 -11.804748,0.39563509 -13.350134,0.23705398 C -14.285506,0.40803600 -15.220878,0.57901799 -16.156250,0.75000000 z "
         id="path1106"
         style="stroke-width:1.0000000pt;" />
      <path
         d="M -16.406250,0.28125000 C -17.657893,1.1775668 -18.964146,2.1055740 -20.156250,3.0625000 C -20.671451,4.2157773 -21.326340,5.3328402 -21.758117,6.5077186 C -21.834252,7.8172068 -22.024855,9.1385001 -22.032138,10.440909 C -21.662436,11.575019 -21.328427,12.788618 -20.937500,13.875000 C -19.953674,14.904431 -19.005901,16.059579 -18.002474,17.013810 C -17.122830,17.375734 -16.310434,17.991366 -15.390643,18.201454 C -14.019504,18.250089 -12.633155,18.480561 -11.271133,18.419816 C -10.243255,18.165295 -9.2153776,17.910772 -8.1875000,17.656250 C -5.1981010,20.593936 -2.2072311,23.530138 0.78125000,26.468750 C 2.1538555,25.473555 3.5344811,24.474899 4.8750000,23.437500 C 1.6419022,20.405888 -1.5375161,17.307323 -4.7500000,14.250000 C -4.2878859,12.759383 -3.7740893,11.276814 -3.3437500,9.7812500 C -3.7422325,8.1898992 -3.9917650,6.5339721 -4.4794303,4.9814891 C -5.0047323,4.1738642 -5.4449437,3.2263264 -6.0197035,2.5024637 C -6.9444136,1.8582484 -7.8364291,1.1138314 -8.7812500,0.53125000 C -10.522883,0.32051170 -12.265438,0.012846603 -14.006519,-0.13870293 C -14.806430,0.0012813815 -15.606340,0.14126569 -16.406250,0.28125000 z "
         id="path1111"
         style="stroke-width:1.0000000pt;" />
      <path
         d="M -16.687500,-0.21875000 C -18.055127,0.70738213 -19.378876,1.7845970 -20.718750,2.7812500 C -21.221003,4.1257511 -21.905068,5.4314163 -22.347723,6.7892152 C -22.373474,8.1292475 -22.505142,9.4839703 -22.467532,10.815226 C -22.099095,11.866653 -21.762463,12.995505 -21.375000,14.000000 C -20.337283,15.099024 -19.268314,16.237320 -18.250000,17.312500 C -17.109020,17.681609 -15.989424,18.173588 -14.835710,18.469521 C -13.420937,18.443291 -11.987992,18.564030 -10.584229,18.448720 C -9.8894857,18.267897 -9.1947428,18.087073 -8.5000000,17.906250 C -5.4689322,20.885600 -2.4364125,23.863486 0.59375000,26.843750 C 2.1755458,25.682998 3.7623579,24.514889 5.3125000,23.312500 C 1.9970249,20.238216 -1.2668438,17.099159 -4.5625000,14.000000 C -4.1003859,12.509383 -3.5865893,11.026814 -3.1562500,9.5312500 C -3.6436790,7.7485486 -4.0602015,5.9253132 -4.5905124,4.1672369 C -5.2602604,3.3284828 -5.7966778,2.2917247 -6.5453578,1.5760313 C -7.3568233,1.0734098 -8.1401888,0.47652094 -8.9687500,0.031250000 C -10.910459,-0.12934119 -12.855431,-0.42451187 -14.795105,-0.50119700 C -15.425903,-0.40704798 -16.056702,-0.31289900 -16.687500,-0.21875000 z "
         id="path1116"
         style="stroke-width:1.0000000pt;" />
    </g>
    <path
       d="M 83.042707,119.79209 L 108.25052,144.29968 L 101.24835,149.20120 L 77.440971,124.69361 L 83.042707,119.79209 z "
       id="path852"
       sodipodi:nodetypes="ccccc"
       style="fill:#807d74;fill-rule:evenodd;stroke-width:0.50000000;fill-opacity:1.0000000;" />
    <path
       d="M 87.944223,105.08753 C 87.944223,118.22920 77.278517,128.89491 64.136846,128.89491 C 50.995172,128.89491 40.329463,118.22920 40.329463,105.08753 C 40.329463,91.945856 50.995172,81.280150 64.136846,81.280150 C 77.278517,81.280150 87.944223,91.945856 87.944223,105.08753 z "
       id="path853"
       style="fill:url(#radialGradient1438);fill-opacity:1;fill-rule:evenodd;stroke-width:1.0956676;stroke:#314e6c;stroke-opacity:0.55974841;stroke-miterlimit:4.0000000;stroke-dasharray:none;" />
    <path
       d="M 74.617390,88.135471 C 77.844979,92.478813 74.043884,100.77506 66.132799,106.65388 C 58.221718,112.53271 49.181632,113.77889 45.954043,109.43555 C 42.726456,105.09222 46.527554,96.795965 54.438636,90.917143 C 62.349721,85.038322 71.389803,83.792135 74.617390,88.135471 z "
       id="path863"
       style="fill:url(#linearGradient1044);fill-opacity:1;fill-rule:evenodd;stroke-width:1.0000000pt;" />
    <path
       d="M 47.941509,117.09623 C 60.523363,117.98864 75.920626,115.74044 84.505698,105.34296 C 88.980588,117.79224 61.856950,138.36227 47.941509,117.09623 z "
       id="path885"
       sodipodi:nodetypes="ccc"
       style="fill:url(#linearGradient1437);fill-opacity:1;fill-rule:evenodd;stroke-width:1.0000000pt;" />
  </g>
  <path
     d="M 87.149585,127.68306 L 92.149585,123.93306 L 119.06250,150.00000 L 112.81250,154.68750 L 87.149585,127.68306 z "
     id="path1766"
     sodipodi:nodetypes="ccccc"
     style="fill:url(#linearGradient1123);fill-rule:evenodd;stroke:none;stroke-opacity:1;stroke-width:1pt;stroke-linejoin:miter;stroke-linecap:butt;fill-opacity:1;" />
</svg>
