<?xml version="1.0" encoding="utf-8"?>
<!DOCTYPE svg PUBLIC "-//W3C//DTD SVG 1.1//EN" "http://www.w3.org/Graphics/SVG/1.1/DTD/svg11.dtd">
<svg version="1.1" xmlns="http://www.w3.org/2000/svg" xmlns:xlink="http://www.w3.org/1999/xlink" x="0px" y="0px"
	 xml:space="preserve">
	<g class="giga">
		<path class="body" fill="#F9D434" d="M202.031,151.483H15.358c0,0-1.184-0.052-1.418-0.313s0.009-1.215,0.009-1.215L36.625,43.483c0,0,24.333-2.334,36.333-11.667s20.333-29,20.333-29h68.333c0,0,3.648-0.181,5.152,1.542s1.599,2.853,1.599,2.853l35.229,142.839c0,0,0.235,0.987,0.02,1.203S202.031,151.483,202.031,151.483z"/>
		<path class="leftarm" fill="#F9D434" d="M180.458,66.483c0,0,12.005-5.838,13.166-7s0-29.333,0-29.333s-0.421-2.5,3.834-2.5s4.666,5,4.666,5s0.091,3.915,1.591,4.773s4.756-0.451,7.076,1.061s7.649,6.942,7.667,18.046s-8.628,16.732-12.5,16.787s-5.094-1.968-7.5-2s-12.165,8.543-12.165,8.543L180.458,66.483z"/>
		<g class="rightarm">
			<path fill="#F9D434" d="M35.012,70.519c0,0-9.345-1.007-13.229-1.745v12.42c4.175,0.697,12.267,3.886,12.267,3.886L35.012,70.519z"/>
				<g class="spoon">
					<ellipse fill="#C62127" cx="18.843" cy="24.564" rx="11.749" ry="24.564"/>
					<polygon fill="#C62127" points="17.198,46.652 17.198,99.76 21.897,99.76 28.242,92.707 22.72,44.772"/>
				</g>
			<path fill="#F9D434" d="M12.38,62.798c0,0,12.062,0.584,11.258,13.426S18.01,90.139,12.38,90.675c-5.629,0.536-10.186-5.897-10.99-7.237s-2.68-14.475,0-17.691C4.071,62.53,12.38,62.798,12.38,62.798z"/>
		</g>
		<path class="hair" fill="#4F2813" d="M175.625,28.561c-6,0-14.125-10.5-19.25-10.5s-11.375,10.5-15.75,10.5s-10-10.5-15.5-10.5s-11.123,10.5-16.562,10.5-9.938-10.5-15.438-10.5s-10.133,10.5-18.066,10.5S89.25,5.18,93.375,2.811s71.435-2.315,73.75,0S181.625,28.561,175.625,28.561z"/>
		<path class="mouth" fill="#4F2813" d="M79.105,66.915l57.292-4.328c0,0-4.917,26.364-26.022,28.229C89.27,92.68,79.105,66.915,79.105,66.915z"/>
		<path class="nose" fill="#4F2813" d="M101.854,56.529l12.918-1.615c0,0-4.675-3.634-8.208-2.96S101.854,56.529,101.854,56.529z"/>
		<g class="eyes">
			<path fill="#4F2813" d="M82.881,46.198c-0.914-5.044-4.116-8.775-7.938-8.775c-4.533,0-8.208,5.241-8.208,11.707s3.675,11.707,8.208,11.707c3.702,0,6.829-3.496,7.852-8.298l-7.852-3.409L82.881,46.198z"/>
			<path fill="#4F2813" d="M151.881,46.198c-0.913-5.044-4.116-8.775-7.938-8.775c-4.533,0-8.207,5.241-8.207,11.707s3.674,11.707,8.207,11.707c3.702,0,6.829-3.496,7.853-8.298l-7.853-3.409L151.881,46.198z"/>
		</g>
	</g>
</svg>
