<?xml version="1.0" encoding="utf-8"?>
<!DOCTYPE svg PUBLIC "-//W3C//DTD SVG 1.1//EN" "http://www.w3.org/Graphics/SVG/1.1/DTD/svg11.dtd">
<svg version="1.1" xmlns="http://www.w3.org/2000/svg" xmlns:xlink="http://www.w3.org/1999/xlink" x="0px" y="0px" xml:space="preserve">
<g class="giga">
	<ellipse class="body" fill="#E22540" cx="107.751" cy="79.962" rx="77.873" ry="78.29"/>
	<path class="leftarm" fill="#E22540" d="M179.458,66.586c0,0,12.005-5.838,13.166-7s0-29.333,0-29.333s-0.421-2.5,3.834-2.5s4.666,5,4.666,5s0.091,3.915,1.591,4.773s4.756-0.451,7.076,1.061s7.649,6.942,7.667,18.046s-8.628,16.732-12.5,16.787s-5.094-1.968-7.5-2s-12.165,8.543-12.165,8.543L179.458,66.586z"/>
	<g class="rightarm">
		<path fill="#E22540" d="M35.012,70.622c0,0-9.345-1.007-13.229-1.745v12.42c4.175,0.697,12.267,3.886,12.267,3.886L35.012,70.622z"/>
		<path fill="#E22540" d="M12.38,60.944c0,0,12.062,0.584,11.258,13.426S18.01,88.285,12.38,88.821c-5.629,0.536-10.186-5.897-10.99-7.237s-2.68-14.475,0-17.691C4.071,60.676,12.38,60.944,12.38,60.944z"/>
	</g>
	<path class="hair" fill="#FEEE07" d="M158.064,26.664c-6,0-14.125-10.5-19.25-10.5s-11.375,10.5-15.75,10.5s-10-10.5-15.5-10.5s-11.123,10.5-16.562,10.5s-9.938-10.5-15.438-10.5s-10.133,10.5-18.066,10.5s14.191-23.38,18.316-25.75s65.679,0.357,67.994,2.672S164.064,26.664,158.064,26.664z"/>
	<g class="face">
		<path fill="#FFFFFF" d="M79.105,67.018l57.292-4.328c0,0-4.917,26.364-26.022,28.229C89.27,92.783,79.105,67.018,79.105,67.018z"/>
		<path fill="#FFFFFF" d="M101.854,56.632l12.918-1.615c0,0-4.675-3.634-8.208-2.96S101.854,56.632,101.854,56.632z"/>
		<path fill="#FFFFFF" d="M82.881,46.301c-0.914-5.044-4.116-8.775-7.938-8.775c-4.533,0-8.208,5.241-8.208,11.707s3.675,11.707,8.208,11.707c3.702,0,6.829-3.496,7.852-8.298l-7.852-3.409L82.881,46.301z"/>
		<path fill="#FFFFFF" d="M151.881,46.301c-0.913-5.044-4.116-8.775-7.938-8.775c-4.533,0-8.207,5.241-8.207,11.707s3.674,11.707,8.207,11.707c3.702,0,6.829-3.496,7.853-8.298l-7.853-3.409L151.881,46.301z"/>
	</g>
</g>
</svg>
